%
M48
M72
T01C0.0236
T02C0.0240
T03C0.0276
T04C0.0315
T05C0.0390
T06C0.0512
T07C0.1200
T08C0.1220
T09C0.1280
T10C0.1417
%
T01
X9469Y12707
X9469Y17273
T02
X4501Y17129
X2911Y15519
T03
X14770Y7532
X15270Y7532
X15770Y7532
X16270Y7532
X16770Y7532
X17270Y7532
X17770Y7532
X18270Y7532
X18770Y7532
X19270Y7532
X19270Y7032
X18770Y7032
X18270Y7032
X17770Y7032
X17270Y7032
X16770Y7032
X16270Y7032
X15770Y7032
X15270Y7032
X14770Y7032
T04
X12710Y5730
X11650Y6360
X10030Y7020
X10020Y8430
X8370Y8640
X5440Y8000
X6390Y10540
X5380Y13600
X7540Y16790
X7300Y17770
X3870Y19020
X12060Y17580
X13560Y17690
X12720Y15560
X13530Y14840
X18020Y14160
X20880Y14830
X24470Y12420
X25240Y10870
X24170Y8950
X21600Y6750
X23510Y5880
X24870Y5820
X24980Y4020
X29640Y4300
X29640Y6400
X18090Y3140
X12240Y4360
X10680Y4380
X12210Y1930
X5390Y5220
X14840Y11010
X15120Y10000
T05
X3114Y1750
X4886Y1750
T06
X5378Y2730
X2622Y2730
T07
X8391Y10344
X8391Y19636
T08
X30521Y15450
X31702Y17300
T09
X31634Y13792
X31634Y9292
X31634Y7595
X31634Y3095
T10
X29340Y17300
M30
