%
M48
M72
T01C0.0236
T02C0.0240
T03C0.0276
T04C0.0315
T05C0.0390
T06C0.0512
T07C0.1200
T08C0.1220
T09C0.1280
T10C0.1417
%
T01
X8681Y12212
X8681Y16778
T02
X3712Y16634
X2122Y15024
T03
X13981Y7037
X14481Y7037
X14981Y7037
X15481Y7037
X15981Y7037
X16481Y7037
X16981Y7037
X17481Y7037
X17981Y7037
X18481Y7037
X18481Y6537
X17981Y6537
X17481Y6537
X16981Y6537
X16481Y6537
X15981Y6537
X15481Y6537
X14981Y6537
X14481Y6537
X13981Y6537
T04
X11921Y5235
X10861Y5865
X9241Y6525
X9231Y7935
X7581Y8145
X5601Y10045
X4651Y7505
X4601Y4725
X9891Y3885
X11451Y3865
X11421Y1435
X17301Y2645
X22721Y5385
X24081Y5325
X24191Y3525
X20811Y6255
X23381Y8455
X24451Y10375
X23681Y11925
X20091Y14335
X17231Y13665
X12741Y14345
X11931Y15065
X11271Y17085
X12771Y17195
X6751Y16295
X6511Y17275
X3081Y18525
X4591Y13105
X14051Y10515
X14331Y9505
X28851Y5905
X28851Y3805
T05
X2326Y1255
X4097Y1255
T06
X4590Y2235
X1833Y2235
T07
X7602Y9849
X7602Y19141
T08
X29733Y14955
X30914Y16805
T09
X30846Y13297
X30846Y8797
X30846Y7100
X30846Y2600
T10
X28551Y16805
M30
