G75*
%MOIN*%
%OFA0B0*%
%FSLAX24Y24*%
%IPPOS*%
%LPD*%
%AMOC8*
5,1,8,0,0,1.08239X$1,22.5*
%
%ADD10C,0.0010*%
%ADD11C,0.0050*%
%ADD12C,0.0030*%
%ADD13C,0.0000*%
%ADD14C,0.0212*%
%ADD15C,0.0394*%
%ADD16C,0.0060*%
%ADD17C,0.0080*%
%ADD18C,0.0040*%
%ADD19C,0.0118*%
D10*
X001183Y001146D02*
X001223Y001127D01*
X001261Y001105D01*
X001298Y001080D01*
X001333Y001053D01*
X001366Y001022D01*
X001396Y000990D01*
X001424Y000955D01*
X001449Y000919D01*
X001471Y000880D01*
X001490Y000840D01*
X001507Y000806D01*
X001527Y000773D01*
X001550Y000743D01*
X001575Y000715D01*
X001604Y000690D01*
X001634Y000668D01*
X001667Y000648D01*
X001702Y000632D01*
X001738Y000619D01*
X001774Y000610D01*
X001812Y000605D01*
X001850Y000603D01*
X001850Y000600D02*
X032190Y000600D01*
X032228Y000602D01*
X032266Y000607D01*
X032303Y000617D01*
X032339Y000629D01*
X032374Y000646D01*
X032407Y000665D01*
X032438Y000688D01*
X032467Y000713D01*
X032493Y000741D01*
X032516Y000772D01*
X032536Y000804D01*
X032553Y000839D01*
X032556Y000837D02*
X032575Y000877D01*
X032597Y000915D01*
X032622Y000951D01*
X032649Y000985D01*
X032679Y001017D01*
X032712Y001047D01*
X032746Y001074D01*
X032782Y001099D01*
X032820Y001121D01*
X032860Y001140D01*
X032894Y001156D01*
X032927Y001177D01*
X032957Y001200D01*
X032985Y001226D01*
X033010Y001254D01*
X033033Y001285D01*
X033052Y001317D01*
X033068Y001352D01*
X033081Y001387D01*
X033091Y001424D01*
X033097Y001462D01*
X033099Y001500D01*
X033090Y001500D02*
X033090Y020040D01*
X033088Y020077D01*
X033083Y020114D01*
X033074Y020151D01*
X033062Y020186D01*
X033046Y020220D01*
X033027Y020253D01*
X033005Y020283D01*
X032980Y020311D01*
X032953Y020337D01*
X032924Y020360D01*
X032892Y020380D01*
X032858Y020396D01*
X032857Y020394D02*
X032817Y020413D01*
X032779Y020435D01*
X032742Y020460D01*
X032707Y020487D01*
X032674Y020518D01*
X032644Y020550D01*
X032616Y020585D01*
X032591Y020621D01*
X032569Y020660D01*
X032550Y020700D01*
X032533Y020734D01*
X032513Y020767D01*
X032490Y020797D01*
X032465Y020825D01*
X032436Y020850D01*
X032406Y020872D01*
X032373Y020892D01*
X032338Y020908D01*
X032302Y020921D01*
X032266Y020930D01*
X032228Y020935D01*
X032190Y020937D01*
X032190Y020940D02*
X023980Y020940D01*
X023980Y017030D01*
X023978Y016957D01*
X023972Y016884D01*
X023963Y016812D01*
X023950Y016740D01*
X023932Y016669D01*
X023912Y016599D01*
X023887Y016530D01*
X023859Y016463D01*
X023828Y016397D01*
X023793Y016333D01*
X023755Y016270D01*
X023714Y016210D01*
X023669Y016152D01*
X023622Y016097D01*
X023571Y016044D01*
X023518Y015993D01*
X023463Y015946D01*
X023405Y015901D01*
X023345Y015860D01*
X023283Y015822D01*
X023218Y015787D01*
X023152Y015756D01*
X023085Y015728D01*
X023016Y015703D01*
X022946Y015683D01*
X022875Y015665D01*
X022803Y015652D01*
X022731Y015643D01*
X022658Y015637D01*
X022585Y015635D01*
X022512Y015637D01*
X022439Y015643D01*
X022367Y015652D01*
X022295Y015665D01*
X022224Y015683D01*
X022154Y015703D01*
X022085Y015728D01*
X022018Y015756D01*
X021952Y015787D01*
X021888Y015822D01*
X021825Y015860D01*
X021765Y015901D01*
X021707Y015946D01*
X021652Y015993D01*
X021599Y016044D01*
X021548Y016097D01*
X021501Y016152D01*
X021456Y016210D01*
X021415Y016270D01*
X021377Y016333D01*
X021342Y016397D01*
X021311Y016463D01*
X021283Y016530D01*
X021258Y016599D01*
X021238Y016669D01*
X021220Y016740D01*
X021207Y016812D01*
X021198Y016884D01*
X021192Y016957D01*
X021190Y017030D01*
X021190Y020940D01*
X006460Y020940D01*
X006458Y020885D01*
X006452Y020830D01*
X006443Y020776D01*
X006429Y020722D01*
X006412Y020670D01*
X006392Y020619D01*
X006368Y020569D01*
X006340Y020521D01*
X006309Y020476D01*
X006275Y020432D01*
X006238Y020391D01*
X006199Y020353D01*
X006156Y020317D01*
X006112Y020285D01*
X006065Y020256D01*
X006016Y020230D01*
X005966Y020208D01*
X005914Y020189D01*
X005861Y020173D01*
X005807Y020162D01*
X005753Y020154D01*
X005698Y020150D01*
X005642Y020150D01*
X005587Y020154D01*
X005533Y020162D01*
X005479Y020173D01*
X005426Y020189D01*
X005374Y020208D01*
X005324Y020230D01*
X005275Y020256D01*
X005228Y020285D01*
X005184Y020317D01*
X005141Y020353D01*
X005102Y020391D01*
X005065Y020432D01*
X005031Y020476D01*
X005000Y020521D01*
X004972Y020569D01*
X004948Y020619D01*
X004928Y020670D01*
X004911Y020722D01*
X004897Y020776D01*
X004888Y020830D01*
X004882Y020885D01*
X004880Y020940D01*
X001850Y020940D01*
X001812Y020938D01*
X001774Y020933D01*
X001737Y020923D01*
X001701Y020911D01*
X001666Y020894D01*
X001633Y020875D01*
X001602Y020852D01*
X001573Y020827D01*
X001547Y020799D01*
X001524Y020768D01*
X001504Y020736D01*
X001487Y020701D01*
X001484Y020703D02*
X001465Y020663D01*
X001443Y020625D01*
X001418Y020589D01*
X001391Y020555D01*
X001361Y020523D01*
X001328Y020493D01*
X001294Y020466D01*
X001258Y020441D01*
X001220Y020419D01*
X001180Y020400D01*
X001146Y020384D01*
X001113Y020363D01*
X001083Y020340D01*
X001055Y020314D01*
X001030Y020286D01*
X001007Y020255D01*
X000988Y020223D01*
X000972Y020188D01*
X000959Y020153D01*
X000949Y020116D01*
X000943Y020078D01*
X000941Y020040D01*
X000950Y020040D02*
X000950Y001500D01*
X000952Y001463D01*
X000957Y001426D01*
X000966Y001389D01*
X000978Y001354D01*
X000994Y001320D01*
X001013Y001287D01*
X001035Y001257D01*
X001060Y001229D01*
X001087Y001203D01*
X001116Y001180D01*
X001148Y001160D01*
X001182Y001144D01*
D11*
X013552Y006270D02*
X013552Y008278D01*
X020481Y008278D01*
X020481Y006270D01*
X013552Y006270D01*
X016786Y006285D02*
X016786Y006521D01*
X017253Y006521D01*
X017253Y006289D01*
X017253Y006289D01*
X027634Y007341D02*
X027634Y008345D01*
X034760Y008345D01*
X034760Y002345D01*
X027634Y002345D01*
X027635Y003354D01*
X027634Y008541D02*
X027635Y009551D01*
X027634Y008542D02*
X034760Y008542D01*
X034760Y014542D01*
X027634Y014542D01*
X027634Y014541D02*
X027634Y013538D01*
X029067Y015442D02*
X029624Y015442D01*
X029071Y015444D02*
X029068Y015444D01*
X029068Y016326D01*
X031436Y015446D02*
X031436Y015444D01*
X031436Y015446D02*
X034741Y015446D01*
X034734Y015450D02*
X034734Y018993D01*
X029064Y018993D01*
X029065Y018996D02*
X029068Y018996D01*
X029068Y018315D01*
D12*
X031878Y015215D02*
X032002Y015215D01*
X032063Y015154D01*
X032063Y015092D01*
X032002Y015030D01*
X031816Y015030D01*
X031816Y014907D02*
X031816Y015154D01*
X031878Y015215D01*
X032185Y015154D02*
X032246Y015215D01*
X032370Y015215D01*
X032432Y015154D01*
X032432Y015092D01*
X032370Y015030D01*
X032246Y015030D01*
X032185Y014968D01*
X032185Y014907D01*
X032246Y014845D01*
X032370Y014845D01*
X032432Y014907D01*
X032553Y014907D02*
X032615Y014845D01*
X032738Y014845D01*
X032800Y014907D01*
X032800Y015215D01*
X032553Y015215D02*
X032553Y014907D01*
X032308Y014783D02*
X032308Y015277D01*
X032063Y014907D02*
X032002Y014845D01*
X031878Y014845D01*
X031816Y014907D01*
X026184Y012926D02*
X026184Y012741D01*
X025813Y012741D01*
X025813Y012619D02*
X025813Y012373D01*
X026184Y012373D01*
X026184Y012619D01*
X025999Y012496D02*
X025999Y012373D01*
X026184Y012251D02*
X025813Y012251D01*
X026184Y012004D01*
X025813Y012004D01*
X025813Y011883D02*
X026184Y011883D01*
X026184Y011636D02*
X025813Y011883D01*
X025813Y011636D02*
X026184Y011636D01*
X026060Y011514D02*
X026184Y011391D01*
X026060Y011268D01*
X025813Y011268D01*
X025875Y011146D02*
X025813Y011084D01*
X025813Y010961D01*
X025875Y010899D01*
X026122Y010899D01*
X026184Y010961D01*
X026184Y011084D01*
X026122Y011146D01*
X025999Y011268D02*
X025999Y011514D01*
X026060Y011514D02*
X025813Y011514D01*
X025875Y010778D02*
X025813Y010716D01*
X025813Y010593D01*
X025875Y010531D01*
X025999Y010593D02*
X025999Y010716D01*
X025937Y010778D01*
X025875Y010778D01*
X025999Y010593D02*
X026060Y010531D01*
X026122Y010531D01*
X026184Y010593D01*
X026184Y010716D01*
X026122Y010778D01*
X024327Y010417D02*
X023833Y010417D01*
X023895Y010478D02*
X023957Y010540D01*
X024018Y010540D01*
X024080Y010478D01*
X024080Y010355D01*
X024142Y010293D01*
X024204Y010293D01*
X024265Y010355D01*
X024265Y010478D01*
X024204Y010540D01*
X024204Y010662D02*
X024265Y010723D01*
X024265Y010847D01*
X024204Y010909D01*
X024142Y010909D01*
X023895Y010662D01*
X023895Y010909D01*
X023895Y011030D02*
X023895Y011277D01*
X023895Y011153D02*
X024265Y011153D01*
X024142Y011030D01*
X023895Y010478D02*
X023895Y010355D01*
X023957Y010293D01*
X023957Y010172D02*
X024265Y010172D01*
X024265Y009925D02*
X023957Y009925D01*
X023895Y009987D01*
X023895Y010110D01*
X023957Y010172D01*
X021428Y009015D02*
X021428Y008707D01*
X021367Y008645D01*
X021243Y008645D01*
X021181Y008707D01*
X021181Y009015D01*
X021060Y008954D02*
X020998Y009015D01*
X020875Y009015D01*
X020813Y008954D01*
X020692Y008954D02*
X020630Y009015D01*
X020506Y009015D01*
X020445Y008954D01*
X020445Y008892D01*
X020692Y008645D01*
X020445Y008645D01*
X020323Y008645D02*
X020076Y008892D01*
X020076Y008954D01*
X020138Y009015D01*
X020262Y009015D01*
X020323Y008954D01*
X020813Y008768D02*
X020875Y008830D01*
X020998Y008830D01*
X021060Y008892D01*
X021060Y008954D01*
X020937Y009077D02*
X020937Y008583D01*
X020998Y008645D02*
X020875Y008645D01*
X020813Y008707D01*
X020813Y008768D01*
X020998Y008645D02*
X021060Y008707D01*
X020323Y008645D02*
X020076Y008645D01*
X022374Y007304D02*
X022374Y007181D01*
X022435Y007119D01*
X022435Y006998D02*
X022497Y006998D01*
X022559Y006936D01*
X022559Y006813D01*
X022620Y006751D01*
X022682Y006751D01*
X022744Y006813D01*
X022744Y006936D01*
X022682Y006998D01*
X022744Y007119D02*
X022559Y007119D01*
X022620Y007243D01*
X022620Y007304D01*
X022559Y007366D01*
X022435Y007366D01*
X022374Y007304D01*
X022744Y007366D02*
X022744Y007119D01*
X022806Y006874D02*
X022312Y006874D01*
X022374Y006813D02*
X022435Y006751D01*
X022374Y006813D02*
X022374Y006936D01*
X022435Y006998D01*
X022435Y006629D02*
X022744Y006629D01*
X022744Y006382D02*
X022435Y006382D01*
X022374Y006444D01*
X022374Y006568D01*
X022435Y006629D01*
X025780Y006279D02*
X026150Y006279D01*
X026150Y006032D02*
X025780Y006032D01*
X025842Y005911D02*
X025780Y005849D01*
X025780Y005726D01*
X025842Y005664D01*
X026088Y005664D01*
X026150Y005726D01*
X026150Y005849D01*
X026088Y005911D01*
X025842Y005911D01*
X026150Y006032D02*
X025780Y006279D01*
X025842Y005543D02*
X025780Y005481D01*
X025780Y005357D01*
X025842Y005296D01*
X026088Y005296D01*
X026150Y005357D01*
X026150Y005481D01*
X026088Y005543D01*
X026088Y005174D02*
X026150Y005113D01*
X026150Y004989D01*
X026088Y004927D01*
X026027Y004927D01*
X025965Y004989D01*
X025965Y005113D01*
X025903Y005174D01*
X025842Y005174D01*
X025780Y005113D01*
X025780Y004989D01*
X025842Y004927D01*
X025842Y004806D02*
X025780Y004744D01*
X025780Y004621D01*
X025842Y004559D01*
X026088Y004559D01*
X026150Y004621D01*
X026150Y004744D01*
X026088Y004806D01*
X025842Y004806D01*
X025965Y004438D02*
X025903Y004376D01*
X025903Y004191D01*
X025780Y004191D02*
X026150Y004191D01*
X026150Y004376D01*
X026088Y004438D01*
X025965Y004438D01*
X023195Y003135D02*
X023195Y002827D01*
X023133Y002765D01*
X023010Y002765D01*
X022948Y002827D01*
X022948Y003135D01*
X022827Y003074D02*
X022765Y003135D01*
X022642Y003135D01*
X022580Y003074D01*
X022580Y003012D01*
X022642Y002950D01*
X022580Y002888D01*
X022580Y002827D01*
X022642Y002765D01*
X022765Y002765D01*
X022827Y002827D01*
X022703Y002950D02*
X022642Y002950D01*
X017273Y008457D02*
X017150Y008457D01*
X017088Y008519D01*
X017088Y008827D01*
X016967Y008765D02*
X016905Y008827D01*
X016782Y008827D01*
X016720Y008765D01*
X016598Y008765D02*
X016537Y008827D01*
X016413Y008827D01*
X016351Y008765D01*
X016351Y008704D01*
X016413Y008642D01*
X016351Y008580D01*
X016351Y008519D01*
X016413Y008457D01*
X016537Y008457D01*
X016598Y008519D01*
X016720Y008519D02*
X016720Y008580D01*
X016782Y008642D01*
X016905Y008642D01*
X016967Y008704D01*
X016967Y008765D01*
X016843Y008889D02*
X016843Y008395D01*
X016782Y008457D02*
X016720Y008519D01*
X016782Y008457D02*
X016905Y008457D01*
X016967Y008519D01*
X017273Y008457D02*
X017335Y008519D01*
X017335Y008827D01*
X016475Y008642D02*
X016413Y008642D01*
X016707Y010445D02*
X016645Y010507D01*
X016645Y010630D01*
X016707Y010692D01*
X017015Y010692D01*
X016954Y010813D02*
X017015Y010875D01*
X017015Y010998D01*
X016954Y011060D01*
X016892Y011182D02*
X017015Y011305D01*
X016645Y011305D01*
X016645Y011182D02*
X016645Y011429D01*
X016645Y011550D02*
X016645Y011797D01*
X016645Y011673D02*
X017015Y011673D01*
X016892Y011550D01*
X016768Y011060D02*
X016707Y011060D01*
X016645Y010998D01*
X016645Y010875D01*
X016707Y010813D01*
X016830Y010875D02*
X016892Y010813D01*
X016954Y010813D01*
X016830Y010875D02*
X016830Y010998D01*
X016768Y011060D01*
X016583Y010937D02*
X017077Y010937D01*
X017015Y010445D02*
X016707Y010445D01*
X016757Y012165D02*
X016695Y012227D01*
X016695Y012350D01*
X016757Y012412D01*
X017065Y012412D01*
X017004Y012533D02*
X017065Y012595D01*
X017065Y012718D01*
X017004Y012780D01*
X016942Y012902D02*
X017065Y013025D01*
X016695Y013025D01*
X016695Y012902D02*
X016695Y013149D01*
X016695Y013270D02*
X016942Y013517D01*
X017004Y013517D01*
X017065Y013455D01*
X017065Y013332D01*
X017004Y013270D01*
X016695Y013270D02*
X016695Y013517D01*
X016757Y012780D02*
X016818Y012780D01*
X016880Y012718D01*
X016880Y012595D01*
X016942Y012533D01*
X017004Y012533D01*
X017127Y012657D02*
X016633Y012657D01*
X016695Y012718D02*
X016757Y012780D01*
X016695Y012718D02*
X016695Y012595D01*
X016757Y012533D01*
X016757Y012165D02*
X017065Y012165D01*
X018858Y015675D02*
X018982Y015675D01*
X019043Y015737D01*
X019165Y015675D02*
X019412Y015675D01*
X019165Y015922D01*
X019165Y015984D01*
X019226Y016045D01*
X019350Y016045D01*
X019412Y015984D01*
X019533Y015984D02*
X019595Y016045D01*
X019718Y016045D01*
X019780Y015984D01*
X019780Y015922D01*
X019718Y015860D01*
X019595Y015860D01*
X019533Y015798D01*
X019533Y015737D01*
X019595Y015675D01*
X019718Y015675D01*
X019780Y015737D01*
X019901Y015737D02*
X019963Y015675D01*
X020087Y015675D01*
X020148Y015737D01*
X020148Y016045D01*
X019901Y016045D02*
X019901Y015737D01*
X019657Y015613D02*
X019657Y016107D01*
X019043Y015984D02*
X018982Y016045D01*
X018858Y016045D01*
X018796Y015984D01*
X018796Y015922D01*
X018858Y015860D01*
X018796Y015798D01*
X018796Y015737D01*
X018858Y015675D01*
X018858Y015860D02*
X018920Y015860D01*
X023544Y013924D02*
X023914Y013924D01*
X023729Y013739D01*
X023729Y013986D01*
X023667Y013618D02*
X023729Y013556D01*
X023729Y013433D01*
X023790Y013371D01*
X023852Y013371D01*
X023914Y013433D01*
X023914Y013556D01*
X023852Y013618D01*
X023976Y013494D02*
X023482Y013494D01*
X023544Y013433D02*
X023544Y013556D01*
X023605Y013618D01*
X023667Y013618D01*
X023544Y013433D02*
X023605Y013371D01*
X023605Y013249D02*
X023914Y013249D01*
X023914Y013002D02*
X023605Y013002D01*
X023544Y013064D01*
X023544Y013188D01*
X023605Y013249D01*
X025813Y012988D02*
X025937Y012864D01*
X025937Y012926D02*
X025937Y012741D01*
X025937Y012926D02*
X025999Y012988D01*
X026122Y012988D01*
X026184Y012926D01*
X010968Y011975D02*
X010968Y011667D01*
X010907Y011605D01*
X010783Y011605D01*
X010721Y011667D01*
X010721Y011975D01*
X010600Y011914D02*
X010538Y011975D01*
X010415Y011975D01*
X010353Y011914D01*
X010232Y011852D02*
X010108Y011975D01*
X010108Y011605D01*
X009985Y011605D02*
X010232Y011605D01*
X010353Y011667D02*
X010353Y011728D01*
X010415Y011790D01*
X010538Y011790D01*
X010600Y011852D01*
X010600Y011914D01*
X010477Y012037D02*
X010477Y011543D01*
X010538Y011605D02*
X010415Y011605D01*
X010353Y011667D01*
X010538Y011605D02*
X010600Y011667D01*
X009863Y011667D02*
X009863Y011914D01*
X009802Y011975D01*
X009678Y011975D01*
X009616Y011914D01*
X009863Y011667D01*
X009802Y011605D01*
X009678Y011605D01*
X009616Y011667D01*
X009616Y011914D01*
D13*
X009351Y012707D02*
X009353Y012728D01*
X009359Y012748D01*
X009368Y012768D01*
X009380Y012785D01*
X009395Y012799D01*
X009413Y012811D01*
X009433Y012819D01*
X009453Y012824D01*
X009474Y012825D01*
X009495Y012822D01*
X009515Y012816D01*
X009534Y012805D01*
X009551Y012792D01*
X009564Y012776D01*
X009575Y012758D01*
X009583Y012738D01*
X009587Y012718D01*
X009587Y012696D01*
X009583Y012676D01*
X009575Y012656D01*
X009564Y012638D01*
X009551Y012622D01*
X009534Y012609D01*
X009515Y012598D01*
X009495Y012592D01*
X009474Y012589D01*
X009453Y012590D01*
X009433Y012595D01*
X009413Y012603D01*
X009395Y012615D01*
X009380Y012629D01*
X009368Y012646D01*
X009359Y012666D01*
X009353Y012686D01*
X009351Y012707D01*
X007791Y010344D02*
X007793Y010393D01*
X007799Y010441D01*
X007809Y010489D01*
X007823Y010536D01*
X007840Y010582D01*
X007861Y010626D01*
X007886Y010668D01*
X007914Y010708D01*
X007946Y010746D01*
X007980Y010781D01*
X008017Y010813D01*
X008056Y010842D01*
X008098Y010868D01*
X008142Y010890D01*
X008187Y010908D01*
X008234Y010923D01*
X008281Y010934D01*
X008330Y010941D01*
X008379Y010944D01*
X008428Y010943D01*
X008476Y010938D01*
X008525Y010929D01*
X008572Y010916D01*
X008618Y010899D01*
X008662Y010879D01*
X008705Y010855D01*
X008746Y010828D01*
X008784Y010797D01*
X008820Y010764D01*
X008852Y010728D01*
X008882Y010689D01*
X008909Y010648D01*
X008932Y010604D01*
X008951Y010559D01*
X008967Y010513D01*
X008979Y010466D01*
X008987Y010417D01*
X008991Y010368D01*
X008991Y010320D01*
X008987Y010271D01*
X008979Y010222D01*
X008967Y010175D01*
X008951Y010129D01*
X008932Y010084D01*
X008909Y010040D01*
X008882Y009999D01*
X008852Y009960D01*
X008820Y009924D01*
X008784Y009891D01*
X008746Y009860D01*
X008705Y009833D01*
X008662Y009809D01*
X008618Y009789D01*
X008572Y009772D01*
X008525Y009759D01*
X008476Y009750D01*
X008428Y009745D01*
X008379Y009744D01*
X008330Y009747D01*
X008281Y009754D01*
X008234Y009765D01*
X008187Y009780D01*
X008142Y009798D01*
X008098Y009820D01*
X008056Y009846D01*
X008017Y009875D01*
X007980Y009907D01*
X007946Y009942D01*
X007914Y009980D01*
X007886Y010020D01*
X007861Y010062D01*
X007840Y010106D01*
X007823Y010152D01*
X007809Y010199D01*
X007799Y010247D01*
X007793Y010295D01*
X007791Y010344D01*
X002791Y015519D02*
X002793Y015540D01*
X002799Y015561D01*
X002808Y015581D01*
X002821Y015598D01*
X002836Y015613D01*
X002854Y015625D01*
X002874Y015633D01*
X002895Y015638D01*
X002916Y015639D01*
X002938Y015636D01*
X002958Y015629D01*
X002977Y015619D01*
X002994Y015606D01*
X003008Y015590D01*
X003019Y015571D01*
X003027Y015551D01*
X003031Y015530D01*
X003031Y015508D01*
X003027Y015487D01*
X003019Y015467D01*
X003008Y015448D01*
X002994Y015432D01*
X002977Y015419D01*
X002958Y015409D01*
X002938Y015402D01*
X002916Y015399D01*
X002895Y015400D01*
X002874Y015405D01*
X002854Y015413D01*
X002836Y015425D01*
X002821Y015440D01*
X002808Y015457D01*
X002799Y015477D01*
X002793Y015498D01*
X002791Y015519D01*
X004381Y017129D02*
X004383Y017150D01*
X004389Y017171D01*
X004398Y017191D01*
X004411Y017208D01*
X004426Y017223D01*
X004444Y017235D01*
X004464Y017243D01*
X004485Y017248D01*
X004506Y017249D01*
X004528Y017246D01*
X004548Y017239D01*
X004567Y017229D01*
X004584Y017216D01*
X004598Y017200D01*
X004609Y017181D01*
X004617Y017161D01*
X004621Y017140D01*
X004621Y017118D01*
X004617Y017097D01*
X004609Y017077D01*
X004598Y017058D01*
X004584Y017042D01*
X004567Y017029D01*
X004548Y017019D01*
X004528Y017012D01*
X004506Y017009D01*
X004485Y017010D01*
X004464Y017015D01*
X004444Y017023D01*
X004426Y017035D01*
X004411Y017050D01*
X004398Y017067D01*
X004389Y017087D01*
X004383Y017108D01*
X004381Y017129D01*
X007791Y019636D02*
X007793Y019685D01*
X007799Y019733D01*
X007809Y019781D01*
X007823Y019828D01*
X007840Y019874D01*
X007861Y019918D01*
X007886Y019960D01*
X007914Y020000D01*
X007946Y020038D01*
X007980Y020073D01*
X008017Y020105D01*
X008056Y020134D01*
X008098Y020160D01*
X008142Y020182D01*
X008187Y020200D01*
X008234Y020215D01*
X008281Y020226D01*
X008330Y020233D01*
X008379Y020236D01*
X008428Y020235D01*
X008476Y020230D01*
X008525Y020221D01*
X008572Y020208D01*
X008618Y020191D01*
X008662Y020171D01*
X008705Y020147D01*
X008746Y020120D01*
X008784Y020089D01*
X008820Y020056D01*
X008852Y020020D01*
X008882Y019981D01*
X008909Y019940D01*
X008932Y019896D01*
X008951Y019851D01*
X008967Y019805D01*
X008979Y019758D01*
X008987Y019709D01*
X008991Y019660D01*
X008991Y019612D01*
X008987Y019563D01*
X008979Y019514D01*
X008967Y019467D01*
X008951Y019421D01*
X008932Y019376D01*
X008909Y019332D01*
X008882Y019291D01*
X008852Y019252D01*
X008820Y019216D01*
X008784Y019183D01*
X008746Y019152D01*
X008705Y019125D01*
X008662Y019101D01*
X008618Y019081D01*
X008572Y019064D01*
X008525Y019051D01*
X008476Y019042D01*
X008428Y019037D01*
X008379Y019036D01*
X008330Y019039D01*
X008281Y019046D01*
X008234Y019057D01*
X008187Y019072D01*
X008142Y019090D01*
X008098Y019112D01*
X008056Y019138D01*
X008017Y019167D01*
X007980Y019199D01*
X007946Y019234D01*
X007914Y019272D01*
X007886Y019312D01*
X007861Y019354D01*
X007840Y019398D01*
X007823Y019444D01*
X007809Y019491D01*
X007799Y019539D01*
X007793Y019587D01*
X007791Y019636D01*
X009351Y017273D02*
X009353Y017294D01*
X009359Y017314D01*
X009368Y017334D01*
X009380Y017351D01*
X009395Y017365D01*
X009413Y017377D01*
X009433Y017385D01*
X009453Y017390D01*
X009474Y017391D01*
X009495Y017388D01*
X009515Y017382D01*
X009534Y017371D01*
X009551Y017358D01*
X009564Y017342D01*
X009575Y017324D01*
X009583Y017304D01*
X009587Y017284D01*
X009587Y017262D01*
X009583Y017242D01*
X009575Y017222D01*
X009564Y017204D01*
X009551Y017188D01*
X009534Y017175D01*
X009515Y017164D01*
X009495Y017158D01*
X009474Y017155D01*
X009453Y017156D01*
X009433Y017161D01*
X009413Y017169D01*
X009395Y017181D01*
X009380Y017195D01*
X009368Y017212D01*
X009359Y017232D01*
X009353Y017252D01*
X009351Y017273D01*
X030994Y013792D02*
X030996Y013842D01*
X031002Y013892D01*
X031012Y013941D01*
X031025Y013990D01*
X031043Y014037D01*
X031064Y014083D01*
X031088Y014126D01*
X031116Y014168D01*
X031147Y014208D01*
X031181Y014245D01*
X031218Y014279D01*
X031258Y014310D01*
X031300Y014338D01*
X031343Y014362D01*
X031389Y014383D01*
X031436Y014401D01*
X031485Y014414D01*
X031534Y014424D01*
X031584Y014430D01*
X031634Y014432D01*
X031684Y014430D01*
X031734Y014424D01*
X031783Y014414D01*
X031832Y014401D01*
X031879Y014383D01*
X031925Y014362D01*
X031968Y014338D01*
X032010Y014310D01*
X032050Y014279D01*
X032087Y014245D01*
X032121Y014208D01*
X032152Y014168D01*
X032180Y014126D01*
X032204Y014083D01*
X032225Y014037D01*
X032243Y013990D01*
X032256Y013941D01*
X032266Y013892D01*
X032272Y013842D01*
X032274Y013792D01*
X032272Y013742D01*
X032266Y013692D01*
X032256Y013643D01*
X032243Y013594D01*
X032225Y013547D01*
X032204Y013501D01*
X032180Y013458D01*
X032152Y013416D01*
X032121Y013376D01*
X032087Y013339D01*
X032050Y013305D01*
X032010Y013274D01*
X031968Y013246D01*
X031925Y013222D01*
X031879Y013201D01*
X031832Y013183D01*
X031783Y013170D01*
X031734Y013160D01*
X031684Y013154D01*
X031634Y013152D01*
X031584Y013154D01*
X031534Y013160D01*
X031485Y013170D01*
X031436Y013183D01*
X031389Y013201D01*
X031343Y013222D01*
X031300Y013246D01*
X031258Y013274D01*
X031218Y013305D01*
X031181Y013339D01*
X031147Y013376D01*
X031116Y013416D01*
X031088Y013458D01*
X031064Y013501D01*
X031043Y013547D01*
X031025Y013594D01*
X031012Y013643D01*
X031002Y013692D01*
X030996Y013742D01*
X030994Y013792D01*
X030994Y009292D02*
X030996Y009342D01*
X031002Y009392D01*
X031012Y009441D01*
X031025Y009490D01*
X031043Y009537D01*
X031064Y009583D01*
X031088Y009626D01*
X031116Y009668D01*
X031147Y009708D01*
X031181Y009745D01*
X031218Y009779D01*
X031258Y009810D01*
X031300Y009838D01*
X031343Y009862D01*
X031389Y009883D01*
X031436Y009901D01*
X031485Y009914D01*
X031534Y009924D01*
X031584Y009930D01*
X031634Y009932D01*
X031684Y009930D01*
X031734Y009924D01*
X031783Y009914D01*
X031832Y009901D01*
X031879Y009883D01*
X031925Y009862D01*
X031968Y009838D01*
X032010Y009810D01*
X032050Y009779D01*
X032087Y009745D01*
X032121Y009708D01*
X032152Y009668D01*
X032180Y009626D01*
X032204Y009583D01*
X032225Y009537D01*
X032243Y009490D01*
X032256Y009441D01*
X032266Y009392D01*
X032272Y009342D01*
X032274Y009292D01*
X032272Y009242D01*
X032266Y009192D01*
X032256Y009143D01*
X032243Y009094D01*
X032225Y009047D01*
X032204Y009001D01*
X032180Y008958D01*
X032152Y008916D01*
X032121Y008876D01*
X032087Y008839D01*
X032050Y008805D01*
X032010Y008774D01*
X031968Y008746D01*
X031925Y008722D01*
X031879Y008701D01*
X031832Y008683D01*
X031783Y008670D01*
X031734Y008660D01*
X031684Y008654D01*
X031634Y008652D01*
X031584Y008654D01*
X031534Y008660D01*
X031485Y008670D01*
X031436Y008683D01*
X031389Y008701D01*
X031343Y008722D01*
X031300Y008746D01*
X031258Y008774D01*
X031218Y008805D01*
X031181Y008839D01*
X031147Y008876D01*
X031116Y008916D01*
X031088Y008958D01*
X031064Y009001D01*
X031043Y009047D01*
X031025Y009094D01*
X031012Y009143D01*
X031002Y009192D01*
X030996Y009242D01*
X030994Y009292D01*
X030994Y007595D02*
X030996Y007645D01*
X031002Y007695D01*
X031012Y007744D01*
X031025Y007793D01*
X031043Y007840D01*
X031064Y007886D01*
X031088Y007929D01*
X031116Y007971D01*
X031147Y008011D01*
X031181Y008048D01*
X031218Y008082D01*
X031258Y008113D01*
X031300Y008141D01*
X031343Y008165D01*
X031389Y008186D01*
X031436Y008204D01*
X031485Y008217D01*
X031534Y008227D01*
X031584Y008233D01*
X031634Y008235D01*
X031684Y008233D01*
X031734Y008227D01*
X031783Y008217D01*
X031832Y008204D01*
X031879Y008186D01*
X031925Y008165D01*
X031968Y008141D01*
X032010Y008113D01*
X032050Y008082D01*
X032087Y008048D01*
X032121Y008011D01*
X032152Y007971D01*
X032180Y007929D01*
X032204Y007886D01*
X032225Y007840D01*
X032243Y007793D01*
X032256Y007744D01*
X032266Y007695D01*
X032272Y007645D01*
X032274Y007595D01*
X032272Y007545D01*
X032266Y007495D01*
X032256Y007446D01*
X032243Y007397D01*
X032225Y007350D01*
X032204Y007304D01*
X032180Y007261D01*
X032152Y007219D01*
X032121Y007179D01*
X032087Y007142D01*
X032050Y007108D01*
X032010Y007077D01*
X031968Y007049D01*
X031925Y007025D01*
X031879Y007004D01*
X031832Y006986D01*
X031783Y006973D01*
X031734Y006963D01*
X031684Y006957D01*
X031634Y006955D01*
X031584Y006957D01*
X031534Y006963D01*
X031485Y006973D01*
X031436Y006986D01*
X031389Y007004D01*
X031343Y007025D01*
X031300Y007049D01*
X031258Y007077D01*
X031218Y007108D01*
X031181Y007142D01*
X031147Y007179D01*
X031116Y007219D01*
X031088Y007261D01*
X031064Y007304D01*
X031043Y007350D01*
X031025Y007397D01*
X031012Y007446D01*
X031002Y007495D01*
X030996Y007545D01*
X030994Y007595D01*
X030994Y003095D02*
X030996Y003145D01*
X031002Y003195D01*
X031012Y003244D01*
X031025Y003293D01*
X031043Y003340D01*
X031064Y003386D01*
X031088Y003429D01*
X031116Y003471D01*
X031147Y003511D01*
X031181Y003548D01*
X031218Y003582D01*
X031258Y003613D01*
X031300Y003641D01*
X031343Y003665D01*
X031389Y003686D01*
X031436Y003704D01*
X031485Y003717D01*
X031534Y003727D01*
X031584Y003733D01*
X031634Y003735D01*
X031684Y003733D01*
X031734Y003727D01*
X031783Y003717D01*
X031832Y003704D01*
X031879Y003686D01*
X031925Y003665D01*
X031968Y003641D01*
X032010Y003613D01*
X032050Y003582D01*
X032087Y003548D01*
X032121Y003511D01*
X032152Y003471D01*
X032180Y003429D01*
X032204Y003386D01*
X032225Y003340D01*
X032243Y003293D01*
X032256Y003244D01*
X032266Y003195D01*
X032272Y003145D01*
X032274Y003095D01*
X032272Y003045D01*
X032266Y002995D01*
X032256Y002946D01*
X032243Y002897D01*
X032225Y002850D01*
X032204Y002804D01*
X032180Y002761D01*
X032152Y002719D01*
X032121Y002679D01*
X032087Y002642D01*
X032050Y002608D01*
X032010Y002577D01*
X031968Y002549D01*
X031925Y002525D01*
X031879Y002504D01*
X031832Y002486D01*
X031783Y002473D01*
X031734Y002463D01*
X031684Y002457D01*
X031634Y002455D01*
X031584Y002457D01*
X031534Y002463D01*
X031485Y002473D01*
X031436Y002486D01*
X031389Y002504D01*
X031343Y002525D01*
X031300Y002549D01*
X031258Y002577D01*
X031218Y002608D01*
X031181Y002642D01*
X031147Y002679D01*
X031116Y002719D01*
X031088Y002761D01*
X031064Y002804D01*
X031043Y002850D01*
X031025Y002897D01*
X031012Y002946D01*
X031002Y002995D01*
X030996Y003045D01*
X030994Y003095D01*
X005122Y002730D02*
X005124Y002761D01*
X005130Y002792D01*
X005139Y002822D01*
X005152Y002851D01*
X005169Y002878D01*
X005189Y002902D01*
X005211Y002924D01*
X005237Y002943D01*
X005264Y002959D01*
X005293Y002971D01*
X005323Y002980D01*
X005354Y002985D01*
X005386Y002986D01*
X005417Y002983D01*
X005448Y002976D01*
X005478Y002966D01*
X005506Y002952D01*
X005532Y002934D01*
X005556Y002914D01*
X005577Y002890D01*
X005596Y002865D01*
X005611Y002837D01*
X005622Y002808D01*
X005630Y002777D01*
X005634Y002746D01*
X005634Y002714D01*
X005630Y002683D01*
X005622Y002652D01*
X005611Y002623D01*
X005596Y002595D01*
X005577Y002570D01*
X005556Y002546D01*
X005532Y002526D01*
X005506Y002508D01*
X005478Y002494D01*
X005448Y002484D01*
X005417Y002477D01*
X005386Y002474D01*
X005354Y002475D01*
X005323Y002480D01*
X005293Y002489D01*
X005264Y002501D01*
X005237Y002517D01*
X005211Y002536D01*
X005189Y002558D01*
X005169Y002582D01*
X005152Y002609D01*
X005139Y002638D01*
X005130Y002668D01*
X005124Y002699D01*
X005122Y002730D01*
X002366Y002730D02*
X002368Y002761D01*
X002374Y002792D01*
X002383Y002822D01*
X002396Y002851D01*
X002413Y002878D01*
X002433Y002902D01*
X002455Y002924D01*
X002481Y002943D01*
X002508Y002959D01*
X002537Y002971D01*
X002567Y002980D01*
X002598Y002985D01*
X002630Y002986D01*
X002661Y002983D01*
X002692Y002976D01*
X002722Y002966D01*
X002750Y002952D01*
X002776Y002934D01*
X002800Y002914D01*
X002821Y002890D01*
X002840Y002865D01*
X002855Y002837D01*
X002866Y002808D01*
X002874Y002777D01*
X002878Y002746D01*
X002878Y002714D01*
X002874Y002683D01*
X002866Y002652D01*
X002855Y002623D01*
X002840Y002595D01*
X002821Y002570D01*
X002800Y002546D01*
X002776Y002526D01*
X002750Y002508D01*
X002722Y002494D01*
X002692Y002484D01*
X002661Y002477D01*
X002630Y002474D01*
X002598Y002475D01*
X002567Y002480D01*
X002537Y002489D01*
X002508Y002501D01*
X002481Y002517D01*
X002455Y002536D01*
X002433Y002558D01*
X002413Y002582D01*
X002396Y002609D01*
X002383Y002638D01*
X002374Y002668D01*
X002368Y002699D01*
X002366Y002730D01*
D14*
X008798Y017219D03*
D15*
X020264Y006049D03*
D16*
X022160Y005264D02*
X023580Y005264D01*
X023580Y003360D02*
X022160Y003360D01*
D17*
X022423Y003600D02*
X022425Y003615D01*
X022431Y003628D01*
X022440Y003640D01*
X022451Y003649D01*
X022465Y003655D01*
X022480Y003657D01*
X022495Y003655D01*
X022508Y003649D01*
X022520Y003640D01*
X022529Y003629D01*
X022535Y003615D01*
X022537Y003600D01*
X022535Y003585D01*
X022529Y003572D01*
X022520Y003560D01*
X022509Y003551D01*
X022495Y003545D01*
X022480Y003543D01*
X022465Y003545D01*
X022452Y003551D01*
X022440Y003560D01*
X022431Y003571D01*
X022425Y003585D01*
X022423Y003600D01*
X023403Y006557D02*
X023797Y006557D01*
X023797Y007423D02*
X023403Y007423D01*
X021226Y010350D02*
X021226Y014190D01*
X021224Y014213D01*
X021219Y014236D01*
X021210Y014258D01*
X021197Y014278D01*
X021182Y014296D01*
X021164Y014311D01*
X021144Y014324D01*
X021122Y014333D01*
X021099Y014338D01*
X021076Y014340D01*
X019844Y014340D01*
X019844Y014341D02*
X019823Y014342D01*
X019802Y014340D01*
X019782Y014335D01*
X019763Y014327D01*
X019746Y014316D01*
X019730Y014303D01*
X019717Y014287D01*
X019706Y014269D01*
X019698Y014250D01*
X019693Y014230D01*
X019694Y014229D02*
X019694Y010350D01*
X019693Y010350D02*
X019692Y010329D01*
X019694Y010308D01*
X019699Y010288D01*
X019707Y010269D01*
X019718Y010252D01*
X019731Y010236D01*
X019747Y010223D01*
X019765Y010212D01*
X019784Y010204D01*
X019804Y010199D01*
X019804Y010200D02*
X020200Y010200D01*
X020200Y010220D02*
X020202Y010250D01*
X020207Y010280D01*
X020216Y010309D01*
X020229Y010336D01*
X020244Y010362D01*
X020263Y010386D01*
X020284Y010407D01*
X020308Y010426D01*
X020334Y010441D01*
X020361Y010454D01*
X020390Y010463D01*
X020420Y010468D01*
X020450Y010470D01*
X020480Y010468D01*
X020510Y010463D01*
X020539Y010454D01*
X020566Y010441D01*
X020592Y010426D01*
X020616Y010407D01*
X020637Y010386D01*
X020656Y010362D01*
X020671Y010336D01*
X020684Y010309D01*
X020693Y010280D01*
X020698Y010250D01*
X020700Y010220D01*
X020700Y010200D02*
X021032Y010200D01*
X021037Y010200D02*
X021062Y010199D01*
X021086Y010201D01*
X021110Y010207D01*
X021132Y010216D01*
X021153Y010229D01*
X021172Y010244D01*
X021189Y010262D01*
X021203Y010282D01*
X021214Y010303D01*
X021222Y010326D01*
X021227Y010350D01*
X024573Y013247D02*
X024967Y013247D01*
X024967Y014113D02*
X024573Y014113D01*
D18*
X021980Y014480D02*
X021920Y014420D01*
X021800Y014420D01*
X021740Y014480D01*
X021740Y014780D01*
X021612Y014720D02*
X021552Y014780D01*
X021432Y014780D01*
X021371Y014720D01*
X021371Y014660D01*
X021612Y014420D01*
X021371Y014420D01*
X021980Y014480D02*
X021980Y014780D01*
X004970Y004220D02*
X004970Y003837D01*
X004893Y003760D01*
X004740Y003760D01*
X004663Y003837D01*
X004663Y004220D01*
X004510Y004144D02*
X004433Y004220D01*
X004279Y004220D01*
X004203Y004144D01*
X004049Y004144D02*
X003972Y004220D01*
X003819Y004220D01*
X003742Y004144D01*
X003742Y004067D01*
X003819Y003990D01*
X003742Y003913D01*
X003742Y003837D01*
X003819Y003760D01*
X003972Y003760D01*
X004049Y003837D01*
X004203Y003837D02*
X004279Y003760D01*
X004433Y003760D01*
X004510Y003837D01*
X004433Y003990D02*
X004510Y004067D01*
X004510Y004144D01*
X004433Y003990D02*
X004279Y003990D01*
X004203Y003913D01*
X004203Y003837D01*
X004356Y003683D02*
X004356Y004297D01*
X003896Y003990D02*
X003819Y003990D01*
X003589Y003837D02*
X003282Y004144D01*
X003282Y003837D01*
X003359Y003760D01*
X003512Y003760D01*
X003589Y003837D01*
X003589Y004144D01*
X003512Y004220D01*
X003359Y004220D01*
X003282Y004144D01*
D19*
X023662Y007242D03*
X024832Y013932D03*
M02*
