G75*
%MOIN*%
%OFA0B0*%
%FSLAX24Y24*%
%IPPOS*%
%LPD*%
%AMOC8*
5,1,8,0,0,1.08239X$1,22.5*
%
%ADD10C,0.0010*%
%ADD11C,0.0080*%
%ADD12R,0.0133X0.0007*%
%ADD13R,0.0182X0.0007*%
%ADD14R,0.0182X0.0007*%
%ADD15R,0.0231X0.0007*%
%ADD16R,0.0266X0.0007*%
%ADD17R,0.0294X0.0007*%
%ADD18R,0.0294X0.0007*%
%ADD19R,0.0329X0.0007*%
%ADD20R,0.0343X0.0007*%
%ADD21R,0.0371X0.0007*%
%ADD22R,0.0385X0.0007*%
%ADD23R,0.0392X0.0007*%
%ADD24R,0.0406X0.0007*%
%ADD25R,0.0427X0.0007*%
%ADD26R,0.0427X0.0007*%
%ADD27R,0.0441X0.0007*%
%ADD28R,0.0455X0.0007*%
%ADD29R,0.0469X0.0007*%
%ADD30R,0.0483X0.0007*%
%ADD31R,0.0497X0.0007*%
%ADD32R,0.0490X0.0007*%
%ADD33R,0.0511X0.0007*%
%ADD34R,0.0525X0.0007*%
%ADD35R,0.0518X0.0007*%
%ADD36R,0.0525X0.0007*%
%ADD37R,0.0532X0.0007*%
%ADD38R,0.0539X0.0007*%
%ADD39R,0.0553X0.0007*%
%ADD40R,0.0560X0.0007*%
%ADD41R,0.0567X0.0007*%
%ADD42R,0.0567X0.0007*%
%ADD43R,0.0574X0.0007*%
%ADD44R,0.0574X0.0007*%
%ADD45R,0.0581X0.0007*%
%ADD46R,0.0588X0.0007*%
%ADD47R,0.0595X0.0007*%
%ADD48R,0.0609X0.0007*%
%ADD49R,0.0609X0.0007*%
%ADD50R,0.0616X0.0007*%
%ADD51R,0.0623X0.0007*%
%ADD52R,0.0616X0.0007*%
%ADD53R,0.0623X0.0007*%
%ADD54R,0.0630X0.0007*%
%ADD55R,0.0637X0.0007*%
%ADD56R,0.0637X0.0007*%
%ADD57R,0.0644X0.0007*%
%ADD58R,0.0644X0.0007*%
%ADD59R,0.0651X0.0007*%
%ADD60R,0.0644X0.0007*%
%ADD61R,0.0651X0.0007*%
%ADD62R,0.0658X0.0007*%
%ADD63R,0.0658X0.0007*%
%ADD64R,0.0644X0.0007*%
%ADD65R,0.0567X0.0007*%
%ADD66R,0.0567X0.0007*%
%ADD67R,0.0546X0.0007*%
%ADD68R,0.0336X0.0007*%
%ADD69R,0.0322X0.0007*%
%ADD70R,0.0322X0.0007*%
%ADD71R,0.0301X0.0007*%
%ADD72R,0.0259X0.0007*%
%ADD73R,0.0224X0.0007*%
%ADD74R,0.0175X0.0007*%
%ADD75R,0.0112X0.0007*%
%ADD76R,0.0112X0.0007*%
%ADD77R,0.7560X0.0007*%
%ADD78R,0.7553X0.0007*%
%ADD79R,0.7553X0.0007*%
%ADD80R,0.7546X0.0007*%
%ADD81R,0.7539X0.0007*%
%ADD82R,0.7532X0.0007*%
%ADD83R,0.7525X0.0007*%
%ADD84R,0.7518X0.0007*%
%ADD85R,0.7511X0.0007*%
%ADD86R,0.7511X0.0007*%
%ADD87R,0.7497X0.0007*%
%ADD88R,0.7497X0.0007*%
%ADD89R,0.7490X0.0007*%
%ADD90R,0.7483X0.0007*%
%ADD91R,0.7476X0.0007*%
%ADD92R,0.7469X0.0007*%
%ADD93R,0.7462X0.0007*%
%ADD94R,0.7455X0.0007*%
%ADD95R,0.7455X0.0007*%
%ADD96R,0.7448X0.0007*%
%ADD97R,0.7441X0.0007*%
%ADD98R,0.7434X0.0007*%
%ADD99R,0.7434X0.0007*%
%ADD100R,0.7427X0.0007*%
%ADD101R,0.7420X0.0007*%
%ADD102R,0.7420X0.0007*%
%ADD103R,0.7406X0.0007*%
%ADD104R,0.7406X0.0007*%
%ADD105R,0.7399X0.0007*%
%ADD106R,0.7392X0.0007*%
%ADD107R,0.7385X0.0007*%
%ADD108R,0.7378X0.0007*%
%ADD109R,0.7378X0.0007*%
%ADD110R,0.7371X0.0007*%
%ADD111R,0.7364X0.0007*%
%ADD112R,0.0266X0.0007*%
%ADD113R,0.0126X0.0007*%
%ADD114R,0.0098X0.0007*%
%ADD115R,0.0217X0.0007*%
%ADD116R,0.0210X0.0007*%
%ADD117R,0.0217X0.0007*%
%ADD118R,0.0203X0.0007*%
%ADD119R,0.0294X0.0007*%
%ADD120R,0.0273X0.0007*%
%ADD121R,0.0287X0.0007*%
%ADD122R,0.0294X0.0007*%
%ADD123R,0.0280X0.0007*%
%ADD124R,0.0273X0.0007*%
%ADD125R,0.0329X0.0007*%
%ADD126R,0.0322X0.0007*%
%ADD127R,0.0371X0.0007*%
%ADD128R,0.0364X0.0007*%
%ADD129R,0.0364X0.0007*%
%ADD130R,0.0350X0.0007*%
%ADD131R,0.0413X0.0007*%
%ADD132R,0.0420X0.0007*%
%ADD133R,0.0336X0.0007*%
%ADD134R,0.0399X0.0007*%
%ADD135R,0.0448X0.0007*%
%ADD136R,0.0427X0.0007*%
%ADD137R,0.0469X0.0007*%
%ADD138R,0.0469X0.0007*%
%ADD139R,0.0378X0.0007*%
%ADD140R,0.0448X0.0007*%
%ADD141R,0.0504X0.0007*%
%ADD142R,0.0497X0.0007*%
%ADD143R,0.0399X0.0007*%
%ADD144R,0.0497X0.0007*%
%ADD145R,0.0420X0.0007*%
%ADD146R,0.0560X0.0007*%
%ADD147R,0.0441X0.0007*%
%ADD148R,0.0539X0.0007*%
%ADD149R,0.0455X0.0007*%
%ADD150R,0.0553X0.0007*%
%ADD151R,0.0595X0.0007*%
%ADD152R,0.0581X0.0007*%
%ADD153R,0.0490X0.0007*%
%ADD154R,0.0630X0.0007*%
%ADD155R,0.0504X0.0007*%
%ADD156R,0.0609X0.0007*%
%ADD157R,0.0637X0.0007*%
%ADD158R,0.0665X0.0007*%
%ADD159R,0.0672X0.0007*%
%ADD160R,0.0672X0.0007*%
%ADD161R,0.0679X0.0007*%
%ADD162R,0.0686X0.0007*%
%ADD163R,0.0812X0.0007*%
%ADD164R,0.0665X0.0007*%
%ADD165R,0.0693X0.0007*%
%ADD166R,0.0700X0.0007*%
%ADD167R,0.0819X0.0007*%
%ADD168R,0.0686X0.0007*%
%ADD169R,0.0679X0.0007*%
%ADD170R,0.0721X0.0007*%
%ADD171R,0.0714X0.0007*%
%ADD172R,0.0826X0.0007*%
%ADD173R,0.0707X0.0007*%
%ADD174R,0.0728X0.0007*%
%ADD175R,0.0833X0.0007*%
%ADD176R,0.0714X0.0007*%
%ADD177R,0.0714X0.0007*%
%ADD178R,0.0735X0.0007*%
%ADD179R,0.0742X0.0007*%
%ADD180R,0.0833X0.0007*%
%ADD181R,0.0728X0.0007*%
%ADD182R,0.0742X0.0007*%
%ADD183R,0.0840X0.0007*%
%ADD184R,0.0749X0.0007*%
%ADD185R,0.0742X0.0007*%
%ADD186R,0.0847X0.0007*%
%ADD187R,0.0749X0.0007*%
%ADD188R,0.0756X0.0007*%
%ADD189R,0.0854X0.0007*%
%ADD190R,0.0770X0.0007*%
%ADD191R,0.0735X0.0007*%
%ADD192R,0.0861X0.0007*%
%ADD193R,0.0777X0.0007*%
%ADD194R,0.0784X0.0007*%
%ADD195R,0.0861X0.0007*%
%ADD196R,0.0791X0.0007*%
%ADD197R,0.0868X0.0007*%
%ADD198R,0.0805X0.0007*%
%ADD199R,0.0798X0.0007*%
%ADD200R,0.0875X0.0007*%
%ADD201R,0.0812X0.0007*%
%ADD202R,0.0798X0.0007*%
%ADD203R,0.0308X0.0007*%
%ADD204R,0.0882X0.0007*%
%ADD205R,0.0791X0.0007*%
%ADD206R,0.0280X0.0007*%
%ADD207R,0.0399X0.0007*%
%ADD208R,0.0245X0.0007*%
%ADD209R,0.0889X0.0007*%
%ADD210R,0.0840X0.0007*%
%ADD211R,0.0238X0.0007*%
%ADD212R,0.0364X0.0007*%
%ADD213R,0.0259X0.0007*%
%ADD214R,0.0224X0.0007*%
%ADD215R,0.0364X0.0007*%
%ADD216R,0.0406X0.0007*%
%ADD217R,0.0259X0.0007*%
%ADD218R,0.0378X0.0007*%
%ADD219R,0.0168X0.0007*%
%ADD220R,0.0252X0.0007*%
%ADD221R,0.0392X0.0007*%
%ADD222R,0.0154X0.0007*%
%ADD223R,0.0252X0.0007*%
%ADD224R,0.0161X0.0007*%
%ADD225R,0.0385X0.0007*%
%ADD226R,0.0343X0.0007*%
%ADD227R,0.0126X0.0007*%
%ADD228R,0.0140X0.0007*%
%ADD229R,0.0315X0.0007*%
%ADD230R,0.0238X0.0007*%
%ADD231R,0.0308X0.0007*%
%ADD232R,0.0119X0.0007*%
%ADD233R,0.0217X0.0007*%
%ADD234R,0.0091X0.0007*%
%ADD235R,0.0252X0.0007*%
%ADD236R,0.0112X0.0007*%
%ADD237R,0.0196X0.0007*%
%ADD238R,0.0077X0.0007*%
%ADD239R,0.0063X0.0007*%
%ADD240R,0.0070X0.0007*%
%ADD241R,0.0056X0.0007*%
%ADD242R,0.0301X0.0007*%
%ADD243R,0.0049X0.0007*%
%ADD244R,0.0287X0.0007*%
%ADD245R,0.0056X0.0007*%
%ADD246R,0.0287X0.0007*%
%ADD247R,0.0147X0.0007*%
%ADD248R,0.0035X0.0007*%
%ADD249R,0.0042X0.0007*%
%ADD250R,0.0021X0.0007*%
%ADD251R,0.0028X0.0007*%
%ADD252R,0.0119X0.0007*%
%ADD253R,0.0014X0.0007*%
%ADD254R,0.0105X0.0007*%
%ADD255R,0.0091X0.0007*%
%ADD256R,0.0287X0.0007*%
%ADD257R,0.0049X0.0007*%
%ADD258R,0.0042X0.0007*%
%ADD259R,0.0259X0.0007*%
%ADD260R,0.0021X0.0007*%
%ADD261R,0.0007X0.0007*%
%ADD262R,0.0924X0.0007*%
%ADD263R,0.0924X0.0007*%
%ADD264R,0.0476X0.0007*%
%ADD265R,0.0931X0.0007*%
%ADD266R,0.0511X0.0007*%
%ADD267R,0.0931X0.0007*%
%ADD268R,0.0546X0.0007*%
%ADD269R,0.0532X0.0007*%
%ADD270R,0.0434X0.0007*%
%ADD271R,0.0007X0.0007*%
%ADD272R,0.0329X0.0007*%
%ADD273R,0.0035X0.0007*%
%ADD274R,0.0063X0.0007*%
%ADD275R,0.0315X0.0007*%
%ADD276R,0.0322X0.0007*%
%ADD277R,0.0084X0.0007*%
%ADD278R,0.0098X0.0007*%
%ADD279R,0.0007X0.0007*%
%ADD280R,0.0119X0.0007*%
%ADD281R,0.0133X0.0007*%
%ADD282R,0.0042X0.0007*%
%ADD283R,0.0350X0.0007*%
%ADD284R,0.0147X0.0007*%
%ADD285R,0.0357X0.0007*%
%ADD286R,0.0210X0.0007*%
%ADD287R,0.0231X0.0007*%
%ADD288R,0.0399X0.0007*%
%ADD289R,0.0357X0.0007*%
%ADD290R,0.0357X0.0007*%
%ADD291R,0.0392X0.0007*%
%ADD292R,0.0147X0.0007*%
%ADD293R,0.0413X0.0007*%
%ADD294R,0.0763X0.0007*%
%ADD295R,0.0819X0.0007*%
%ADD296R,0.0847X0.0007*%
%ADD297R,0.0196X0.0007*%
%ADD298R,0.0819X0.0007*%
%ADD299R,0.0896X0.0007*%
%ADD300R,0.0770X0.0007*%
%ADD301R,0.0224X0.0007*%
%ADD302R,0.0637X0.0007*%
%ADD303R,0.0889X0.0007*%
%ADD304R,0.0784X0.0007*%
%ADD305R,0.0784X0.0007*%
%ADD306R,0.0882X0.0007*%
%ADD307R,0.0805X0.0007*%
%ADD308R,0.0875X0.0007*%
%ADD309R,0.0868X0.0007*%
%ADD310R,0.0777X0.0007*%
%ADD311R,0.0763X0.0007*%
%ADD312R,0.0812X0.0007*%
%ADD313R,0.0742X0.0007*%
%ADD314R,0.0721X0.0007*%
%ADD315R,0.0693X0.0007*%
%ADD316R,0.0700X0.0007*%
%ADD317R,0.0588X0.0007*%
%ADD318R,0.0679X0.0007*%
%ADD319R,0.0777X0.0007*%
%ADD320R,0.0602X0.0007*%
%ADD321R,0.0483X0.0007*%
%ADD322R,0.0602X0.0007*%
%ADD323R,0.0462X0.0007*%
%ADD324R,0.0518X0.0007*%
%ADD325R,0.0504X0.0007*%
%ADD326R,0.0504X0.0007*%
%ADD327R,0.0476X0.0007*%
%ADD328R,0.0469X0.0007*%
%ADD329R,0.0462X0.0007*%
%ADD330R,0.0224X0.0007*%
%ADD331R,0.0203X0.0007*%
%ADD332R,0.0182X0.0007*%
%ADD333R,0.0434X0.0007*%
%ADD334R,0.0427X0.0007*%
%ADD335R,0.0140X0.0007*%
%ADD336C,0.0060*%
%ADD337C,0.0000*%
%ADD338C,0.0050*%
%ADD339C,0.0400*%
%ADD340C,0.0030*%
%ADD341C,0.0394*%
%ADD342C,0.0205*%
%ADD343C,0.0325*%
D10*
X001183Y001146D02*
X001223Y001127D01*
X001261Y001105D01*
X001298Y001080D01*
X001333Y001053D01*
X001366Y001022D01*
X001396Y000990D01*
X001424Y000955D01*
X001449Y000919D01*
X001471Y000880D01*
X001490Y000840D01*
X001507Y000806D01*
X001527Y000773D01*
X001550Y000743D01*
X001575Y000715D01*
X001604Y000690D01*
X001634Y000668D01*
X001667Y000648D01*
X001702Y000632D01*
X001738Y000619D01*
X001774Y000610D01*
X001812Y000605D01*
X001850Y000603D01*
X001850Y000600D02*
X032190Y000600D01*
X032228Y000602D01*
X032266Y000607D01*
X032303Y000617D01*
X032339Y000629D01*
X032374Y000646D01*
X032407Y000665D01*
X032438Y000688D01*
X032467Y000713D01*
X032493Y000741D01*
X032516Y000772D01*
X032536Y000804D01*
X032553Y000839D01*
X032556Y000837D02*
X032575Y000877D01*
X032597Y000915D01*
X032622Y000951D01*
X032649Y000985D01*
X032679Y001017D01*
X032712Y001047D01*
X032746Y001074D01*
X032782Y001099D01*
X032820Y001121D01*
X032860Y001140D01*
X032894Y001156D01*
X032927Y001177D01*
X032957Y001200D01*
X032985Y001226D01*
X033010Y001254D01*
X033033Y001285D01*
X033052Y001317D01*
X033068Y001352D01*
X033081Y001387D01*
X033091Y001424D01*
X033097Y001462D01*
X033099Y001500D01*
X033090Y001500D02*
X033090Y020040D01*
X033088Y020077D01*
X033083Y020114D01*
X033074Y020151D01*
X033062Y020186D01*
X033046Y020220D01*
X033027Y020253D01*
X033005Y020283D01*
X032980Y020311D01*
X032953Y020337D01*
X032924Y020360D01*
X032892Y020380D01*
X032858Y020396D01*
X032857Y020394D02*
X032817Y020413D01*
X032779Y020435D01*
X032742Y020460D01*
X032707Y020487D01*
X032674Y020518D01*
X032644Y020550D01*
X032616Y020585D01*
X032591Y020621D01*
X032569Y020660D01*
X032550Y020700D01*
X032533Y020734D01*
X032513Y020767D01*
X032490Y020797D01*
X032465Y020825D01*
X032436Y020850D01*
X032406Y020872D01*
X032373Y020892D01*
X032338Y020908D01*
X032302Y020921D01*
X032266Y020930D01*
X032228Y020935D01*
X032190Y020937D01*
X032190Y020940D02*
X023980Y020940D01*
X023980Y017030D01*
X023978Y016957D01*
X023972Y016884D01*
X023963Y016812D01*
X023950Y016740D01*
X023932Y016669D01*
X023912Y016599D01*
X023887Y016530D01*
X023859Y016463D01*
X023828Y016397D01*
X023793Y016333D01*
X023755Y016270D01*
X023714Y016210D01*
X023669Y016152D01*
X023622Y016097D01*
X023571Y016044D01*
X023518Y015993D01*
X023463Y015946D01*
X023405Y015901D01*
X023345Y015860D01*
X023283Y015822D01*
X023218Y015787D01*
X023152Y015756D01*
X023085Y015728D01*
X023016Y015703D01*
X022946Y015683D01*
X022875Y015665D01*
X022803Y015652D01*
X022731Y015643D01*
X022658Y015637D01*
X022585Y015635D01*
X022512Y015637D01*
X022439Y015643D01*
X022367Y015652D01*
X022295Y015665D01*
X022224Y015683D01*
X022154Y015703D01*
X022085Y015728D01*
X022018Y015756D01*
X021952Y015787D01*
X021888Y015822D01*
X021825Y015860D01*
X021765Y015901D01*
X021707Y015946D01*
X021652Y015993D01*
X021599Y016044D01*
X021548Y016097D01*
X021501Y016152D01*
X021456Y016210D01*
X021415Y016270D01*
X021377Y016333D01*
X021342Y016397D01*
X021311Y016463D01*
X021283Y016530D01*
X021258Y016599D01*
X021238Y016669D01*
X021220Y016740D01*
X021207Y016812D01*
X021198Y016884D01*
X021192Y016957D01*
X021190Y017030D01*
X021190Y020940D01*
X006460Y020940D01*
X006458Y020885D01*
X006452Y020830D01*
X006443Y020776D01*
X006429Y020722D01*
X006412Y020670D01*
X006392Y020619D01*
X006368Y020569D01*
X006340Y020521D01*
X006309Y020476D01*
X006275Y020432D01*
X006238Y020391D01*
X006199Y020353D01*
X006156Y020317D01*
X006112Y020285D01*
X006065Y020256D01*
X006016Y020230D01*
X005966Y020208D01*
X005914Y020189D01*
X005861Y020173D01*
X005807Y020162D01*
X005753Y020154D01*
X005698Y020150D01*
X005642Y020150D01*
X005587Y020154D01*
X005533Y020162D01*
X005479Y020173D01*
X005426Y020189D01*
X005374Y020208D01*
X005324Y020230D01*
X005275Y020256D01*
X005228Y020285D01*
X005184Y020317D01*
X005141Y020353D01*
X005102Y020391D01*
X005065Y020432D01*
X005031Y020476D01*
X005000Y020521D01*
X004972Y020569D01*
X004948Y020619D01*
X004928Y020670D01*
X004911Y020722D01*
X004897Y020776D01*
X004888Y020830D01*
X004882Y020885D01*
X004880Y020940D01*
X001850Y020940D01*
X001812Y020938D01*
X001774Y020933D01*
X001737Y020923D01*
X001701Y020911D01*
X001666Y020894D01*
X001633Y020875D01*
X001602Y020852D01*
X001573Y020827D01*
X001547Y020799D01*
X001524Y020768D01*
X001504Y020736D01*
X001487Y020701D01*
X001484Y020703D02*
X001465Y020663D01*
X001443Y020625D01*
X001418Y020589D01*
X001391Y020555D01*
X001361Y020523D01*
X001328Y020493D01*
X001294Y020466D01*
X001258Y020441D01*
X001220Y020419D01*
X001180Y020400D01*
X001146Y020384D01*
X001113Y020363D01*
X001083Y020340D01*
X001055Y020314D01*
X001030Y020286D01*
X001007Y020255D01*
X000988Y020223D01*
X000972Y020188D01*
X000959Y020153D01*
X000949Y020116D01*
X000943Y020078D01*
X000941Y020040D01*
X000950Y020040D02*
X000950Y001500D01*
X000952Y001463D01*
X000957Y001426D01*
X000966Y001389D01*
X000978Y001354D01*
X000994Y001320D01*
X001013Y001287D01*
X001035Y001257D01*
X001060Y001229D01*
X001087Y001203D01*
X001116Y001180D01*
X001148Y001160D01*
X001182Y001144D01*
D11*
X006706Y004544D02*
X007257Y004544D01*
X007257Y005056D01*
X006706Y005056D01*
X007257Y005056D02*
X007414Y005056D01*
X007414Y004544D02*
X007257Y004544D01*
X007000Y003680D02*
X007000Y001100D01*
X008400Y001100D01*
X008400Y003680D01*
X007000Y003680D01*
X008922Y011617D02*
X010221Y011617D01*
X010420Y011617D01*
X010417Y015046D02*
X010206Y015046D01*
X008907Y015046D01*
X013278Y019579D02*
X013198Y019659D01*
X013198Y019979D01*
X013278Y020059D01*
X013438Y020059D01*
X013518Y019979D01*
X013714Y020059D02*
X013714Y019579D01*
X013518Y019659D02*
X013438Y019579D01*
X013278Y019579D01*
X013714Y019819D02*
X014034Y019819D01*
X014229Y019819D02*
X014389Y019819D01*
X014229Y020059D02*
X014229Y019579D01*
X014550Y019579D01*
X014745Y019659D02*
X014825Y019579D01*
X014985Y019579D01*
X015065Y019659D01*
X015261Y019659D02*
X015341Y019579D01*
X015501Y019579D01*
X015581Y019659D01*
X015581Y019979D01*
X015501Y020059D01*
X015341Y020059D01*
X015261Y019979D01*
X015261Y019659D01*
X014745Y019659D02*
X014745Y019979D01*
X014825Y020059D01*
X014985Y020059D01*
X015065Y019979D01*
X014550Y020059D02*
X014229Y020059D01*
X014034Y020059D02*
X014034Y019579D01*
X015776Y019579D02*
X015776Y020059D01*
X016096Y019579D01*
X016096Y020059D01*
X016550Y020059D02*
X016790Y020059D01*
X016870Y019979D01*
X016870Y019819D01*
X016790Y019739D01*
X016550Y019739D01*
X016550Y019579D02*
X016550Y020059D01*
X017065Y019979D02*
X017065Y019659D01*
X017145Y019579D01*
X017305Y019579D01*
X017386Y019659D01*
X017581Y019579D02*
X017821Y019579D01*
X017901Y019659D01*
X017901Y019739D01*
X017821Y019819D01*
X017581Y019819D01*
X017581Y019579D02*
X017581Y020059D01*
X017821Y020059D01*
X017901Y019979D01*
X017901Y019899D01*
X017821Y019819D01*
X018097Y019659D02*
X018177Y019659D01*
X018177Y019579D01*
X018097Y019579D01*
X018097Y019659D01*
X018354Y019899D02*
X018514Y019579D01*
X018675Y019899D01*
X018870Y019899D02*
X019030Y020059D01*
X019030Y019579D01*
X018870Y019579D02*
X019190Y019579D01*
X019386Y019579D02*
X019466Y019579D01*
X019466Y019659D01*
X019386Y019659D01*
X019386Y019579D01*
X019643Y019659D02*
X019964Y019979D01*
X019964Y019659D01*
X019884Y019579D01*
X019724Y019579D01*
X019643Y019659D01*
X019643Y019979D01*
X019724Y020059D01*
X019884Y020059D01*
X019964Y019979D01*
X017386Y019979D02*
X017305Y020059D01*
X017145Y020059D01*
X017065Y019979D01*
X016372Y019659D02*
X016372Y019579D01*
X016292Y019579D01*
X016292Y019659D01*
X016372Y019659D01*
D12*
X016437Y017222D03*
X014393Y017222D03*
X013448Y016102D03*
X019188Y017222D03*
X019846Y016102D03*
D13*
X019850Y016109D03*
D14*
X013451Y016109D03*
D15*
X013448Y016116D03*
X015352Y017236D03*
X019846Y016732D03*
X019846Y016116D03*
D16*
X019850Y016123D03*
X020333Y017124D03*
X020333Y017138D03*
X020333Y017145D03*
X020333Y017159D03*
X020333Y017173D03*
X020333Y017180D03*
X020333Y017194D03*
X020333Y017208D03*
X020333Y017215D03*
X020333Y017229D03*
X020333Y017243D03*
X020333Y017250D03*
X020333Y017264D03*
X020333Y017278D03*
X020333Y017285D03*
X020333Y017299D03*
X020333Y017313D03*
X020333Y017320D03*
X020333Y017334D03*
X020333Y017348D03*
X020333Y017355D03*
X020333Y017369D03*
X020333Y017383D03*
X020333Y017390D03*
X020333Y017404D03*
X020333Y017418D03*
X020333Y017425D03*
X020333Y017439D03*
X020333Y017453D03*
X020333Y017460D03*
X020333Y017474D03*
X020333Y017488D03*
X020333Y017495D03*
X020333Y017509D03*
X020333Y017523D03*
X020333Y017530D03*
X020333Y017544D03*
X020333Y017558D03*
X020333Y017565D03*
X020333Y017579D03*
X020333Y017593D03*
X020333Y017600D03*
X020333Y017614D03*
X020333Y017628D03*
X020333Y017635D03*
X020333Y017649D03*
X020333Y017663D03*
X020333Y017670D03*
X020333Y017684D03*
X020333Y017698D03*
X020333Y017705D03*
X020333Y017719D03*
X020333Y017733D03*
X020333Y017740D03*
X020333Y017754D03*
X020333Y017768D03*
X020333Y017775D03*
X020333Y017789D03*
X020333Y017803D03*
X020333Y017810D03*
X020333Y017824D03*
X020333Y017838D03*
X020333Y017845D03*
X020333Y017859D03*
X020333Y017873D03*
X020333Y017880D03*
X020333Y017894D03*
X020333Y017908D03*
X020333Y017915D03*
X020333Y017929D03*
X020333Y017943D03*
X020333Y017950D03*
X020333Y017964D03*
X020333Y017978D03*
X020333Y017985D03*
X020333Y017999D03*
X020333Y018013D03*
X020333Y018020D03*
X020333Y018034D03*
X020340Y018314D03*
X019864Y018314D03*
X019864Y018328D03*
X019864Y018335D03*
X019864Y018349D03*
X019864Y018363D03*
X019864Y018370D03*
X019864Y018384D03*
X019864Y018398D03*
X019864Y018405D03*
X019864Y018419D03*
X019864Y018433D03*
X019864Y018440D03*
X019864Y018454D03*
X019864Y018468D03*
X019864Y018475D03*
X019864Y018489D03*
X019864Y018503D03*
X019864Y018300D03*
X019864Y018293D03*
X019864Y018279D03*
X019864Y018265D03*
X019864Y018258D03*
X019864Y018244D03*
X019864Y018230D03*
X019864Y018223D03*
X019864Y018209D03*
X019864Y018195D03*
X019864Y018188D03*
X019864Y018174D03*
X019864Y018160D03*
X019864Y018153D03*
X019864Y018139D03*
X019864Y018125D03*
X019864Y018118D03*
X019864Y018104D03*
X019864Y018090D03*
X019864Y018083D03*
X019864Y018069D03*
X019864Y018055D03*
X019864Y018048D03*
X019864Y018034D03*
X019864Y018020D03*
X019864Y018013D03*
X019864Y017999D03*
X019864Y017985D03*
X019864Y017978D03*
X019864Y017964D03*
X019864Y017950D03*
X019864Y017943D03*
X019864Y017929D03*
X019864Y017915D03*
X019864Y017908D03*
X019864Y017894D03*
X019864Y017880D03*
X019864Y017873D03*
X019864Y017859D03*
X019864Y017845D03*
X019864Y017838D03*
X019864Y017824D03*
X019864Y017810D03*
X019864Y017803D03*
X019864Y017789D03*
X019864Y017775D03*
X019864Y017768D03*
X019864Y017754D03*
X019864Y017740D03*
X019864Y017733D03*
X019864Y017719D03*
X019864Y017705D03*
X019864Y017698D03*
X019864Y017684D03*
X019864Y017670D03*
X019864Y017663D03*
X019864Y017649D03*
X019864Y017635D03*
X019864Y017628D03*
X019864Y017614D03*
X019864Y017600D03*
X019864Y017593D03*
X019864Y017579D03*
X019864Y017565D03*
X019864Y017558D03*
X019864Y017544D03*
X019864Y017530D03*
X019864Y017523D03*
X019864Y017509D03*
X019864Y017495D03*
X019864Y017488D03*
X019864Y017474D03*
X019864Y017460D03*
X019864Y017453D03*
X019864Y017439D03*
X019864Y017425D03*
X019864Y017418D03*
X019864Y017404D03*
X019864Y017390D03*
X019864Y017383D03*
X019864Y017369D03*
X019864Y017355D03*
X019864Y017348D03*
X019864Y017334D03*
X019864Y017320D03*
X019864Y017313D03*
X019864Y017299D03*
X019864Y017285D03*
X019864Y017278D03*
X019864Y017264D03*
X019864Y017250D03*
X019864Y017243D03*
X019493Y017810D03*
X019493Y017824D03*
X018856Y017845D03*
X018849Y017824D03*
X018841Y017810D03*
X018841Y017803D03*
X018849Y017558D03*
X018856Y017544D03*
X018863Y017530D03*
X017896Y017530D03*
X017896Y017523D03*
X017896Y017509D03*
X017896Y017495D03*
X017896Y017488D03*
X017896Y017474D03*
X017896Y017460D03*
X017896Y017453D03*
X017896Y017439D03*
X017896Y017425D03*
X017896Y017418D03*
X017896Y017404D03*
X017896Y017390D03*
X017896Y017383D03*
X017896Y017369D03*
X017896Y017355D03*
X017896Y017348D03*
X017896Y017334D03*
X017896Y017320D03*
X017896Y017313D03*
X017896Y017299D03*
X017896Y017285D03*
X017896Y017278D03*
X017896Y017264D03*
X017896Y017250D03*
X017896Y017243D03*
X017896Y017544D03*
X017896Y017558D03*
X017896Y017565D03*
X017896Y017579D03*
X017896Y017593D03*
X017896Y017600D03*
X017896Y017614D03*
X017896Y017628D03*
X017896Y017635D03*
X017896Y017649D03*
X017896Y017663D03*
X017896Y017670D03*
X017896Y017684D03*
X017896Y017698D03*
X017896Y017705D03*
X017896Y017719D03*
X017896Y017733D03*
X017896Y017740D03*
X017533Y017523D03*
X017519Y017439D03*
X017078Y017873D03*
X017085Y017950D03*
X016741Y017824D03*
X016749Y017803D03*
X016105Y017845D03*
X016098Y017824D03*
X016091Y017810D03*
X016091Y017803D03*
X016098Y017565D03*
X016098Y017558D03*
X016105Y017544D03*
X015748Y017628D03*
X015748Y017635D03*
X015748Y017649D03*
X015748Y017663D03*
X015748Y017733D03*
X015748Y017740D03*
X015748Y017754D03*
X015748Y018083D03*
X015748Y018090D03*
X015748Y018104D03*
X015748Y018118D03*
X015748Y018125D03*
X015748Y018139D03*
X015748Y018153D03*
X015748Y018160D03*
X015748Y018174D03*
X015748Y018188D03*
X015748Y018195D03*
X015748Y018209D03*
X015748Y018223D03*
X015748Y018230D03*
X015748Y018244D03*
X015748Y018258D03*
X015748Y018265D03*
X015748Y018279D03*
X015748Y018293D03*
X015748Y018300D03*
X015748Y018314D03*
X015748Y018328D03*
X015748Y018335D03*
X015748Y018349D03*
X015748Y018363D03*
X015748Y018370D03*
X015748Y018384D03*
X015748Y018398D03*
X015748Y018405D03*
X015748Y018419D03*
X015748Y018433D03*
X015748Y018440D03*
X015748Y018454D03*
X015748Y018468D03*
X015748Y018475D03*
X015748Y018489D03*
X015748Y018503D03*
X015061Y017740D03*
X015061Y017733D03*
X015061Y017719D03*
X015061Y017705D03*
X015061Y017698D03*
X015061Y017684D03*
X015061Y017670D03*
X015061Y017663D03*
X015061Y017649D03*
X014754Y017684D03*
X014754Y017698D03*
X014754Y017705D03*
X014746Y017733D03*
X014746Y017740D03*
X014746Y017754D03*
X014746Y017670D03*
X014746Y017663D03*
X014746Y017649D03*
X014746Y017635D03*
X014040Y017649D03*
X014040Y017740D03*
X013165Y017789D03*
X013158Y017775D03*
X013158Y017768D03*
X013158Y017754D03*
X013151Y017719D03*
X013151Y017705D03*
X013151Y017698D03*
X013151Y017684D03*
X013158Y017635D03*
X013158Y017628D03*
X013158Y017614D03*
X013165Y017600D03*
X013165Y017593D03*
X015349Y017243D03*
X015748Y017243D03*
X015748Y017250D03*
X015748Y017264D03*
X015748Y017278D03*
X015748Y017285D03*
X015748Y017299D03*
X015748Y017313D03*
X015748Y017320D03*
X015748Y017334D03*
X017896Y018069D03*
X017896Y018083D03*
X017896Y018090D03*
X017896Y018104D03*
X017896Y018118D03*
X017896Y018125D03*
X017896Y018139D03*
X017896Y018153D03*
X017896Y018160D03*
X017896Y018174D03*
X017896Y018188D03*
X017896Y018195D03*
X017896Y018209D03*
X017896Y018223D03*
X017896Y018230D03*
X017896Y018244D03*
X017896Y018258D03*
X017896Y018265D03*
X017896Y018279D03*
X017896Y018293D03*
X017896Y018300D03*
X017896Y018314D03*
X017896Y018328D03*
X017896Y018335D03*
X017896Y018349D03*
X017896Y018363D03*
X017896Y018370D03*
X017896Y018384D03*
X017896Y018398D03*
X017896Y018405D03*
X017896Y018419D03*
X017896Y018433D03*
X017896Y018440D03*
X017896Y018454D03*
X017896Y018468D03*
X017896Y018475D03*
X017896Y018489D03*
X017896Y018503D03*
X013451Y016123D03*
D17*
X015349Y017250D03*
X015104Y017523D03*
X015090Y017845D03*
X014705Y017873D03*
X014075Y017859D03*
X014068Y017544D03*
X014075Y017530D03*
X013718Y017460D03*
X013193Y017859D03*
X013508Y018153D03*
X015734Y017838D03*
X015734Y017565D03*
X015734Y017558D03*
X016133Y017495D03*
X016714Y017894D03*
X017106Y017964D03*
X017309Y018153D03*
X017911Y017845D03*
X018478Y017894D03*
X018485Y017873D03*
X018884Y017495D03*
X019465Y017894D03*
X019458Y017908D03*
X019178Y018153D03*
X020361Y018363D03*
X017519Y017544D03*
X019850Y016130D03*
D18*
X016706Y017908D03*
X015096Y017859D03*
X014711Y017859D03*
X014711Y017530D03*
X014081Y017523D03*
X013451Y016130D03*
D19*
X013448Y016137D03*
X014113Y017481D03*
X014666Y017922D03*
X015135Y017481D03*
X015716Y017887D03*
X019846Y016137D03*
D20*
X019846Y016144D03*
X019419Y017943D03*
X017935Y017908D03*
X016668Y017943D03*
X016185Y017943D03*
X015709Y017495D03*
X014659Y017929D03*
X013238Y017915D03*
X013448Y016144D03*
D21*
X013448Y016151D03*
X013448Y016697D03*
X013259Y017467D03*
X015695Y017922D03*
X017473Y017586D03*
X019846Y016697D03*
X019846Y016151D03*
X020469Y018496D03*
D22*
X019181Y018139D03*
X018292Y018118D03*
X016430Y018139D03*
X015688Y017929D03*
X013448Y016690D03*
X019846Y016690D03*
X019846Y016158D03*
D23*
X017463Y017593D03*
X017148Y017810D03*
X015180Y017950D03*
X013451Y016158D03*
D24*
X013451Y016165D03*
X013451Y016683D03*
X017161Y017803D03*
X019850Y016683D03*
X019850Y016165D03*
X020451Y018454D03*
D25*
X020441Y018412D03*
X019846Y016676D03*
X019846Y016172D03*
D26*
X017438Y017607D03*
X014393Y018132D03*
X013448Y016676D03*
X013448Y016172D03*
D27*
X013448Y016179D03*
X013448Y016669D03*
X014393Y017264D03*
X015660Y017950D03*
X016437Y017264D03*
X017284Y017264D03*
X017186Y017789D03*
X019846Y016669D03*
X019846Y016179D03*
D28*
X019846Y016186D03*
X019846Y016662D03*
X015653Y017446D03*
X013448Y016662D03*
X013448Y016186D03*
D29*
X013448Y016193D03*
X013448Y016655D03*
X018285Y018083D03*
X019846Y016655D03*
X019846Y016193D03*
D30*
X019846Y016200D03*
X019846Y016648D03*
X017403Y017628D03*
X014393Y018118D03*
X013504Y017278D03*
X013448Y016648D03*
X013448Y016200D03*
D31*
X019846Y016207D03*
X019846Y016641D03*
D32*
X013451Y016641D03*
X013451Y016207D03*
D33*
X013448Y016214D03*
X013448Y016634D03*
X017375Y017649D03*
X019846Y016634D03*
X019846Y016214D03*
D34*
X019846Y016221D03*
X017368Y017656D03*
X015345Y018076D03*
D35*
X015341Y017327D03*
X013451Y016627D03*
X013451Y016221D03*
X017231Y017761D03*
X019850Y016627D03*
D36*
X019846Y016620D03*
X019846Y016228D03*
X019188Y017285D03*
X019181Y018104D03*
X017242Y017754D03*
X017277Y017285D03*
X016437Y017285D03*
X016430Y018104D03*
X014393Y017285D03*
X013511Y018104D03*
D37*
X015341Y017334D03*
X013451Y016620D03*
X013451Y016228D03*
D38*
X013448Y016235D03*
X013448Y016613D03*
X014393Y018104D03*
X017361Y017663D03*
X019846Y016613D03*
X019846Y016235D03*
D39*
X019846Y016242D03*
X017277Y017292D03*
X017277Y017726D03*
X016437Y017292D03*
X014393Y017292D03*
X014393Y018097D03*
X013511Y018097D03*
X013448Y016242D03*
D40*
X013451Y016249D03*
X013451Y016599D03*
X017288Y017719D03*
X017315Y017698D03*
X019849Y016599D03*
X019849Y016249D03*
D41*
X019846Y016256D03*
X019846Y016592D03*
D42*
X013504Y017306D03*
X013448Y016592D03*
X013448Y016256D03*
D43*
X016434Y017299D03*
X017274Y017299D03*
X019850Y016263D03*
D44*
X013451Y016263D03*
D45*
X013448Y016270D03*
X013448Y016578D03*
X013511Y018090D03*
X014393Y018090D03*
X017326Y018083D03*
X019846Y016578D03*
X019846Y016270D03*
D46*
X019850Y016277D03*
X019850Y016571D03*
X020346Y018062D03*
X020346Y018076D03*
X020346Y018097D03*
X020346Y018111D03*
X020346Y018132D03*
X020346Y018146D03*
X020346Y018167D03*
X020346Y018181D03*
X020346Y018202D03*
X020346Y018216D03*
X013451Y016571D03*
X013451Y016277D03*
D47*
X013448Y016284D03*
X013448Y016564D03*
X013504Y017313D03*
X013511Y018083D03*
X014393Y018083D03*
X019846Y016564D03*
X019846Y016284D03*
D48*
X019846Y016291D03*
X019846Y016557D03*
X014393Y018076D03*
X013448Y016557D03*
X013448Y016291D03*
D49*
X013448Y016298D03*
X013448Y016543D03*
X013448Y016550D03*
X014393Y017313D03*
X016437Y017313D03*
X019846Y016550D03*
X019846Y016543D03*
X019846Y016305D03*
X019846Y016298D03*
D50*
X019185Y017313D03*
X017266Y017313D03*
X013451Y016305D03*
D51*
X013504Y017327D03*
X019846Y016312D03*
D52*
X019850Y016536D03*
X013451Y016536D03*
X013451Y016312D03*
X013515Y018076D03*
D53*
X014393Y017320D03*
X013448Y016529D03*
X013448Y016319D03*
X016430Y018069D03*
X017333Y018069D03*
X019846Y016529D03*
X019846Y016319D03*
D54*
X019849Y016326D03*
X019849Y016522D03*
X017329Y018062D03*
X013451Y016522D03*
X013451Y016326D03*
D55*
X013511Y018069D03*
X016437Y017320D03*
X017326Y018055D03*
X019846Y016515D03*
X019846Y016508D03*
X019846Y016340D03*
X019846Y016333D03*
D56*
X019188Y017320D03*
X017284Y017985D03*
X014393Y018069D03*
X013448Y016515D03*
X013448Y016508D03*
X013448Y016340D03*
X013448Y016333D03*
D57*
X017288Y017992D03*
X017295Y018006D03*
X017309Y018027D03*
X017316Y018041D03*
X019850Y016501D03*
X019850Y016347D03*
D58*
X013451Y016347D03*
X013451Y016501D03*
D59*
X013448Y016480D03*
X013448Y016473D03*
X013448Y016459D03*
X013448Y016445D03*
X013448Y016438D03*
X013448Y016410D03*
X013448Y016403D03*
X013448Y016389D03*
X013448Y016375D03*
X013448Y016368D03*
X013504Y017334D03*
X016430Y018055D03*
X019181Y018055D03*
X019846Y016480D03*
X019846Y016473D03*
X019846Y016459D03*
X019846Y016445D03*
X019846Y016438D03*
X019846Y016410D03*
X019846Y016403D03*
X019846Y016389D03*
X019846Y016375D03*
X019846Y016368D03*
X019846Y016354D03*
D60*
X017301Y018013D03*
X017301Y018020D03*
X013451Y016494D03*
X013451Y016354D03*
D61*
X013448Y016361D03*
X013448Y016382D03*
X013448Y016396D03*
X013448Y016452D03*
X013448Y016466D03*
X013448Y016487D03*
X013511Y018062D03*
X014393Y018062D03*
X016437Y017327D03*
X017263Y017327D03*
X019188Y017327D03*
X019846Y016487D03*
X019846Y016466D03*
X019846Y016452D03*
X019846Y016431D03*
X019846Y016417D03*
X019846Y016396D03*
X019846Y016382D03*
X019846Y016361D03*
D62*
X013451Y016417D03*
X013451Y016431D03*
D63*
X013451Y016424D03*
X019850Y016424D03*
D64*
X019850Y016494D03*
X017323Y018048D03*
X017309Y018034D03*
X017288Y017999D03*
X017281Y017978D03*
D65*
X017326Y018090D03*
X019181Y018090D03*
X019846Y016585D03*
D66*
X019188Y017299D03*
X017305Y017705D03*
X016430Y018090D03*
X014393Y017299D03*
X013448Y016585D03*
D67*
X013451Y016606D03*
X016426Y018097D03*
X017344Y017677D03*
X019178Y018097D03*
X019850Y016606D03*
D68*
X019850Y016704D03*
X019185Y017243D03*
X018919Y017460D03*
X016434Y017243D03*
X015713Y017894D03*
X015349Y018139D03*
X015139Y017474D03*
X014670Y017474D03*
X014131Y017929D03*
X013228Y017488D03*
X013451Y016704D03*
D69*
X013214Y017502D03*
X015125Y017901D03*
X015720Y017516D03*
X017925Y017887D03*
X019850Y016711D03*
X020494Y018531D03*
D70*
X018911Y017467D03*
X016160Y017467D03*
X014676Y017481D03*
X013451Y016711D03*
X013220Y017901D03*
D71*
X013196Y017530D03*
X013196Y017523D03*
X014085Y017873D03*
X014085Y017880D03*
X014701Y017880D03*
X014708Y017523D03*
X015100Y017530D03*
X015730Y017544D03*
X016143Y017488D03*
X016143Y017908D03*
X016430Y018153D03*
X017095Y017845D03*
X017914Y017859D03*
X018474Y017908D03*
X018894Y017908D03*
X018894Y017488D03*
X019846Y016718D03*
X020504Y018538D03*
X015730Y017845D03*
X013448Y016718D03*
D72*
X013448Y016725D03*
X014393Y018160D03*
X015352Y018153D03*
X015751Y017719D03*
X015751Y017705D03*
X015751Y017698D03*
X015751Y017684D03*
X015751Y017670D03*
X016087Y017600D03*
X016087Y017593D03*
X017081Y017943D03*
X017536Y017509D03*
X017536Y017495D03*
X018838Y017593D03*
X018838Y017600D03*
X018845Y017565D03*
X019846Y016725D03*
X020336Y018223D03*
X020336Y018230D03*
X020336Y018244D03*
X020336Y018258D03*
X020336Y018265D03*
X020336Y018279D03*
X020336Y018293D03*
X020336Y018300D03*
D73*
X013451Y016732D03*
D74*
X013448Y016739D03*
X013742Y017495D03*
X015352Y017229D03*
X017039Y017460D03*
X019846Y016739D03*
D75*
X019850Y016746D03*
D76*
X019401Y017481D03*
X016650Y017481D03*
X013451Y016746D03*
D77*
X016685Y016858D03*
D78*
X016689Y016865D03*
D79*
X016689Y016872D03*
D80*
X016693Y016879D03*
D81*
X016696Y016886D03*
D82*
X016700Y016893D03*
X016700Y016900D03*
D83*
X016703Y016907D03*
D84*
X016706Y016914D03*
D85*
X016710Y016921D03*
D86*
X016710Y016928D03*
D87*
X016717Y016935D03*
D88*
X016717Y016942D03*
D89*
X016720Y016949D03*
D90*
X016724Y016956D03*
D91*
X016728Y016963D03*
X016728Y016970D03*
D92*
X016731Y016977D03*
D93*
X016735Y016984D03*
D94*
X016738Y016991D03*
D95*
X016738Y016998D03*
D96*
X016741Y017005D03*
D97*
X016745Y017012D03*
D98*
X016749Y017019D03*
D99*
X016749Y017026D03*
D100*
X016752Y017033D03*
D101*
X016755Y017040D03*
D102*
X016755Y017047D03*
D103*
X016763Y017054D03*
D104*
X016763Y017061D03*
D105*
X016766Y017068D03*
D106*
X016770Y017075D03*
D107*
X016773Y017082D03*
D108*
X016776Y017089D03*
D109*
X016776Y017096D03*
D110*
X016780Y017103D03*
D111*
X016784Y017110D03*
D112*
X016105Y017537D03*
X016091Y017796D03*
X016098Y017817D03*
X016098Y017831D03*
X015748Y017761D03*
X015748Y017747D03*
X015748Y017726D03*
X015748Y017656D03*
X015748Y017642D03*
X015748Y017327D03*
X015748Y017306D03*
X015748Y017292D03*
X015748Y017271D03*
X015748Y017257D03*
X015748Y017236D03*
X015061Y017656D03*
X015061Y017677D03*
X015061Y017691D03*
X015061Y017712D03*
X015061Y017726D03*
X014754Y017712D03*
X014746Y017726D03*
X014746Y017747D03*
X014754Y017691D03*
X014754Y017677D03*
X014746Y017656D03*
X014746Y017642D03*
X014040Y017656D03*
X014040Y017747D03*
X013725Y017467D03*
X013158Y017621D03*
X013158Y017642D03*
X013151Y017677D03*
X013151Y017691D03*
X013151Y017712D03*
X013158Y017761D03*
X013158Y017782D03*
X013165Y017796D03*
X015748Y018076D03*
X015748Y018097D03*
X015748Y018111D03*
X015748Y018132D03*
X015748Y018146D03*
X015748Y018167D03*
X015748Y018181D03*
X015748Y018202D03*
X015748Y018216D03*
X015748Y018237D03*
X015748Y018251D03*
X015748Y018272D03*
X015748Y018286D03*
X015748Y018307D03*
X015748Y018321D03*
X015748Y018342D03*
X015748Y018356D03*
X015748Y018377D03*
X015748Y018391D03*
X015748Y018412D03*
X015748Y018426D03*
X015748Y018447D03*
X015748Y018461D03*
X015748Y018482D03*
X015748Y018496D03*
X016741Y017817D03*
X016749Y017796D03*
X017896Y017747D03*
X017896Y017726D03*
X017896Y017712D03*
X017896Y017691D03*
X017896Y017677D03*
X017896Y017656D03*
X017896Y017642D03*
X017896Y017621D03*
X017896Y017607D03*
X017896Y017586D03*
X017896Y017572D03*
X017896Y017551D03*
X017896Y017537D03*
X017896Y017516D03*
X017896Y017502D03*
X017896Y017481D03*
X017896Y017467D03*
X017896Y017446D03*
X017896Y017432D03*
X017896Y017411D03*
X017896Y017397D03*
X017896Y017376D03*
X017896Y017362D03*
X017896Y017341D03*
X017896Y017327D03*
X017896Y017306D03*
X017896Y017292D03*
X017896Y017271D03*
X017896Y017257D03*
X017896Y017236D03*
X018856Y017537D03*
X018841Y017796D03*
X018849Y017817D03*
X018849Y017831D03*
X018856Y017852D03*
X019493Y017817D03*
X019500Y017796D03*
X019864Y017796D03*
X019864Y017782D03*
X019864Y017761D03*
X019864Y017747D03*
X019864Y017726D03*
X019864Y017712D03*
X019864Y017691D03*
X019864Y017677D03*
X019864Y017656D03*
X019864Y017642D03*
X019864Y017621D03*
X019864Y017607D03*
X019864Y017586D03*
X019864Y017572D03*
X019864Y017551D03*
X019864Y017537D03*
X019864Y017516D03*
X019864Y017502D03*
X019864Y017481D03*
X019864Y017467D03*
X019864Y017446D03*
X019864Y017432D03*
X019864Y017411D03*
X019864Y017397D03*
X019864Y017376D03*
X019864Y017362D03*
X019864Y017341D03*
X019864Y017327D03*
X019864Y017306D03*
X019864Y017292D03*
X019864Y017271D03*
X019864Y017257D03*
X019864Y017236D03*
X020333Y017236D03*
X020333Y017222D03*
X020333Y017201D03*
X020333Y017187D03*
X020333Y017166D03*
X020333Y017152D03*
X020333Y017131D03*
X020333Y017117D03*
X020333Y017257D03*
X020333Y017271D03*
X020333Y017292D03*
X020333Y017306D03*
X020333Y017327D03*
X020333Y017341D03*
X020333Y017362D03*
X020333Y017376D03*
X020333Y017397D03*
X020333Y017411D03*
X020333Y017432D03*
X020333Y017446D03*
X020333Y017467D03*
X020333Y017481D03*
X020333Y017502D03*
X020333Y017516D03*
X020333Y017537D03*
X020333Y017551D03*
X020333Y017572D03*
X020333Y017586D03*
X020333Y017607D03*
X020333Y017621D03*
X020333Y017642D03*
X020333Y017656D03*
X020333Y017677D03*
X020333Y017691D03*
X020333Y017712D03*
X020333Y017726D03*
X020333Y017747D03*
X020333Y017761D03*
X020333Y017782D03*
X020333Y017796D03*
X020333Y017817D03*
X020333Y017831D03*
X020333Y017852D03*
X020333Y017866D03*
X020333Y017887D03*
X020333Y017901D03*
X020333Y017922D03*
X020333Y017936D03*
X020333Y017957D03*
X020333Y017971D03*
X020333Y017992D03*
X020333Y018006D03*
X020333Y018027D03*
X020333Y018041D03*
X020340Y018307D03*
X020340Y018321D03*
X019864Y018321D03*
X019864Y018307D03*
X019864Y018286D03*
X019864Y018272D03*
X019864Y018251D03*
X019864Y018237D03*
X019864Y018216D03*
X019864Y018202D03*
X019864Y018181D03*
X019864Y018167D03*
X019864Y018146D03*
X019864Y018132D03*
X019864Y018111D03*
X019864Y018097D03*
X019864Y018076D03*
X019864Y018062D03*
X019864Y018041D03*
X019864Y018027D03*
X019864Y018006D03*
X019864Y017992D03*
X019864Y017971D03*
X019864Y017957D03*
X019864Y017936D03*
X019864Y017922D03*
X019864Y017901D03*
X019864Y017887D03*
X019864Y017866D03*
X019864Y017852D03*
X019864Y017831D03*
X019864Y017817D03*
X019864Y018342D03*
X019864Y018356D03*
X019864Y018377D03*
X019864Y018391D03*
X019864Y018412D03*
X019864Y018426D03*
X019864Y018447D03*
X019864Y018461D03*
X019864Y018482D03*
X019864Y018496D03*
X017896Y018496D03*
X017896Y018482D03*
X017896Y018461D03*
X017896Y018447D03*
X017896Y018426D03*
X017896Y018412D03*
X017896Y018391D03*
X017896Y018377D03*
X017896Y018356D03*
X017896Y018342D03*
X017896Y018321D03*
X017896Y018307D03*
X017896Y018286D03*
X017896Y018272D03*
X017896Y018251D03*
X017896Y018237D03*
X017896Y018216D03*
X017896Y018202D03*
X017896Y018181D03*
X017896Y018167D03*
X017896Y018146D03*
X017896Y018132D03*
X017896Y018111D03*
X017896Y018097D03*
X017896Y018076D03*
D113*
X017511Y017936D03*
X017301Y017222D03*
X013746Y017516D03*
X013515Y017222D03*
D114*
X015349Y017222D03*
D115*
X014393Y017229D03*
X019188Y017229D03*
D116*
X018289Y018160D03*
X017301Y017229D03*
D117*
X016437Y017229D03*
D118*
X016633Y017453D03*
X017046Y017453D03*
X019384Y017453D03*
X013511Y017229D03*
D119*
X014075Y017537D03*
X014705Y017516D03*
X015090Y017852D03*
X015734Y017831D03*
X015734Y017551D03*
X016140Y017901D03*
X016434Y017236D03*
X017911Y017852D03*
X018884Y017901D03*
X019458Y017901D03*
X019185Y017236D03*
D120*
X018502Y017236D03*
X018502Y017257D03*
X018502Y017271D03*
X018502Y017292D03*
X018502Y017306D03*
X018502Y017327D03*
X018502Y017341D03*
X018502Y017362D03*
X018502Y017376D03*
X018502Y017397D03*
X018502Y017411D03*
X018502Y017432D03*
X018502Y017446D03*
X018502Y017467D03*
X018502Y017481D03*
X018502Y017502D03*
X018502Y017516D03*
X018502Y017537D03*
X018502Y017551D03*
X018502Y017572D03*
X018502Y017586D03*
X018502Y017607D03*
X018502Y017621D03*
X018502Y017642D03*
X018502Y017656D03*
X018502Y017677D03*
X018502Y017691D03*
X018502Y017712D03*
X018502Y017726D03*
X018502Y017747D03*
X018502Y017761D03*
X018502Y017782D03*
X018502Y017796D03*
X018495Y017817D03*
X018495Y017831D03*
X018866Y017866D03*
X019489Y017831D03*
X020343Y018342D03*
X020518Y018552D03*
X017900Y017796D03*
X017900Y017782D03*
X017900Y017761D03*
X017081Y017866D03*
X016738Y017831D03*
X016115Y017866D03*
X016108Y017852D03*
X015744Y017782D03*
X015744Y017621D03*
X015744Y017607D03*
X015072Y017607D03*
X015065Y017621D03*
X015065Y017642D03*
X015065Y017747D03*
X015065Y017761D03*
X014743Y017761D03*
X014743Y017782D03*
X014743Y017621D03*
X014736Y017586D03*
X014043Y017607D03*
X014043Y017621D03*
X014043Y017642D03*
X014036Y017677D03*
X014036Y017691D03*
X014036Y017712D03*
X014036Y017726D03*
X014043Y017761D03*
X014043Y017782D03*
X014050Y017796D03*
X014057Y017817D03*
X013707Y017936D03*
X013168Y017817D03*
X013161Y017607D03*
X013168Y017586D03*
D121*
X013189Y017537D03*
X014064Y017551D03*
X014078Y017866D03*
X014715Y017852D03*
X015079Y017817D03*
X014715Y017537D03*
X016129Y017502D03*
X017074Y017432D03*
X017298Y017236D03*
X017508Y017432D03*
X018488Y017866D03*
X018873Y017887D03*
X018880Y017502D03*
D122*
X017091Y017852D03*
X015096Y017537D03*
X014396Y017236D03*
D123*
X014060Y017572D03*
X014054Y017586D03*
X014060Y017831D03*
X014725Y017831D03*
X014733Y017817D03*
X014739Y017796D03*
X014739Y017607D03*
X014733Y017572D03*
X015075Y017586D03*
X015083Y017572D03*
X015089Y017551D03*
X015069Y017782D03*
X015069Y017796D03*
X015740Y017796D03*
X015740Y017586D03*
X016119Y017516D03*
X016125Y017887D03*
X016728Y017866D03*
X016734Y017852D03*
X017091Y017957D03*
X017525Y017537D03*
X017904Y017817D03*
X018289Y018146D03*
X018491Y017852D03*
X018869Y017516D03*
X019485Y017852D03*
X019479Y017866D03*
X019471Y017887D03*
X020354Y018356D03*
X013508Y017236D03*
X013171Y017572D03*
X013179Y017831D03*
X013185Y017852D03*
D124*
X013168Y017810D03*
X013168Y017803D03*
X013168Y017579D03*
X014036Y017663D03*
X014036Y017670D03*
X014036Y017684D03*
X014036Y017698D03*
X014036Y017705D03*
X014036Y017719D03*
X014036Y017733D03*
X014043Y017754D03*
X014043Y017768D03*
X014043Y017775D03*
X014050Y017789D03*
X014050Y017803D03*
X014043Y017635D03*
X014043Y017628D03*
X014043Y017614D03*
X014050Y017600D03*
X014050Y017593D03*
X014743Y017614D03*
X014743Y017628D03*
X014750Y017719D03*
X014743Y017768D03*
X014743Y017775D03*
X014736Y017803D03*
X014736Y017810D03*
X015065Y017768D03*
X015065Y017754D03*
X015065Y017635D03*
X015065Y017628D03*
X015072Y017600D03*
X015072Y017593D03*
X015079Y017579D03*
X015744Y017600D03*
X015744Y017614D03*
X015744Y017768D03*
X015744Y017775D03*
X015744Y017789D03*
X016101Y017838D03*
X016108Y017859D03*
X016738Y017845D03*
X016738Y017838D03*
X016745Y017810D03*
X016115Y017530D03*
X016115Y017523D03*
X017529Y017530D03*
X017900Y017754D03*
X017900Y017768D03*
X017900Y017775D03*
X017900Y017789D03*
X017900Y017803D03*
X018495Y017824D03*
X018495Y017838D03*
X018502Y017789D03*
X018502Y017775D03*
X018502Y017768D03*
X018502Y017754D03*
X018502Y017740D03*
X018502Y017733D03*
X018502Y017719D03*
X018502Y017705D03*
X018502Y017698D03*
X018502Y017684D03*
X018502Y017670D03*
X018502Y017663D03*
X018502Y017649D03*
X018502Y017635D03*
X018502Y017628D03*
X018502Y017614D03*
X018502Y017600D03*
X018502Y017593D03*
X018502Y017579D03*
X018502Y017565D03*
X018502Y017558D03*
X018502Y017544D03*
X018502Y017530D03*
X018502Y017523D03*
X018502Y017509D03*
X018502Y017495D03*
X018502Y017488D03*
X018502Y017474D03*
X018502Y017460D03*
X018502Y017453D03*
X018502Y017439D03*
X018502Y017425D03*
X018502Y017418D03*
X018502Y017404D03*
X018502Y017390D03*
X018502Y017383D03*
X018502Y017369D03*
X018502Y017355D03*
X018502Y017348D03*
X018502Y017334D03*
X018502Y017320D03*
X018502Y017313D03*
X018502Y017299D03*
X018502Y017285D03*
X018502Y017278D03*
X018502Y017264D03*
X018502Y017250D03*
X018502Y017243D03*
X018866Y017523D03*
X018852Y017838D03*
X018859Y017859D03*
X019489Y017838D03*
X019496Y017803D03*
X020343Y018328D03*
X020343Y018335D03*
D125*
X020490Y018524D03*
X017928Y017894D03*
X017291Y017243D03*
X017088Y017425D03*
X016171Y017460D03*
X015716Y017509D03*
X015716Y017880D03*
X015135Y017915D03*
X014673Y017915D03*
X014113Y017915D03*
X014120Y017474D03*
X014393Y017243D03*
X013231Y017908D03*
D126*
X013220Y017495D03*
X013508Y017243D03*
X015131Y017488D03*
X015118Y017894D03*
X016160Y017929D03*
X017498Y017565D03*
X018456Y017929D03*
X018911Y017929D03*
D127*
X019188Y017250D03*
X016437Y017250D03*
X015695Y017474D03*
X014631Y017943D03*
X014155Y017943D03*
D128*
X013256Y017929D03*
X015699Y017915D03*
X016196Y017950D03*
X017295Y017250D03*
X018289Y018125D03*
D129*
X018946Y017950D03*
X014396Y017250D03*
D130*
X014649Y017460D03*
X014138Y017460D03*
X013508Y017250D03*
X013241Y017474D03*
X015159Y017460D03*
X015349Y017264D03*
X015705Y017488D03*
X016181Y017453D03*
X015705Y017908D03*
X015145Y017929D03*
X017126Y017824D03*
X017484Y017579D03*
X018933Y017453D03*
X018933Y017943D03*
X020479Y018510D03*
D131*
X019181Y018132D03*
X019188Y017257D03*
X016437Y017257D03*
X016430Y018132D03*
X014393Y017257D03*
X013511Y018132D03*
D132*
X017288Y017257D03*
X020444Y018426D03*
D133*
X019430Y017936D03*
X018926Y017936D03*
X018289Y018132D03*
X017931Y017901D03*
X017491Y017572D03*
X017120Y017831D03*
X016679Y017936D03*
X016175Y017936D03*
X015713Y017502D03*
X015349Y017257D03*
X015139Y017922D03*
X014124Y017922D03*
X013235Y017481D03*
D134*
X013504Y017257D03*
D135*
X015349Y018104D03*
X017315Y018125D03*
X017428Y017614D03*
X019185Y017264D03*
X019178Y018125D03*
D136*
X013504Y017264D03*
D137*
X014393Y017271D03*
X015345Y017306D03*
X015345Y018097D03*
X016437Y017271D03*
X017200Y017782D03*
X019188Y017271D03*
D138*
X017284Y017271D03*
D139*
X017140Y017817D03*
X015349Y017271D03*
X020465Y018482D03*
D140*
X013508Y017271D03*
D141*
X015349Y018083D03*
X017281Y017278D03*
X018289Y018069D03*
X019185Y017278D03*
D142*
X017396Y017635D03*
X017221Y017768D03*
X016437Y017278D03*
D143*
X016213Y017439D03*
X015681Y017460D03*
X015345Y017278D03*
X014393Y018139D03*
X017452Y017600D03*
D144*
X014393Y017278D03*
X013504Y017285D03*
D145*
X014179Y017950D03*
X014606Y017950D03*
X015349Y017285D03*
X015670Y017453D03*
X017974Y017943D03*
X018289Y018104D03*
D146*
X017323Y017691D03*
X017294Y017712D03*
X019184Y017292D03*
D147*
X020434Y018377D03*
X015345Y017292D03*
D148*
X013504Y017292D03*
X017319Y018097D03*
D149*
X016430Y018125D03*
X015345Y017299D03*
X013511Y018125D03*
D150*
X013504Y017299D03*
X017270Y017733D03*
X017333Y017684D03*
D151*
X017270Y017306D03*
X016437Y017306D03*
X019188Y017306D03*
D152*
X014393Y017306D03*
D153*
X015349Y017313D03*
X015349Y018090D03*
X017210Y017775D03*
D154*
X017266Y017320D03*
X019178Y018069D03*
D155*
X015341Y017320D03*
D156*
X013504Y017320D03*
D157*
X014393Y017327D03*
X016430Y018062D03*
D158*
X014393Y018055D03*
X013518Y018055D03*
X014393Y017334D03*
X019188Y017334D03*
D159*
X017260Y017334D03*
D160*
X016440Y017334D03*
X016426Y018048D03*
X019178Y018048D03*
D161*
X019188Y017341D03*
X016437Y017341D03*
X014393Y017341D03*
D162*
X016426Y018041D03*
X017260Y017341D03*
X019178Y018041D03*
D163*
X015475Y018062D03*
X015475Y017341D03*
D164*
X013504Y017341D03*
D165*
X016437Y017348D03*
X019188Y017348D03*
D166*
X019178Y018034D03*
X017259Y017348D03*
X016426Y018034D03*
X013508Y017355D03*
D167*
X014393Y017425D03*
X015471Y017348D03*
X015471Y018055D03*
X018173Y018013D03*
D168*
X014396Y017348D03*
X013515Y018048D03*
D169*
X013504Y017348D03*
D170*
X016430Y018020D03*
X017284Y017418D03*
X017256Y017355D03*
X019188Y017355D03*
D171*
X016441Y017355D03*
X013515Y018034D03*
D172*
X014390Y017964D03*
X015468Y018048D03*
X015468Y017355D03*
X018176Y017999D03*
D173*
X014393Y018034D03*
X014393Y017355D03*
D174*
X013515Y018027D03*
X016440Y017362D03*
X017253Y017362D03*
X017280Y017411D03*
X019191Y017362D03*
D175*
X018180Y017992D03*
X015464Y018041D03*
X015464Y017362D03*
X014393Y017432D03*
X014393Y017957D03*
D176*
X014396Y017362D03*
X016426Y018027D03*
D177*
X019178Y018027D03*
X013508Y017362D03*
D178*
X014393Y018020D03*
X016395Y017418D03*
X016409Y017404D03*
X017256Y017369D03*
X017263Y017383D03*
X017270Y017390D03*
X017277Y017404D03*
X019146Y017418D03*
X019188Y017369D03*
D179*
X019178Y017383D03*
X019170Y017390D03*
X019156Y017404D03*
X019143Y017425D03*
X019178Y018013D03*
X016426Y018013D03*
X016426Y017383D03*
X016440Y017369D03*
D180*
X015464Y017369D03*
X018180Y017978D03*
X018180Y017985D03*
D181*
X019178Y018020D03*
X016391Y017425D03*
X014396Y017369D03*
X013508Y017369D03*
D182*
X016434Y017376D03*
X017260Y017376D03*
X019164Y017397D03*
X019185Y017376D03*
D183*
X018184Y017971D03*
X015460Y017376D03*
D184*
X014393Y017376D03*
X016430Y018006D03*
D185*
X016405Y017411D03*
X016413Y017397D03*
X019156Y017411D03*
X019178Y018006D03*
X013508Y017376D03*
D186*
X015457Y017383D03*
X015457Y018020D03*
X018187Y017950D03*
D187*
X016423Y017390D03*
X014393Y017383D03*
X014393Y018013D03*
D188*
X013515Y018013D03*
X013508Y017383D03*
X016426Y017999D03*
X019178Y017999D03*
D189*
X015454Y018013D03*
X015454Y017390D03*
D190*
X014396Y017390D03*
X013508Y017390D03*
X013479Y017964D03*
X013494Y017985D03*
X013508Y017999D03*
D191*
X016388Y017432D03*
X017270Y017397D03*
X019139Y017432D03*
D192*
X015450Y017397D03*
X015450Y018006D03*
D193*
X014393Y017397D03*
D194*
X013508Y017397D03*
X013480Y017446D03*
D195*
X015450Y017404D03*
D196*
X014393Y017404D03*
X014393Y017985D03*
X013511Y017404D03*
X013497Y017425D03*
X013483Y017439D03*
X013476Y017453D03*
X018159Y018048D03*
D197*
X015446Y017411D03*
D198*
X014393Y017411D03*
X018166Y018027D03*
D199*
X018163Y018041D03*
X019178Y017971D03*
X016426Y017971D03*
X013508Y017411D03*
D200*
X015443Y017418D03*
X015443Y017425D03*
X015443Y017985D03*
D201*
X016426Y017964D03*
X014396Y017418D03*
X019178Y017964D03*
D202*
X013500Y017418D03*
D203*
X013200Y017873D03*
X013206Y017880D03*
X014089Y017509D03*
X014698Y017509D03*
X015110Y017509D03*
X015104Y017873D03*
X014690Y017894D03*
X015726Y017859D03*
X016700Y017915D03*
X017498Y017425D03*
X017918Y017873D03*
X018289Y018139D03*
X018464Y017915D03*
X018898Y017915D03*
X019450Y017915D03*
X018905Y017474D03*
D204*
X015440Y017432D03*
D205*
X014393Y017992D03*
X013490Y017432D03*
D206*
X013179Y017558D03*
X013171Y017565D03*
X013171Y017824D03*
X013179Y017838D03*
X014054Y017810D03*
X014060Y017824D03*
X014054Y017579D03*
X014060Y017565D03*
X014060Y017558D03*
X014725Y017558D03*
X014725Y017565D03*
X014733Y017579D03*
X014739Y017593D03*
X014739Y017600D03*
X014739Y017789D03*
X014725Y017824D03*
X015069Y017789D03*
X015069Y017775D03*
X015075Y017803D03*
X015075Y017810D03*
X015069Y017614D03*
X015740Y017593D03*
X015740Y017803D03*
X015740Y017810D03*
X016119Y017873D03*
X016728Y017873D03*
X016734Y017859D03*
X017084Y017859D03*
X016609Y017439D03*
X017904Y017810D03*
X017904Y017824D03*
X018491Y017845D03*
X018491Y017859D03*
X018499Y017810D03*
X018499Y017803D03*
X018869Y017873D03*
X018869Y017880D03*
X019485Y017859D03*
X019485Y017845D03*
X019359Y017439D03*
X020346Y018349D03*
D207*
X018964Y017439D03*
D208*
X017312Y018160D03*
X017060Y017439D03*
D209*
X015436Y017439D03*
X015436Y017964D03*
D210*
X015460Y018034D03*
X014396Y017439D03*
X018184Y017964D03*
D211*
X019374Y017446D03*
X016623Y017446D03*
D212*
X018946Y017446D03*
D213*
X018852Y017551D03*
X018845Y017572D03*
X018838Y017586D03*
X017536Y017516D03*
X017536Y017502D03*
X017522Y017446D03*
X016101Y017551D03*
X016087Y017586D03*
X015751Y017677D03*
X015751Y017691D03*
X015751Y017712D03*
X020336Y018237D03*
X020336Y018251D03*
X020336Y018272D03*
X020336Y018286D03*
D214*
X017050Y017446D03*
D215*
X016196Y017446D03*
X015699Y017481D03*
X015160Y017936D03*
X015349Y018132D03*
X017946Y017922D03*
D216*
X018289Y018111D03*
X017316Y018132D03*
X015195Y017446D03*
X014614Y017446D03*
X014173Y017446D03*
X020451Y018447D03*
D217*
X017529Y017453D03*
X017074Y017880D03*
X016094Y017579D03*
X013154Y017649D03*
X013154Y017663D03*
X013154Y017670D03*
X013154Y017733D03*
X013154Y017740D03*
D218*
X013508Y018139D03*
X014151Y017453D03*
X014635Y017453D03*
X015174Y017453D03*
X015166Y017943D03*
X017315Y018139D03*
X017953Y017929D03*
X020465Y018489D03*
D219*
X019395Y017460D03*
X017505Y017950D03*
X016644Y017460D03*
X013739Y017908D03*
D220*
X013508Y018160D03*
X016426Y018160D03*
X017070Y017929D03*
X017070Y017915D03*
X017070Y017908D03*
X017070Y017894D03*
X017533Y017474D03*
X017533Y017460D03*
X018841Y017579D03*
X019178Y018160D03*
D221*
X020459Y018468D03*
X020459Y018475D03*
X015349Y018125D03*
X013270Y017460D03*
D222*
X016644Y017467D03*
X019395Y017467D03*
D223*
X017533Y017467D03*
X017533Y017481D03*
X017070Y017887D03*
X017070Y017901D03*
X017070Y017922D03*
D224*
X017032Y017467D03*
X018285Y018167D03*
X013742Y017502D03*
D225*
X015688Y017467D03*
D226*
X015149Y017467D03*
X014659Y017467D03*
X014127Y017467D03*
X018446Y017936D03*
X020483Y018517D03*
D227*
X019401Y017474D03*
X016651Y017474D03*
D228*
X017029Y017474D03*
D229*
X017508Y017558D03*
X017921Y017880D03*
X016689Y017929D03*
X016150Y017915D03*
X016150Y017474D03*
X015723Y017523D03*
X015723Y017530D03*
X015121Y017495D03*
X014687Y017495D03*
X014680Y017488D03*
X014680Y017908D03*
X014393Y018153D03*
X014106Y017908D03*
X014099Y017894D03*
X014099Y017495D03*
X014106Y017488D03*
X013210Y017509D03*
X013217Y017894D03*
X015107Y017880D03*
X019440Y017929D03*
X020371Y018370D03*
D230*
X020535Y018559D03*
X018289Y018153D03*
X013731Y017474D03*
D231*
X014095Y017502D03*
X014103Y017901D03*
X014684Y017901D03*
X014698Y017887D03*
X015110Y017887D03*
X015349Y018146D03*
X015118Y017502D03*
X015726Y017537D03*
X016146Y017481D03*
X018898Y017481D03*
X013200Y017516D03*
D232*
X017025Y017481D03*
D233*
X013735Y017481D03*
D234*
X016654Y017488D03*
X017018Y017495D03*
X019405Y017488D03*
D235*
X017540Y017488D03*
D236*
X017021Y017488D03*
D237*
X013739Y017488D03*
X013731Y017915D03*
D238*
X013749Y017544D03*
X016654Y017495D03*
X017529Y017915D03*
X019405Y017495D03*
D239*
X019405Y017502D03*
X013749Y017551D03*
D240*
X013753Y017866D03*
X017014Y017502D03*
D241*
X016658Y017502D03*
D242*
X016710Y017901D03*
X015730Y017852D03*
X015100Y017866D03*
X014708Y017866D03*
X014694Y017502D03*
X015107Y017516D03*
X014085Y017516D03*
X014092Y017887D03*
X013196Y017866D03*
X017515Y017551D03*
X017914Y017866D03*
X018474Y017901D03*
D243*
X017536Y017908D03*
X016661Y017509D03*
X019412Y017509D03*
D244*
X018873Y017509D03*
X018880Y017894D03*
X019475Y017880D03*
X019475Y017873D03*
X016724Y017880D03*
X016129Y017894D03*
X015079Y017824D03*
X015093Y017544D03*
X014715Y017544D03*
X014064Y017838D03*
X014064Y017845D03*
D245*
X017015Y017509D03*
D246*
X016122Y017509D03*
X015737Y017579D03*
X015737Y017824D03*
X016122Y017880D03*
X015086Y017838D03*
X015086Y017565D03*
X015086Y017558D03*
X014722Y017838D03*
X014722Y017845D03*
X013182Y017845D03*
X013182Y017544D03*
X017907Y017838D03*
X018481Y017880D03*
X020511Y018545D03*
D247*
X013742Y017509D03*
D248*
X016661Y017516D03*
X019412Y017516D03*
D249*
X017008Y017516D03*
X013753Y017852D03*
D250*
X013756Y017838D03*
X016661Y017523D03*
X019412Y017523D03*
D251*
X020640Y018370D03*
X017540Y017894D03*
X017008Y017523D03*
D252*
X013749Y017523D03*
D253*
X017008Y017530D03*
D254*
X017522Y017929D03*
X013749Y017530D03*
D255*
X013749Y017537D03*
X017529Y017922D03*
D256*
X017907Y017831D03*
X018481Y017887D03*
X016717Y017887D03*
X015737Y017817D03*
X015737Y017572D03*
X015086Y017831D03*
X014722Y017551D03*
X014071Y017852D03*
X013182Y017551D03*
D257*
X013749Y017558D03*
D258*
X013753Y017565D03*
D259*
X013154Y017656D03*
X013154Y017726D03*
X013154Y017747D03*
X016094Y017572D03*
X017074Y017936D03*
D260*
X013749Y017572D03*
D261*
X013749Y017579D03*
D262*
X016420Y017607D03*
X016420Y017621D03*
X016420Y017642D03*
X016420Y017747D03*
X016420Y017761D03*
X016420Y017782D03*
X019171Y017782D03*
X019171Y017761D03*
X019171Y017621D03*
X019171Y017607D03*
D263*
X019171Y017614D03*
X019171Y017628D03*
X019171Y017635D03*
X019171Y017768D03*
X019171Y017775D03*
X019171Y017789D03*
X016420Y017789D03*
X016420Y017775D03*
X016420Y017768D03*
X016420Y017754D03*
X016420Y017649D03*
X016420Y017635D03*
X016420Y017628D03*
X016420Y017614D03*
D264*
X017414Y017621D03*
D265*
X016416Y017656D03*
X016416Y017677D03*
X016416Y017691D03*
X016416Y017712D03*
X016416Y017726D03*
X019167Y017726D03*
X019167Y017712D03*
X019167Y017691D03*
X019167Y017677D03*
X019167Y017656D03*
X019167Y017642D03*
X019167Y017747D03*
D266*
X019181Y018111D03*
X017382Y017642D03*
X014393Y018111D03*
X013511Y018111D03*
D267*
X016416Y017740D03*
X016416Y017733D03*
X016416Y017719D03*
X016416Y017705D03*
X016416Y017698D03*
X016416Y017684D03*
X016416Y017670D03*
X016416Y017663D03*
X019167Y017663D03*
X019167Y017670D03*
X019167Y017684D03*
X019167Y017698D03*
X019167Y017705D03*
X019167Y017719D03*
X019167Y017733D03*
X019167Y017740D03*
X019167Y017754D03*
X019167Y017649D03*
D268*
X017351Y017670D03*
X017260Y017740D03*
D269*
X017253Y017747D03*
D270*
X017176Y017796D03*
X018289Y018097D03*
X020438Y018391D03*
X015349Y018111D03*
D271*
X013756Y017831D03*
D272*
X017109Y017838D03*
D273*
X013756Y017845D03*
D274*
X013756Y017859D03*
D275*
X013210Y017887D03*
X015723Y017866D03*
X016157Y017922D03*
X016696Y017922D03*
X018460Y017922D03*
X018908Y017922D03*
X019447Y017922D03*
D276*
X015720Y017873D03*
X015125Y017908D03*
D277*
X013753Y017873D03*
D278*
X013753Y017880D03*
D279*
X017543Y017887D03*
D280*
X013749Y017887D03*
D281*
X013742Y017894D03*
D282*
X017540Y017901D03*
D283*
X017315Y018146D03*
X016426Y018146D03*
X015705Y017901D03*
X013508Y018146D03*
X013249Y017922D03*
X019178Y018146D03*
D284*
X013742Y017901D03*
D285*
X016661Y017950D03*
X017942Y017915D03*
X018432Y017943D03*
X019412Y017950D03*
X020476Y018503D03*
D286*
X013724Y017922D03*
D287*
X013721Y017929D03*
D288*
X015681Y017936D03*
X017963Y017936D03*
X020455Y018461D03*
D289*
X014645Y017936D03*
X014393Y018146D03*
D290*
X014141Y017936D03*
D291*
X013276Y017936D03*
D292*
X017508Y017943D03*
D293*
X015674Y017943D03*
X015345Y018118D03*
X020448Y018433D03*
X020448Y018440D03*
D294*
X013490Y017978D03*
X013469Y017950D03*
X013469Y017943D03*
D295*
X019174Y017957D03*
D296*
X018187Y017957D03*
X015457Y018027D03*
D297*
X017316Y018167D03*
X017491Y017957D03*
X019178Y018167D03*
X013508Y018167D03*
D298*
X014393Y017971D03*
X016423Y017957D03*
X018173Y018006D03*
D299*
X015433Y017957D03*
D300*
X016426Y017992D03*
X019178Y017992D03*
X013500Y017992D03*
X013486Y017971D03*
X013473Y017957D03*
D301*
X017476Y017964D03*
D302*
X017277Y017971D03*
X019181Y018062D03*
D303*
X015436Y017971D03*
D304*
X018156Y018055D03*
X019178Y017985D03*
X019178Y017978D03*
D305*
X016426Y017978D03*
X016426Y017985D03*
D306*
X015440Y017978D03*
D307*
X015478Y018069D03*
X014393Y017978D03*
X018166Y018034D03*
D308*
X015443Y017992D03*
D309*
X015446Y017999D03*
D310*
X014393Y017999D03*
D311*
X014393Y018006D03*
X013511Y018006D03*
D312*
X018170Y018020D03*
D313*
X013515Y018020D03*
D314*
X014393Y018027D03*
D315*
X014393Y018041D03*
D316*
X013514Y018041D03*
D317*
X016426Y018083D03*
X019178Y018083D03*
X020346Y018083D03*
X020346Y018090D03*
X020346Y018104D03*
X020346Y018118D03*
X020346Y018125D03*
X020346Y018139D03*
X020346Y018153D03*
X020346Y018160D03*
X020346Y018174D03*
X020346Y018188D03*
X020346Y018195D03*
X020346Y018209D03*
X020346Y018069D03*
X020346Y018055D03*
X020346Y018048D03*
D318*
X014393Y018048D03*
D319*
X018152Y018062D03*
D320*
X019178Y018076D03*
X016426Y018076D03*
D321*
X018285Y018076D03*
D322*
X017330Y018076D03*
D323*
X018289Y018090D03*
D324*
X017323Y018104D03*
D325*
X017323Y018111D03*
D326*
X016426Y018111D03*
D327*
X016426Y018118D03*
X019178Y018118D03*
X013515Y018118D03*
D328*
X017319Y018118D03*
D329*
X014396Y018125D03*
D330*
X015349Y018160D03*
D331*
X014393Y018167D03*
X016423Y018167D03*
D332*
X015349Y018167D03*
D333*
X020438Y018384D03*
X020438Y018398D03*
D334*
X020441Y018405D03*
X020441Y018419D03*
D335*
X020529Y018566D03*
D336*
X016928Y018823D02*
X016871Y018766D01*
X016757Y018766D01*
X016701Y018823D01*
X016701Y018937D02*
X016814Y018993D01*
X016871Y018993D01*
X016928Y018937D01*
X016928Y018823D01*
X016701Y018937D02*
X016701Y019107D01*
X016928Y019107D01*
X016446Y019107D02*
X016446Y018766D01*
X016559Y018766D02*
X016332Y018766D01*
X016332Y018993D02*
X016446Y019107D01*
X016191Y019107D02*
X015964Y018766D01*
X015823Y018823D02*
X015766Y018766D01*
X015652Y018766D01*
X015596Y018823D01*
X015454Y018766D02*
X015227Y018766D01*
X015454Y018993D01*
X015454Y019050D01*
X015398Y019107D01*
X015284Y019107D01*
X015227Y019050D01*
X015086Y019107D02*
X014859Y018766D01*
X014718Y018766D02*
X014491Y018766D01*
X014718Y018993D01*
X014718Y019050D01*
X014661Y019107D01*
X014547Y019107D01*
X014491Y019050D01*
X013981Y019050D02*
X013924Y019107D01*
X013811Y019107D01*
X013754Y019050D01*
X013754Y018993D01*
X013811Y018937D01*
X013924Y018937D01*
X013981Y018880D01*
X013981Y018823D01*
X013924Y018766D01*
X013811Y018766D01*
X013754Y018823D01*
X013627Y018823D02*
X013627Y018766D01*
X013570Y018766D01*
X013570Y018823D01*
X013627Y018823D01*
X013429Y018766D02*
X013315Y018880D01*
X013372Y018880D02*
X013202Y018880D01*
X013202Y018766D02*
X013202Y019107D01*
X013372Y019107D01*
X013429Y019050D01*
X013429Y018937D01*
X013372Y018880D01*
X015596Y019050D02*
X015652Y019107D01*
X015766Y019107D01*
X015823Y019050D01*
X015823Y018993D01*
X015766Y018937D01*
X015823Y018880D01*
X015823Y018823D01*
X015766Y018937D02*
X015709Y018937D01*
X004336Y016876D02*
X003332Y016876D01*
X003076Y016360D02*
X003076Y016290D01*
X003076Y015773D02*
X004336Y015773D01*
X004336Y016289D02*
X004336Y016359D01*
D337*
X004381Y017129D02*
X004383Y017150D01*
X004389Y017171D01*
X004398Y017191D01*
X004411Y017208D01*
X004426Y017223D01*
X004444Y017235D01*
X004464Y017243D01*
X004485Y017248D01*
X004506Y017249D01*
X004528Y017246D01*
X004548Y017239D01*
X004567Y017229D01*
X004584Y017216D01*
X004598Y017200D01*
X004609Y017181D01*
X004617Y017161D01*
X004621Y017140D01*
X004621Y017118D01*
X004617Y017097D01*
X004609Y017077D01*
X004598Y017058D01*
X004584Y017042D01*
X004567Y017029D01*
X004548Y017019D01*
X004528Y017012D01*
X004506Y017009D01*
X004485Y017010D01*
X004464Y017015D01*
X004444Y017023D01*
X004426Y017035D01*
X004411Y017050D01*
X004398Y017067D01*
X004389Y017087D01*
X004383Y017108D01*
X004381Y017129D01*
X002791Y015519D02*
X002793Y015540D01*
X002799Y015561D01*
X002808Y015581D01*
X002821Y015598D01*
X002836Y015613D01*
X002854Y015625D01*
X002874Y015633D01*
X002895Y015638D01*
X002916Y015639D01*
X002938Y015636D01*
X002958Y015629D01*
X002977Y015619D01*
X002994Y015606D01*
X003008Y015590D01*
X003019Y015571D01*
X003027Y015551D01*
X003031Y015530D01*
X003031Y015508D01*
X003027Y015487D01*
X003019Y015467D01*
X003008Y015448D01*
X002994Y015432D01*
X002977Y015419D01*
X002958Y015409D01*
X002938Y015402D01*
X002916Y015399D01*
X002895Y015400D01*
X002874Y015405D01*
X002854Y015413D01*
X002836Y015425D01*
X002821Y015440D01*
X002808Y015457D01*
X002799Y015477D01*
X002793Y015498D01*
X002791Y015519D01*
X009351Y017273D02*
X009353Y017294D01*
X009359Y017314D01*
X009368Y017334D01*
X009380Y017351D01*
X009395Y017365D01*
X009413Y017377D01*
X009433Y017385D01*
X009453Y017390D01*
X009474Y017391D01*
X009495Y017388D01*
X009515Y017382D01*
X009534Y017371D01*
X009551Y017358D01*
X009564Y017342D01*
X009575Y017324D01*
X009583Y017304D01*
X009587Y017284D01*
X009587Y017262D01*
X009583Y017242D01*
X009575Y017222D01*
X009564Y017204D01*
X009551Y017188D01*
X009534Y017175D01*
X009515Y017164D01*
X009495Y017158D01*
X009474Y017155D01*
X009453Y017156D01*
X009433Y017161D01*
X009413Y017169D01*
X009395Y017181D01*
X009380Y017195D01*
X009368Y017212D01*
X009359Y017232D01*
X009353Y017252D01*
X009351Y017273D01*
X007791Y019636D02*
X007793Y019685D01*
X007799Y019733D01*
X007809Y019781D01*
X007823Y019828D01*
X007840Y019874D01*
X007861Y019918D01*
X007886Y019960D01*
X007914Y020000D01*
X007946Y020038D01*
X007980Y020073D01*
X008017Y020105D01*
X008056Y020134D01*
X008098Y020160D01*
X008142Y020182D01*
X008187Y020200D01*
X008234Y020215D01*
X008281Y020226D01*
X008330Y020233D01*
X008379Y020236D01*
X008428Y020235D01*
X008476Y020230D01*
X008525Y020221D01*
X008572Y020208D01*
X008618Y020191D01*
X008662Y020171D01*
X008705Y020147D01*
X008746Y020120D01*
X008784Y020089D01*
X008820Y020056D01*
X008852Y020020D01*
X008882Y019981D01*
X008909Y019940D01*
X008932Y019896D01*
X008951Y019851D01*
X008967Y019805D01*
X008979Y019758D01*
X008987Y019709D01*
X008991Y019660D01*
X008991Y019612D01*
X008987Y019563D01*
X008979Y019514D01*
X008967Y019467D01*
X008951Y019421D01*
X008932Y019376D01*
X008909Y019332D01*
X008882Y019291D01*
X008852Y019252D01*
X008820Y019216D01*
X008784Y019183D01*
X008746Y019152D01*
X008705Y019125D01*
X008662Y019101D01*
X008618Y019081D01*
X008572Y019064D01*
X008525Y019051D01*
X008476Y019042D01*
X008428Y019037D01*
X008379Y019036D01*
X008330Y019039D01*
X008281Y019046D01*
X008234Y019057D01*
X008187Y019072D01*
X008142Y019090D01*
X008098Y019112D01*
X008056Y019138D01*
X008017Y019167D01*
X007980Y019199D01*
X007946Y019234D01*
X007914Y019272D01*
X007886Y019312D01*
X007861Y019354D01*
X007840Y019398D01*
X007823Y019444D01*
X007809Y019491D01*
X007799Y019539D01*
X007793Y019587D01*
X007791Y019636D01*
X009351Y012707D02*
X009353Y012728D01*
X009359Y012748D01*
X009368Y012768D01*
X009380Y012785D01*
X009395Y012799D01*
X009413Y012811D01*
X009433Y012819D01*
X009453Y012824D01*
X009474Y012825D01*
X009495Y012822D01*
X009515Y012816D01*
X009534Y012805D01*
X009551Y012792D01*
X009564Y012776D01*
X009575Y012758D01*
X009583Y012738D01*
X009587Y012718D01*
X009587Y012696D01*
X009583Y012676D01*
X009575Y012656D01*
X009564Y012638D01*
X009551Y012622D01*
X009534Y012609D01*
X009515Y012598D01*
X009495Y012592D01*
X009474Y012589D01*
X009453Y012590D01*
X009433Y012595D01*
X009413Y012603D01*
X009395Y012615D01*
X009380Y012629D01*
X009368Y012646D01*
X009359Y012666D01*
X009353Y012686D01*
X009351Y012707D01*
X007791Y010344D02*
X007793Y010393D01*
X007799Y010441D01*
X007809Y010489D01*
X007823Y010536D01*
X007840Y010582D01*
X007861Y010626D01*
X007886Y010668D01*
X007914Y010708D01*
X007946Y010746D01*
X007980Y010781D01*
X008017Y010813D01*
X008056Y010842D01*
X008098Y010868D01*
X008142Y010890D01*
X008187Y010908D01*
X008234Y010923D01*
X008281Y010934D01*
X008330Y010941D01*
X008379Y010944D01*
X008428Y010943D01*
X008476Y010938D01*
X008525Y010929D01*
X008572Y010916D01*
X008618Y010899D01*
X008662Y010879D01*
X008705Y010855D01*
X008746Y010828D01*
X008784Y010797D01*
X008820Y010764D01*
X008852Y010728D01*
X008882Y010689D01*
X008909Y010648D01*
X008932Y010604D01*
X008951Y010559D01*
X008967Y010513D01*
X008979Y010466D01*
X008987Y010417D01*
X008991Y010368D01*
X008991Y010320D01*
X008987Y010271D01*
X008979Y010222D01*
X008967Y010175D01*
X008951Y010129D01*
X008932Y010084D01*
X008909Y010040D01*
X008882Y009999D01*
X008852Y009960D01*
X008820Y009924D01*
X008784Y009891D01*
X008746Y009860D01*
X008705Y009833D01*
X008662Y009809D01*
X008618Y009789D01*
X008572Y009772D01*
X008525Y009759D01*
X008476Y009750D01*
X008428Y009745D01*
X008379Y009744D01*
X008330Y009747D01*
X008281Y009754D01*
X008234Y009765D01*
X008187Y009780D01*
X008142Y009798D01*
X008098Y009820D01*
X008056Y009846D01*
X008017Y009875D01*
X007980Y009907D01*
X007946Y009942D01*
X007914Y009980D01*
X007886Y010020D01*
X007861Y010062D01*
X007840Y010106D01*
X007823Y010152D01*
X007809Y010199D01*
X007799Y010247D01*
X007793Y010295D01*
X007791Y010344D01*
X005122Y002730D02*
X005124Y002761D01*
X005130Y002792D01*
X005139Y002822D01*
X005152Y002851D01*
X005169Y002878D01*
X005189Y002902D01*
X005211Y002924D01*
X005237Y002943D01*
X005264Y002959D01*
X005293Y002971D01*
X005323Y002980D01*
X005354Y002985D01*
X005386Y002986D01*
X005417Y002983D01*
X005448Y002976D01*
X005478Y002966D01*
X005506Y002952D01*
X005532Y002934D01*
X005556Y002914D01*
X005577Y002890D01*
X005596Y002865D01*
X005611Y002837D01*
X005622Y002808D01*
X005630Y002777D01*
X005634Y002746D01*
X005634Y002714D01*
X005630Y002683D01*
X005622Y002652D01*
X005611Y002623D01*
X005596Y002595D01*
X005577Y002570D01*
X005556Y002546D01*
X005532Y002526D01*
X005506Y002508D01*
X005478Y002494D01*
X005448Y002484D01*
X005417Y002477D01*
X005386Y002474D01*
X005354Y002475D01*
X005323Y002480D01*
X005293Y002489D01*
X005264Y002501D01*
X005237Y002517D01*
X005211Y002536D01*
X005189Y002558D01*
X005169Y002582D01*
X005152Y002609D01*
X005139Y002638D01*
X005130Y002668D01*
X005124Y002699D01*
X005122Y002730D01*
X002366Y002730D02*
X002368Y002761D01*
X002374Y002792D01*
X002383Y002822D01*
X002396Y002851D01*
X002413Y002878D01*
X002433Y002902D01*
X002455Y002924D01*
X002481Y002943D01*
X002508Y002959D01*
X002537Y002971D01*
X002567Y002980D01*
X002598Y002985D01*
X002630Y002986D01*
X002661Y002983D01*
X002692Y002976D01*
X002722Y002966D01*
X002750Y002952D01*
X002776Y002934D01*
X002800Y002914D01*
X002821Y002890D01*
X002840Y002865D01*
X002855Y002837D01*
X002866Y002808D01*
X002874Y002777D01*
X002878Y002746D01*
X002878Y002714D01*
X002874Y002683D01*
X002866Y002652D01*
X002855Y002623D01*
X002840Y002595D01*
X002821Y002570D01*
X002800Y002546D01*
X002776Y002526D01*
X002750Y002508D01*
X002722Y002494D01*
X002692Y002484D01*
X002661Y002477D01*
X002630Y002474D01*
X002598Y002475D01*
X002567Y002480D01*
X002537Y002489D01*
X002508Y002501D01*
X002481Y002517D01*
X002455Y002536D01*
X002433Y002558D01*
X002413Y002582D01*
X002396Y002609D01*
X002383Y002638D01*
X002374Y002668D01*
X002368Y002699D01*
X002366Y002730D01*
X030994Y003095D02*
X030996Y003145D01*
X031002Y003195D01*
X031012Y003244D01*
X031025Y003293D01*
X031043Y003340D01*
X031064Y003386D01*
X031088Y003429D01*
X031116Y003471D01*
X031147Y003511D01*
X031181Y003548D01*
X031218Y003582D01*
X031258Y003613D01*
X031300Y003641D01*
X031343Y003665D01*
X031389Y003686D01*
X031436Y003704D01*
X031485Y003717D01*
X031534Y003727D01*
X031584Y003733D01*
X031634Y003735D01*
X031684Y003733D01*
X031734Y003727D01*
X031783Y003717D01*
X031832Y003704D01*
X031879Y003686D01*
X031925Y003665D01*
X031968Y003641D01*
X032010Y003613D01*
X032050Y003582D01*
X032087Y003548D01*
X032121Y003511D01*
X032152Y003471D01*
X032180Y003429D01*
X032204Y003386D01*
X032225Y003340D01*
X032243Y003293D01*
X032256Y003244D01*
X032266Y003195D01*
X032272Y003145D01*
X032274Y003095D01*
X032272Y003045D01*
X032266Y002995D01*
X032256Y002946D01*
X032243Y002897D01*
X032225Y002850D01*
X032204Y002804D01*
X032180Y002761D01*
X032152Y002719D01*
X032121Y002679D01*
X032087Y002642D01*
X032050Y002608D01*
X032010Y002577D01*
X031968Y002549D01*
X031925Y002525D01*
X031879Y002504D01*
X031832Y002486D01*
X031783Y002473D01*
X031734Y002463D01*
X031684Y002457D01*
X031634Y002455D01*
X031584Y002457D01*
X031534Y002463D01*
X031485Y002473D01*
X031436Y002486D01*
X031389Y002504D01*
X031343Y002525D01*
X031300Y002549D01*
X031258Y002577D01*
X031218Y002608D01*
X031181Y002642D01*
X031147Y002679D01*
X031116Y002719D01*
X031088Y002761D01*
X031064Y002804D01*
X031043Y002850D01*
X031025Y002897D01*
X031012Y002946D01*
X031002Y002995D01*
X030996Y003045D01*
X030994Y003095D01*
X030994Y007595D02*
X030996Y007645D01*
X031002Y007695D01*
X031012Y007744D01*
X031025Y007793D01*
X031043Y007840D01*
X031064Y007886D01*
X031088Y007929D01*
X031116Y007971D01*
X031147Y008011D01*
X031181Y008048D01*
X031218Y008082D01*
X031258Y008113D01*
X031300Y008141D01*
X031343Y008165D01*
X031389Y008186D01*
X031436Y008204D01*
X031485Y008217D01*
X031534Y008227D01*
X031584Y008233D01*
X031634Y008235D01*
X031684Y008233D01*
X031734Y008227D01*
X031783Y008217D01*
X031832Y008204D01*
X031879Y008186D01*
X031925Y008165D01*
X031968Y008141D01*
X032010Y008113D01*
X032050Y008082D01*
X032087Y008048D01*
X032121Y008011D01*
X032152Y007971D01*
X032180Y007929D01*
X032204Y007886D01*
X032225Y007840D01*
X032243Y007793D01*
X032256Y007744D01*
X032266Y007695D01*
X032272Y007645D01*
X032274Y007595D01*
X032272Y007545D01*
X032266Y007495D01*
X032256Y007446D01*
X032243Y007397D01*
X032225Y007350D01*
X032204Y007304D01*
X032180Y007261D01*
X032152Y007219D01*
X032121Y007179D01*
X032087Y007142D01*
X032050Y007108D01*
X032010Y007077D01*
X031968Y007049D01*
X031925Y007025D01*
X031879Y007004D01*
X031832Y006986D01*
X031783Y006973D01*
X031734Y006963D01*
X031684Y006957D01*
X031634Y006955D01*
X031584Y006957D01*
X031534Y006963D01*
X031485Y006973D01*
X031436Y006986D01*
X031389Y007004D01*
X031343Y007025D01*
X031300Y007049D01*
X031258Y007077D01*
X031218Y007108D01*
X031181Y007142D01*
X031147Y007179D01*
X031116Y007219D01*
X031088Y007261D01*
X031064Y007304D01*
X031043Y007350D01*
X031025Y007397D01*
X031012Y007446D01*
X031002Y007495D01*
X030996Y007545D01*
X030994Y007595D01*
X030994Y009292D02*
X030996Y009342D01*
X031002Y009392D01*
X031012Y009441D01*
X031025Y009490D01*
X031043Y009537D01*
X031064Y009583D01*
X031088Y009626D01*
X031116Y009668D01*
X031147Y009708D01*
X031181Y009745D01*
X031218Y009779D01*
X031258Y009810D01*
X031300Y009838D01*
X031343Y009862D01*
X031389Y009883D01*
X031436Y009901D01*
X031485Y009914D01*
X031534Y009924D01*
X031584Y009930D01*
X031634Y009932D01*
X031684Y009930D01*
X031734Y009924D01*
X031783Y009914D01*
X031832Y009901D01*
X031879Y009883D01*
X031925Y009862D01*
X031968Y009838D01*
X032010Y009810D01*
X032050Y009779D01*
X032087Y009745D01*
X032121Y009708D01*
X032152Y009668D01*
X032180Y009626D01*
X032204Y009583D01*
X032225Y009537D01*
X032243Y009490D01*
X032256Y009441D01*
X032266Y009392D01*
X032272Y009342D01*
X032274Y009292D01*
X032272Y009242D01*
X032266Y009192D01*
X032256Y009143D01*
X032243Y009094D01*
X032225Y009047D01*
X032204Y009001D01*
X032180Y008958D01*
X032152Y008916D01*
X032121Y008876D01*
X032087Y008839D01*
X032050Y008805D01*
X032010Y008774D01*
X031968Y008746D01*
X031925Y008722D01*
X031879Y008701D01*
X031832Y008683D01*
X031783Y008670D01*
X031734Y008660D01*
X031684Y008654D01*
X031634Y008652D01*
X031584Y008654D01*
X031534Y008660D01*
X031485Y008670D01*
X031436Y008683D01*
X031389Y008701D01*
X031343Y008722D01*
X031300Y008746D01*
X031258Y008774D01*
X031218Y008805D01*
X031181Y008839D01*
X031147Y008876D01*
X031116Y008916D01*
X031088Y008958D01*
X031064Y009001D01*
X031043Y009047D01*
X031025Y009094D01*
X031012Y009143D01*
X031002Y009192D01*
X030996Y009242D01*
X030994Y009292D01*
X030994Y013792D02*
X030996Y013842D01*
X031002Y013892D01*
X031012Y013941D01*
X031025Y013990D01*
X031043Y014037D01*
X031064Y014083D01*
X031088Y014126D01*
X031116Y014168D01*
X031147Y014208D01*
X031181Y014245D01*
X031218Y014279D01*
X031258Y014310D01*
X031300Y014338D01*
X031343Y014362D01*
X031389Y014383D01*
X031436Y014401D01*
X031485Y014414D01*
X031534Y014424D01*
X031584Y014430D01*
X031634Y014432D01*
X031684Y014430D01*
X031734Y014424D01*
X031783Y014414D01*
X031832Y014401D01*
X031879Y014383D01*
X031925Y014362D01*
X031968Y014338D01*
X032010Y014310D01*
X032050Y014279D01*
X032087Y014245D01*
X032121Y014208D01*
X032152Y014168D01*
X032180Y014126D01*
X032204Y014083D01*
X032225Y014037D01*
X032243Y013990D01*
X032256Y013941D01*
X032266Y013892D01*
X032272Y013842D01*
X032274Y013792D01*
X032272Y013742D01*
X032266Y013692D01*
X032256Y013643D01*
X032243Y013594D01*
X032225Y013547D01*
X032204Y013501D01*
X032180Y013458D01*
X032152Y013416D01*
X032121Y013376D01*
X032087Y013339D01*
X032050Y013305D01*
X032010Y013274D01*
X031968Y013246D01*
X031925Y013222D01*
X031879Y013201D01*
X031832Y013183D01*
X031783Y013170D01*
X031734Y013160D01*
X031684Y013154D01*
X031634Y013152D01*
X031584Y013154D01*
X031534Y013160D01*
X031485Y013170D01*
X031436Y013183D01*
X031389Y013201D01*
X031343Y013222D01*
X031300Y013246D01*
X031258Y013274D01*
X031218Y013305D01*
X031181Y013339D01*
X031147Y013376D01*
X031116Y013416D01*
X031088Y013458D01*
X031064Y013501D01*
X031043Y013547D01*
X031025Y013594D01*
X031012Y013643D01*
X031002Y013692D01*
X030996Y013742D01*
X030994Y013792D01*
D338*
X004926Y014765D02*
X004926Y012324D01*
X002485Y012324D01*
X002485Y014765D01*
X004926Y014765D01*
X004926Y011986D02*
X002485Y011986D01*
X002485Y009545D01*
X004926Y009545D01*
X004926Y011986D01*
X004926Y009210D02*
X002485Y009210D01*
X002485Y006769D01*
X004926Y006769D01*
X004926Y009210D01*
X004926Y006431D02*
X002485Y006431D01*
X002485Y003990D01*
X004926Y003990D01*
X004926Y006431D01*
D339*
X001751Y005554D03*
X001751Y008334D03*
X001751Y011109D03*
X001751Y013889D03*
D340*
X001635Y013647D02*
X001635Y013154D01*
X001574Y013215D02*
X001697Y013215D01*
X001759Y013277D01*
X001759Y013339D01*
X001697Y013400D01*
X001574Y013400D01*
X001512Y013462D01*
X001512Y013524D01*
X001574Y013586D01*
X001697Y013586D01*
X001759Y013524D01*
X001880Y013462D02*
X002004Y013586D01*
X002004Y013215D01*
X002127Y013215D02*
X001880Y013215D01*
X001574Y013215D02*
X001512Y013277D01*
X001390Y013277D02*
X001390Y013586D01*
X001144Y013586D02*
X001144Y013277D01*
X001205Y013215D01*
X001329Y013215D01*
X001390Y013277D01*
X002249Y013400D02*
X002495Y013400D01*
X002434Y013215D02*
X002434Y013586D01*
X002249Y013400D01*
X002219Y010746D02*
X002219Y010561D01*
X002342Y010623D01*
X002404Y010623D01*
X002465Y010561D01*
X002465Y010438D01*
X002404Y010376D01*
X002280Y010376D01*
X002219Y010438D01*
X002097Y010376D02*
X001850Y010376D01*
X001974Y010376D02*
X001974Y010746D01*
X001850Y010623D01*
X001729Y010684D02*
X001667Y010746D01*
X001544Y010746D01*
X001482Y010684D01*
X001482Y010623D01*
X001544Y010561D01*
X001667Y010561D01*
X001729Y010499D01*
X001729Y010438D01*
X001667Y010376D01*
X001544Y010376D01*
X001482Y010438D01*
X001360Y010438D02*
X001299Y010376D01*
X001175Y010376D01*
X001114Y010438D01*
X001114Y010746D01*
X001360Y010746D02*
X001360Y010438D01*
X001605Y010314D02*
X001605Y010808D01*
X002219Y010746D02*
X002465Y010746D01*
X002394Y007981D02*
X002455Y007919D01*
X002455Y007857D01*
X002394Y007795D01*
X002455Y007734D01*
X002455Y007672D01*
X002394Y007610D01*
X002270Y007610D01*
X002209Y007672D01*
X002087Y007610D02*
X001840Y007610D01*
X001964Y007610D02*
X001964Y007981D01*
X001840Y007857D01*
X001719Y007919D02*
X001657Y007981D01*
X001534Y007981D01*
X001472Y007919D01*
X001472Y007857D01*
X001534Y007795D01*
X001657Y007795D01*
X001719Y007734D01*
X001719Y007672D01*
X001657Y007610D01*
X001534Y007610D01*
X001472Y007672D01*
X001350Y007672D02*
X001289Y007610D01*
X001165Y007610D01*
X001104Y007672D01*
X001104Y007981D01*
X001350Y007981D02*
X001350Y007672D01*
X001595Y007548D02*
X001595Y008042D01*
X002209Y007919D02*
X002270Y007981D01*
X002394Y007981D01*
X002394Y007795D02*
X002332Y007795D01*
X002455Y005211D02*
X002332Y005149D01*
X002209Y005026D01*
X002394Y005026D01*
X002455Y004964D01*
X002455Y004902D01*
X002394Y004841D01*
X002270Y004841D01*
X002209Y004902D01*
X002209Y005026D01*
X002087Y004841D02*
X001840Y004841D01*
X001964Y004841D02*
X001964Y005211D01*
X001840Y005088D01*
X001719Y005149D02*
X001657Y005211D01*
X001534Y005211D01*
X001472Y005149D01*
X001472Y005088D01*
X001534Y005026D01*
X001657Y005026D01*
X001719Y004964D01*
X001719Y004902D01*
X001657Y004841D01*
X001534Y004841D01*
X001472Y004902D01*
X001350Y004902D02*
X001289Y004841D01*
X001165Y004841D01*
X001104Y004902D01*
X001104Y005211D01*
X001350Y005211D02*
X001350Y004902D01*
X001595Y004779D02*
X001595Y005273D01*
X006222Y004355D02*
X006222Y004047D01*
X006283Y003985D01*
X006407Y003985D01*
X006469Y004047D01*
X006469Y004355D01*
X006590Y004294D02*
X006652Y004355D01*
X006775Y004355D01*
X006837Y004294D01*
X006958Y004294D02*
X007020Y004355D01*
X007144Y004355D01*
X007205Y004294D01*
X007205Y004232D01*
X007144Y004170D01*
X007205Y004108D01*
X007205Y004047D01*
X007144Y003985D01*
X007020Y003985D01*
X006958Y004047D01*
X006837Y004047D02*
X006837Y004108D01*
X006775Y004170D01*
X006652Y004170D01*
X006590Y004232D01*
X006590Y004294D01*
X006713Y004417D02*
X006713Y003923D01*
X006652Y003985D02*
X006775Y003985D01*
X006837Y004047D01*
X006652Y003985D02*
X006590Y004047D01*
X007082Y004170D02*
X007144Y004170D01*
X007327Y004047D02*
X007327Y003985D01*
X007327Y004047D02*
X007574Y004294D01*
X007574Y004355D01*
X007327Y004355D01*
X009240Y004556D02*
X009734Y004556D01*
X009672Y004494D02*
X009672Y004618D01*
X009610Y004680D01*
X009548Y004680D01*
X009487Y004618D01*
X009487Y004494D01*
X009425Y004433D01*
X009363Y004433D01*
X009302Y004494D01*
X009302Y004618D01*
X009363Y004680D01*
X009363Y004801D02*
X009302Y004863D01*
X009302Y004986D01*
X009363Y005048D01*
X009425Y005048D01*
X009487Y004986D01*
X009548Y005048D01*
X009610Y005048D01*
X009672Y004986D01*
X009672Y004863D01*
X009610Y004801D01*
X009487Y004925D02*
X009487Y004986D01*
X009487Y005169D02*
X009363Y005293D01*
X009302Y005416D01*
X009487Y005355D02*
X009487Y005169D01*
X009610Y005169D01*
X009672Y005231D01*
X009672Y005355D01*
X009610Y005416D01*
X009548Y005416D01*
X009487Y005355D01*
X008856Y005946D02*
X008856Y006440D01*
X008794Y006378D02*
X008918Y006378D01*
X008980Y006317D01*
X009101Y006317D02*
X009163Y006378D01*
X009286Y006378D01*
X009348Y006317D01*
X009348Y006255D01*
X009101Y006008D01*
X009348Y006008D01*
X009469Y006070D02*
X009469Y006193D01*
X009655Y006193D01*
X009716Y006132D01*
X009716Y006070D01*
X009655Y006008D01*
X009531Y006008D01*
X009469Y006070D01*
X009469Y006193D02*
X009593Y006317D01*
X009716Y006378D01*
X009605Y006938D02*
X009666Y007000D01*
X009666Y007247D01*
X009605Y007308D01*
X009481Y007308D01*
X009419Y007247D01*
X009419Y007185D01*
X009481Y007123D01*
X009666Y007123D01*
X009605Y006938D02*
X009481Y006938D01*
X009419Y007000D01*
X009298Y006938D02*
X009051Y006938D01*
X009298Y007185D01*
X009298Y007247D01*
X009236Y007308D01*
X009113Y007308D01*
X009051Y007247D01*
X008930Y007247D02*
X008868Y007308D01*
X008744Y007308D01*
X008683Y007247D01*
X008683Y007185D01*
X008744Y007123D01*
X008868Y007123D01*
X008930Y007062D01*
X008930Y007000D01*
X008868Y006938D01*
X008744Y006938D01*
X008683Y007000D01*
X008561Y007000D02*
X008561Y007308D01*
X008314Y007308D02*
X008314Y007000D01*
X008376Y006938D01*
X008500Y006938D01*
X008561Y007000D01*
X008806Y006876D02*
X008806Y007370D01*
X008794Y006378D02*
X008733Y006317D01*
X008733Y006255D01*
X008794Y006193D01*
X008918Y006193D01*
X008980Y006132D01*
X008980Y006070D01*
X008918Y006008D01*
X008794Y006008D01*
X008733Y006070D01*
X008611Y006070D02*
X008611Y006378D01*
X008364Y006378D02*
X008364Y006070D01*
X008426Y006008D01*
X008550Y006008D01*
X008611Y006070D01*
X009672Y004494D02*
X009610Y004433D01*
X009610Y004311D02*
X009302Y004311D01*
X009302Y004064D02*
X009610Y004064D01*
X009672Y004126D01*
X009672Y004250D01*
X009610Y004311D01*
X009955Y004085D02*
X009955Y003962D01*
X010016Y003900D01*
X010016Y003779D02*
X010078Y003779D01*
X010140Y003717D01*
X010202Y003779D01*
X010263Y003779D01*
X010325Y003717D01*
X010325Y003593D01*
X010263Y003532D01*
X010263Y003410D02*
X010202Y003410D01*
X010140Y003348D01*
X010140Y003225D01*
X010078Y003163D01*
X010016Y003163D01*
X009955Y003225D01*
X009955Y003348D01*
X010016Y003410D01*
X010016Y003532D02*
X009955Y003593D01*
X009955Y003717D01*
X010016Y003779D01*
X010140Y003717D02*
X010140Y003655D01*
X010263Y003410D02*
X010325Y003348D01*
X010325Y003225D01*
X010263Y003163D01*
X010263Y003042D02*
X009955Y003042D01*
X009955Y002795D02*
X010263Y002795D01*
X010325Y002857D01*
X010325Y002980D01*
X010263Y003042D01*
X010387Y003287D02*
X009893Y003287D01*
X010325Y003900D02*
X010078Y004147D01*
X010016Y004147D01*
X009955Y004085D01*
X010325Y004147D02*
X010325Y003900D01*
X011093Y003717D02*
X011587Y003717D01*
X011525Y003778D02*
X011463Y003840D01*
X011402Y003840D01*
X011340Y003778D01*
X011340Y003655D01*
X011278Y003593D01*
X011216Y003593D01*
X011155Y003655D01*
X011155Y003778D01*
X011216Y003840D01*
X011216Y003962D02*
X011155Y004023D01*
X011155Y004147D01*
X011216Y004209D01*
X011278Y004209D01*
X011340Y004147D01*
X011402Y004209D01*
X011463Y004209D01*
X011525Y004147D01*
X011525Y004023D01*
X011463Y003962D01*
X011340Y004085D02*
X011340Y004147D01*
X011278Y004330D02*
X011155Y004453D01*
X011525Y004453D01*
X011525Y004330D02*
X011525Y004577D01*
X011525Y003778D02*
X011525Y003655D01*
X011463Y003593D01*
X011463Y003472D02*
X011155Y003472D01*
X011155Y003225D02*
X011463Y003225D01*
X011525Y003287D01*
X011525Y003410D01*
X011463Y003472D01*
X014135Y003907D02*
X014197Y003845D01*
X014320Y003845D01*
X014382Y003907D01*
X014382Y004215D01*
X014503Y004154D02*
X014565Y004215D01*
X014688Y004215D01*
X014750Y004154D01*
X014872Y004092D02*
X014995Y004215D01*
X014995Y003845D01*
X014872Y003845D02*
X015119Y003845D01*
X015240Y003845D02*
X015240Y003907D01*
X015487Y004154D01*
X015487Y004215D01*
X015240Y004215D01*
X014750Y003968D02*
X014688Y004030D01*
X014565Y004030D01*
X014503Y004092D01*
X014503Y004154D01*
X014627Y004277D02*
X014627Y003783D01*
X014688Y003845D02*
X014565Y003845D01*
X014503Y003907D01*
X014688Y003845D02*
X014750Y003907D01*
X014750Y003968D01*
X014135Y003907D02*
X014135Y004215D01*
X014777Y006153D02*
X014777Y006647D01*
X014838Y006585D02*
X014900Y006524D01*
X014838Y006585D02*
X014715Y006585D01*
X014653Y006524D01*
X014653Y006462D01*
X014715Y006400D01*
X014838Y006400D01*
X014900Y006338D01*
X014900Y006277D01*
X014838Y006215D01*
X014715Y006215D01*
X014653Y006277D01*
X014532Y006277D02*
X014532Y006585D01*
X014285Y006585D02*
X014285Y006277D01*
X014347Y006215D01*
X014470Y006215D01*
X014532Y006277D01*
X015022Y006277D02*
X015022Y006215D01*
X015022Y006277D02*
X015269Y006524D01*
X015269Y006585D01*
X015022Y006585D01*
X016201Y006532D02*
X016201Y006224D01*
X016262Y006162D01*
X016386Y006162D01*
X016447Y006224D01*
X016447Y006532D01*
X016569Y006471D02*
X016631Y006532D01*
X016754Y006532D01*
X016816Y006471D01*
X016754Y006347D02*
X016631Y006347D01*
X016569Y006409D01*
X016569Y006471D01*
X016692Y006594D02*
X016692Y006100D01*
X016631Y006162D02*
X016754Y006162D01*
X016816Y006224D01*
X016816Y006285D01*
X016754Y006347D01*
X016937Y006347D02*
X017122Y006347D01*
X017184Y006285D01*
X017184Y006224D01*
X017122Y006162D01*
X016999Y006162D01*
X016937Y006224D01*
X016937Y006347D01*
X017061Y006471D01*
X017184Y006532D01*
X016631Y006162D02*
X016569Y006224D01*
X018005Y006257D02*
X018067Y006195D01*
X018190Y006195D01*
X018252Y006257D01*
X018252Y006565D01*
X018373Y006504D02*
X018435Y006565D01*
X018558Y006565D01*
X018620Y006504D01*
X018742Y006504D02*
X018803Y006565D01*
X018927Y006565D01*
X018989Y006504D01*
X018989Y006442D01*
X018742Y006195D01*
X018989Y006195D01*
X019110Y006380D02*
X019357Y006380D01*
X019295Y006195D02*
X019295Y006565D01*
X019110Y006380D01*
X018620Y006318D02*
X018558Y006380D01*
X018435Y006380D01*
X018373Y006442D01*
X018373Y006504D01*
X018497Y006627D02*
X018497Y006133D01*
X018558Y006195D02*
X018435Y006195D01*
X018373Y006257D01*
X018558Y006195D02*
X018620Y006257D01*
X018620Y006318D01*
X018005Y006257D02*
X018005Y006565D01*
X019664Y006568D02*
X019664Y006260D01*
X019726Y006198D01*
X019850Y006198D01*
X019911Y006260D01*
X019911Y006568D01*
X020033Y006507D02*
X020094Y006568D01*
X020218Y006568D01*
X020280Y006507D01*
X020401Y006507D02*
X020463Y006568D01*
X020586Y006568D01*
X020648Y006507D01*
X020648Y006445D01*
X020401Y006198D01*
X020648Y006198D01*
X020769Y006260D02*
X020831Y006198D01*
X020955Y006198D01*
X021016Y006260D01*
X021016Y006383D01*
X020955Y006445D01*
X020893Y006445D01*
X020769Y006383D01*
X020769Y006568D01*
X021016Y006568D01*
X020280Y006322D02*
X020218Y006383D01*
X020094Y006383D01*
X020033Y006445D01*
X020033Y006507D01*
X020156Y006630D02*
X020156Y006136D01*
X020094Y006198D02*
X020218Y006198D01*
X020280Y006260D01*
X020280Y006322D01*
X020094Y006198D02*
X020033Y006260D01*
X018847Y002415D02*
X018723Y002415D01*
X018662Y002354D01*
X018540Y002354D02*
X018478Y002415D01*
X018355Y002415D01*
X018293Y002354D01*
X018293Y002292D01*
X018355Y002230D01*
X018478Y002230D01*
X018540Y002168D01*
X018540Y002107D01*
X018478Y002045D01*
X018355Y002045D01*
X018293Y002107D01*
X018172Y002107D02*
X018172Y002415D01*
X017925Y002415D02*
X017925Y002107D01*
X017987Y002045D01*
X018110Y002045D01*
X018172Y002107D01*
X018417Y001983D02*
X018417Y002477D01*
X018847Y002415D02*
X018909Y002354D01*
X018909Y002292D01*
X018662Y002045D01*
X018909Y002045D01*
X007718Y008214D02*
X007718Y008337D01*
X007656Y008399D01*
X007348Y008399D01*
X007409Y008521D02*
X007348Y008582D01*
X007348Y008706D01*
X007409Y008767D01*
X007409Y008889D02*
X007348Y008951D01*
X007348Y009074D01*
X007409Y009136D01*
X007471Y009136D01*
X007718Y008889D01*
X007718Y009136D01*
X007718Y009257D02*
X007656Y009257D01*
X007409Y009504D01*
X007348Y009504D01*
X007348Y009257D01*
X007595Y008767D02*
X007533Y008706D01*
X007533Y008582D01*
X007471Y008521D01*
X007409Y008521D01*
X007286Y008644D02*
X007780Y008644D01*
X007718Y008582D02*
X007718Y008706D01*
X007656Y008767D01*
X007595Y008767D01*
X007718Y008582D02*
X007656Y008521D01*
X007718Y008214D02*
X007656Y008152D01*
X007348Y008152D01*
X009172Y010915D02*
X009295Y010915D01*
X009357Y010977D01*
X009357Y011285D01*
X009478Y011224D02*
X009540Y011285D01*
X009664Y011285D01*
X009725Y011224D01*
X009847Y011224D02*
X009908Y011285D01*
X010032Y011285D01*
X010094Y011224D01*
X010094Y011162D01*
X010032Y011100D01*
X009908Y011100D01*
X009847Y011162D01*
X009847Y011224D01*
X009908Y011100D02*
X009847Y011038D01*
X009847Y010977D01*
X009908Y010915D01*
X010032Y010915D01*
X010094Y010977D01*
X010094Y011038D01*
X010032Y011100D01*
X009725Y011038D02*
X009664Y011100D01*
X009540Y011100D01*
X009478Y011162D01*
X009478Y011224D01*
X009602Y011347D02*
X009602Y010853D01*
X009664Y010915D02*
X009725Y010977D01*
X009725Y011038D01*
X009664Y010915D02*
X009540Y010915D01*
X009478Y010977D01*
X009172Y010915D02*
X009110Y010977D01*
X009110Y011285D01*
X007700Y011984D02*
X007206Y011984D01*
X007268Y011922D02*
X007268Y012046D01*
X007329Y012107D01*
X007329Y012229D02*
X007268Y012291D01*
X007268Y012414D01*
X007329Y012476D01*
X007391Y012476D01*
X007638Y012229D01*
X007638Y012476D01*
X007576Y012597D02*
X007515Y012597D01*
X007453Y012659D01*
X007453Y012782D01*
X007515Y012844D01*
X007576Y012844D01*
X007638Y012782D01*
X007638Y012659D01*
X007576Y012597D01*
X007453Y012659D02*
X007391Y012597D01*
X007329Y012597D01*
X007268Y012659D01*
X007268Y012782D01*
X007329Y012844D01*
X007391Y012844D01*
X007453Y012782D01*
X007515Y012107D02*
X007453Y012046D01*
X007453Y011922D01*
X007391Y011861D01*
X007329Y011861D01*
X007268Y011922D01*
X007268Y011739D02*
X007576Y011739D01*
X007638Y011677D01*
X007638Y011554D01*
X007576Y011492D01*
X007268Y011492D01*
X007576Y011861D02*
X007638Y011922D01*
X007638Y012046D01*
X007576Y012107D01*
X007515Y012107D01*
X013444Y012088D02*
X013444Y011780D01*
X013506Y011718D01*
X013630Y011718D01*
X013691Y011780D01*
X013691Y012088D01*
X013813Y012027D02*
X013874Y012088D01*
X013998Y012088D01*
X014060Y012027D01*
X014181Y012027D02*
X014243Y012088D01*
X014366Y012088D01*
X014428Y012027D01*
X014428Y011965D01*
X014181Y011718D01*
X014428Y011718D01*
X014549Y011780D02*
X014796Y012027D01*
X014796Y011780D01*
X014735Y011718D01*
X014611Y011718D01*
X014549Y011780D01*
X014549Y012027D01*
X014611Y012088D01*
X014735Y012088D01*
X014796Y012027D01*
X014060Y011842D02*
X013998Y011903D01*
X013874Y011903D01*
X013813Y011965D01*
X013813Y012027D01*
X013936Y012150D02*
X013936Y011656D01*
X013874Y011718D02*
X013998Y011718D01*
X014060Y011780D01*
X014060Y011842D01*
X013874Y011718D02*
X013813Y011780D01*
X013946Y012516D02*
X013946Y013010D01*
X013884Y012948D02*
X014008Y012948D01*
X014070Y012887D01*
X014191Y012825D02*
X014315Y012948D01*
X014315Y012578D01*
X014438Y012578D02*
X014191Y012578D01*
X014070Y012640D02*
X014070Y012702D01*
X014008Y012763D01*
X013884Y012763D01*
X013823Y012825D01*
X013823Y012887D01*
X013884Y012948D01*
X013701Y012948D02*
X013701Y012640D01*
X013640Y012578D01*
X013516Y012578D01*
X013454Y012640D01*
X013454Y012948D01*
X013823Y012640D02*
X013884Y012578D01*
X014008Y012578D01*
X014070Y012640D01*
X014559Y012640D02*
X014621Y012578D01*
X014745Y012578D01*
X014806Y012640D01*
X014806Y012887D01*
X014745Y012948D01*
X014621Y012948D01*
X014559Y012887D01*
X014559Y012825D01*
X014621Y012763D01*
X014806Y012763D01*
X014695Y013458D02*
X014571Y013458D01*
X014509Y013520D01*
X014509Y013582D01*
X014571Y013643D01*
X014695Y013643D01*
X014756Y013582D01*
X014756Y013520D01*
X014695Y013458D01*
X014695Y013643D02*
X014756Y013705D01*
X014756Y013767D01*
X014695Y013828D01*
X014571Y013828D01*
X014509Y013767D01*
X014509Y013705D01*
X014571Y013643D01*
X014388Y013458D02*
X014141Y013458D01*
X014265Y013458D02*
X014265Y013828D01*
X014141Y013705D01*
X014020Y013767D02*
X013958Y013828D01*
X013834Y013828D01*
X013773Y013767D01*
X013773Y013705D01*
X013834Y013643D01*
X013958Y013643D01*
X014020Y013582D01*
X014020Y013520D01*
X013958Y013458D01*
X013834Y013458D01*
X013773Y013520D01*
X013651Y013520D02*
X013651Y013828D01*
X013404Y013828D02*
X013404Y013520D01*
X013466Y013458D01*
X013590Y013458D01*
X013651Y013520D01*
X013896Y013396D02*
X013896Y013890D01*
X003949Y017189D02*
X003703Y017189D01*
X003826Y017189D02*
X003826Y017560D01*
X003703Y017436D01*
X003581Y017498D02*
X003519Y017560D01*
X003396Y017560D01*
X003334Y017498D01*
X003334Y017436D01*
X003396Y017375D01*
X003519Y017375D01*
X003581Y017313D01*
X003581Y017251D01*
X003519Y017189D01*
X003396Y017189D01*
X003334Y017251D01*
X003213Y017251D02*
X003213Y017560D01*
X002966Y017560D02*
X002966Y017251D01*
X003028Y017189D01*
X003151Y017189D01*
X003213Y017251D01*
X003458Y017128D02*
X003458Y017621D01*
X025875Y015565D02*
X025875Y015257D01*
X025937Y015195D01*
X026060Y015195D01*
X026122Y015257D01*
X026122Y015565D01*
X026243Y015504D02*
X026305Y015565D01*
X026428Y015565D01*
X026490Y015504D01*
X026612Y015504D02*
X026673Y015565D01*
X026797Y015565D01*
X026859Y015504D01*
X026859Y015442D01*
X026797Y015380D01*
X026859Y015318D01*
X026859Y015257D01*
X026797Y015195D01*
X026673Y015195D01*
X026612Y015257D01*
X026490Y015257D02*
X026490Y015318D01*
X026428Y015380D01*
X026305Y015380D01*
X026243Y015442D01*
X026243Y015504D01*
X026367Y015627D02*
X026367Y015133D01*
X026428Y015195D02*
X026490Y015257D01*
X026428Y015195D02*
X026305Y015195D01*
X026243Y015257D01*
X026735Y015380D02*
X026797Y015380D01*
X026980Y015257D02*
X027042Y015195D01*
X027165Y015195D01*
X027227Y015257D01*
X027227Y015318D01*
X027165Y015380D01*
X027103Y015380D01*
X027165Y015380D02*
X027227Y015442D01*
X027227Y015504D01*
X027165Y015565D01*
X027042Y015565D01*
X026980Y015504D01*
X026817Y014325D02*
X026879Y014264D01*
X026879Y014202D01*
X026817Y014140D01*
X026879Y014078D01*
X026879Y014017D01*
X026817Y013955D01*
X026693Y013955D01*
X026632Y014017D01*
X026510Y014017D02*
X026510Y014078D01*
X026448Y014140D01*
X026325Y014140D01*
X026263Y014202D01*
X026263Y014264D01*
X026325Y014325D01*
X026448Y014325D01*
X026510Y014264D01*
X026632Y014264D02*
X026693Y014325D01*
X026817Y014325D01*
X026817Y014140D02*
X026755Y014140D01*
X027000Y014140D02*
X027185Y014325D01*
X027185Y013955D01*
X027247Y014140D02*
X027000Y014140D01*
X026510Y014017D02*
X026448Y013955D01*
X026325Y013955D01*
X026263Y014017D01*
X026142Y014017D02*
X026142Y014325D01*
X025895Y014325D02*
X025895Y014017D01*
X025957Y013955D01*
X026080Y013955D01*
X026142Y014017D01*
X026387Y013893D02*
X026387Y014387D01*
X026337Y013317D02*
X026337Y012823D01*
X026398Y012885D02*
X026460Y012947D01*
X026460Y013008D01*
X026398Y013070D01*
X026275Y013070D01*
X026213Y013132D01*
X026213Y013194D01*
X026275Y013255D01*
X026398Y013255D01*
X026460Y013194D01*
X026582Y013194D02*
X026643Y013255D01*
X026767Y013255D01*
X026829Y013194D01*
X026829Y013132D01*
X026767Y013070D01*
X026829Y013008D01*
X026829Y012947D01*
X026767Y012885D01*
X026643Y012885D01*
X026582Y012947D01*
X026705Y013070D02*
X026767Y013070D01*
X026950Y013070D02*
X026950Y013255D01*
X027197Y013255D01*
X027135Y013132D02*
X027197Y013070D01*
X027197Y012947D01*
X027135Y012885D01*
X027012Y012885D01*
X026950Y012947D01*
X026950Y013070D02*
X027073Y013132D01*
X027135Y013132D01*
X026398Y012885D02*
X026275Y012885D01*
X026213Y012947D01*
X026092Y012947D02*
X026092Y013255D01*
X025845Y013255D02*
X025845Y012947D01*
X025907Y012885D01*
X026030Y012885D01*
X026092Y012947D01*
X006360Y001335D02*
X006360Y000965D01*
X006237Y000965D02*
X006484Y000965D01*
X006237Y001212D02*
X006360Y001335D01*
X006115Y001274D02*
X006054Y001335D01*
X005930Y001335D01*
X005868Y001274D01*
X005868Y001027D01*
X005930Y000965D01*
X006054Y000965D01*
X006115Y001027D01*
X005746Y000965D02*
X005623Y000965D01*
X005685Y000965D02*
X005685Y001335D01*
X005746Y001335D02*
X005623Y001335D01*
D341*
X002485Y016994D03*
D342*
X017033Y005026D03*
D343*
X010782Y011339D03*
M02*
