  0
SECTION
  2
HEADER
  9
$ACADVER
  1
AC1009
  9
$FILLMODE
 70
1
  9
$EXTMIN
 10
-42.9768
 20
-27.1018
 30
0.0000
  9
$EXTMAX
 10
45.1235
 20
26.3398
 30
0.0000
  0
ENDSEC
  0
SECTION
  2
TABLES
  0
TABLE
  2
LTYPE
 70
1
  0
LTYPE
  2
CONTINUOUS
 70
64
  3
Solid line
 72
65
 73
0
 40
0
  0
ENDTAB
  0
TABLE
  2
LAYER
 70
255
  0
LAYER
  2
17
 70
64
 62
82
  6
CONTINUOUS
  0
LAYER
  2
18
 70
64
 62
82
  6
CONTINUOUS
  0
LAYER
  2
44
 70
64
 62
253
  6
CONTINUOUS
  0
ENDTAB
  0
ENDSEC
  0
SECTION
  2
BLOCKS
  0
BLOCK
  8
0
  2
RECT
 70
64
 10
0.0000
 20
0.0000
 30
0.0000
  3
RECT
  0
SOLID
  8
0
 10
-0.5000
 20
-0.5000
 30
0.0000
 11
0.5000
 21
-0.5000
 31
0.0000
 12
-0.5000
 22
0.5000
 32
0.0000
 13
0.5000
 23
0.5000
 33
0.0000
  0
ENDBLK
  8
0
  0
BLOCK
  8
0
  2
PIE
 70
64
 10
0.0000
 20
0.0000
 30
0.0000
  3
PIE
  0
POLYLINE
  8
0
 66
1
 10
0.0000
 20
0.0000
 30
0.0000
 40
0.5000
 41
0.5000
 70
0
  0
VERTEX
  8
0
 10
0.0000
 20
-0.2500
 30
0.0000
 42
1.0000
  0
VERTEX
  8
0
 10
0.0000
 20
0.2500
 30
0.0000
 42
1.0000
  0
VERTEX
  8
0
 10
0.0000
 20
-0.2500
 30
0.0000
  0
SEQEND
  8
0
  0
ENDBLK
  8
0
  0
BLOCK
  8
0
  2
OCTAGONP
 70
64
 10
0.0000
 20
0.0000
 30
0.0000
  3
OCTAGONP
  0
POLYLINE
  8
0
 66
1
 10
0.0000
 20
0.0000
 30
0.0000
 40
0.5000
 41
0.5000
 70
0
  0
VERTEX
  8
0
 10
-0.2500
 20
-0.1036
 30
0.0000
  0
VERTEX
  8
0
 10
-0.2500
 20
0.1036
 30
0.0000
  0
VERTEX
  8
0
 10
-0.1036
 20
0.2500
 30
0.0000
  0
VERTEX
  8
0
 10
0.1036
 20
0.2500
 30
0.0000
  0
VERTEX
  8
0
 10
0.2500
 20
0.1036
 30
0.0000
  0
VERTEX
  8
0
 10
0.2500
 20
-0.1036
 30
0.0000
  0
VERTEX
  8
0
 10
0.1036
 20
-0.2500
 30
0.0000
  0
VERTEX
  8
0
 10
-0.1036
 20
-0.2500
 30
0.0000
  0
VERTEX
  8
0
 10
-0.2500
 20
-0.1036
 30
0.0000
  0
VERTEX
  8
0
 10
-0.2500
 20
0.1036
 30
0.0000
  0
SEQEND
  8
0
  0
ENDBLK
  8
0
  0
BLOCK
  8
0
  2
SQUAREP
 70
64
 10
0.0000
 20
0.0000
 30
0.0000
  3
SQUAREP
  0
SOLID
  8
0
 10
-0.5000
 20
-0.5000
 30
0.0000
 11
0.5000
 21
-0.5000
 31
0.0000
 12
-0.5000
 22
0.5000
 32
0.0000
 13
0.5000
 23
0.5000
 33
0.0000
  0
ENDBLK
  8
0
  0
BLOCK
  8
0
  2
ROUNDP
 70
64
 10
0.0000
 20
0.0000
 30
0.0000
  3
ROUNDP
  0
POLYLINE
  8
0
 66
1
 10
0.0000
 20
0.0000
 30
0.0000
 40
0.5000
 41
0.5000
 70
0
  0
VERTEX
  8
0
 10
0.0000
 20
-0.2500
 30
0.0000
 42
1.0000
  0
VERTEX
  8
0
 10
0.0000
 20
0.2500
 30
0.0000
 42
1.0000
  0
VERTEX
  8
0
 10
0.0000
 20
-0.2500
 30
0.0000
  0
SEQEND
  8
0
  0
ENDBLK
  8
0
  0
BLOCK
  8
0
  2
ANNULUSP
 70
64
 10
0.0000
 20
0.0000
 30
0.0000
  3
ANNULUSP
  0
POLYLINE
  8
0
 66
1
 10
0.0000
 20
0.0000
 30
0.0000
 40
0.5000
 41
0.5000
 70
0
  0
VERTEX
  8
0
 10
0.0000
 20
-0.2500
 30
0.0000
 42
1.0000
  0
VERTEX
  8
0
 10
0.0000
 20
0.2500
 30
0.0000
 42
1.0000
  0
VERTEX
  8
0
 10
0.0000
 20
-0.2500
 30
0.0000
  0
SEQEND
  8
0
  0
ENDBLK
  8
0
  0
BLOCK
  8
0
  2
THERMALP
 70
64
 10
0.0000
 20
0.0000
 30
0.0000
  3
THERMALP
  0
POLYLINE
  8
0
 66
1
 10
0.0000
 20
0.0000
 30
0.0000
 40
0.1000
 41
0.1000
 70
0
  0
VERTEX
  8
0
 10
-0.2379
 20
0.4500
 30
0.0000
  0
VERTEX
  8
0
 10
0.2379
 20
0.4500
 30
0.0000
  0
SEQEND
  8
0
  0
POLYLINE
  8
0
 66
1
 10
0.0000
 20
0.0000
 30
0.0000
 40
0.0500
 41
0.0500
 70
0
  0
VERTEX
  8
0
 10
0.2379
 20
0.4250
 30
0.0000
 42
1.0000
  0
VERTEX
  8
0
 10
0.2379
 20
0.4750
 30
0.0000
  0
SEQEND
  8
0
  0
POLYLINE
  8
0
 66
1
 10
0.0000
 20
0.0000
 30
0.0000
 40
0.0500
 41
0.0500
 70
0
  0
VERTEX
  8
0
 10
-0.2379
 20
0.4750
 30
0.0000
 42
1.0000
  0
VERTEX
  8
0
 10
-0.2379
 20
0.4250
 30
0.0000
  0
SEQEND
  8
0
  0
POLYLINE
  8
0
 66
1
 10
0.0000
 20
0.0000
 30
0.0000
 40
0.1000
 41
0.1000
 70
0
  0
VERTEX
  8
0
 10
0.4500
 20
0.2379
 30
0.0000
  0
VERTEX
  8
0
 10
0.4500
 20
-0.2379
 30
0.0000
  0
SEQEND
  8
0
  0
POLYLINE
  8
0
 66
1
 10
0.0000
 20
0.0000
 30
0.0000
 40
0.0500
 41
0.0500
 70
0
  0
VERTEX
  8
0
 10
0.4250
 20
-0.2379
 30
0.0000
 42
1.0000
  0
VERTEX
  8
0
 10
0.4750
 20
-0.2379
 30
0.0000
  0
SEQEND
  8
0
  0
POLYLINE
  8
0
 66
1
 10
0.0000
 20
0.0000
 30
0.0000
 40
0.0500
 41
0.0500
 70
0
  0
VERTEX
  8
0
 10
0.4750
 20
0.2379
 30
0.0000
 42
1.0000
  0
VERTEX
  8
0
 10
0.4250
 20
0.2379
 30
0.0000
  0
SEQEND
  8
0
  0
POLYLINE
  8
0
 66
1
 10
0.0000
 20
0.0000
 30
0.0000
 40
0.1000
 41
0.1000
 70
0
  0
VERTEX
  8
0
 10
0.2379
 20
-0.4500
 30
0.0000
  0
VERTEX
  8
0
 10
-0.2379
 20
-0.4500
 30
0.0000
  0
SEQEND
  8
0
  0
POLYLINE
  8
0
 66
1
 10
0.0000
 20
0.0000
 30
0.0000
 40
0.0500
 41
0.0500
 70
0
  0
VERTEX
  8
0
 10
-0.2379
 20
-0.4250
 30
0.0000
 42
1.0000
  0
VERTEX
  8
0
 10
-0.2379
 20
-0.4750
 30
0.0000
  0
SEQEND
  8
0
  0
POLYLINE
  8
0
 66
1
 10
0.0000
 20
0.0000
 30
0.0000
 40
0.0500
 41
0.0500
 70
0
  0
VERTEX
  8
0
 10
0.2379
 20
-0.4750
 30
0.0000
 42
1.0000
  0
VERTEX
  8
0
 10
0.2379
 20
-0.4250
 30
0.0000
  0
SEQEND
  8
0
  0
POLYLINE
  8
0
 66
1
 10
0.0000
 20
0.0000
 30
0.0000
 40
0.1000
 41
0.1000
 70
0
  0
VERTEX
  8
0
 10
-0.4500
 20
-0.2379
 30
0.0000
  0
VERTEX
  8
0
 10
-0.4500
 20
0.2379
 30
0.0000
  0
SEQEND
  8
0
  0
POLYLINE
  8
0
 66
1
 10
0.0000
 20
0.0000
 30
0.0000
 40
0.0500
 41
0.0500
 70
0
  0
VERTEX
  8
0
 10
-0.4250
 20
0.2379
 30
0.0000
 42
1.0000
  0
VERTEX
  8
0
 10
-0.4750
 20
0.2379
 30
0.0000
  0
SEQEND
  8
0
  0
POLYLINE
  8
0
 66
1
 10
0.0000
 20
0.0000
 30
0.0000
 40
0.0500
 41
0.0500
 70
0
  0
VERTEX
  8
0
 10
-0.4750
 20
-0.2379
 30
0.0000
 42
1.0000
  0
VERTEX
  8
0
 10
-0.4250
 20
-0.2379
 30
0.0000
  0
SEQEND
  8
0
  0
ENDBLK
  8
0
  0
BLOCK
  8
0
  2
OCTAGONV
 70
64
 10
0.0000
 20
0.0000
 30
0.0000
  3
OCTAGONV
  0
POLYLINE
  8
0
 66
1
 10
0.0000
 20
0.0000
 30
0.0000
 40
0.5000
 41
0.5000
 70
0
  0
VERTEX
  8
0
 10
-0.2500
 20
-0.1036
 30
0.0000
  0
VERTEX
  8
0
 10
-0.2500
 20
0.1036
 30
0.0000
  0
VERTEX
  8
0
 10
-0.1036
 20
0.2500
 30
0.0000
  0
VERTEX
  8
0
 10
0.1036
 20
0.2500
 30
0.0000
  0
VERTEX
  8
0
 10
0.2500
 20
0.1036
 30
0.0000
  0
VERTEX
  8
0
 10
0.2500
 20
-0.1036
 30
0.0000
  0
VERTEX
  8
0
 10
0.1036
 20
-0.2500
 30
0.0000
  0
VERTEX
  8
0
 10
-0.1036
 20
-0.2500
 30
0.0000
  0
VERTEX
  8
0
 10
-0.2500
 20
-0.1036
 30
0.0000
  0
VERTEX
  8
0
 10
-0.2500
 20
0.1036
 30
0.0000
  0
SEQEND
  8
0
  0
ENDBLK
  8
0
  0
BLOCK
  8
0
  2
SQUAREV
 70
64
 10
0.0000
 20
0.0000
 30
0.0000
  3
SQUAREV
  0
SOLID
  8
0
 10
-0.5000
 20
-0.5000
 30
0.0000
 11
0.5000
 21
-0.5000
 31
0.0000
 12
-0.5000
 22
0.5000
 32
0.0000
 13
0.5000
 23
0.5000
 33
0.0000
  0
ENDBLK
  8
0
  0
BLOCK
  8
0
  2
ROUNDV
 70
64
 10
0.0000
 20
0.0000
 30
0.0000
  3
ROUNDV
  0
POLYLINE
  8
0
 66
1
 10
0.0000
 20
0.0000
 30
0.0000
 40
0.5000
 41
0.5000
 70
0
  0
VERTEX
  8
0
 10
0.0000
 20
-0.2500
 30
0.0000
 42
1.0000
  0
VERTEX
  8
0
 10
0.0000
 20
0.2500
 30
0.0000
 42
1.0000
  0
VERTEX
  8
0
 10
0.0000
 20
-0.2500
 30
0.0000
  0
SEQEND
  8
0
  0
ENDBLK
  8
0
  0
BLOCK
  8
0
  2
ANNULUSV
 70
64
 10
0.0000
 20
0.0000
 30
0.0000
  3
ANNULUSV
  0
POLYLINE
  8
0
 66
1
 10
0.0000
 20
0.0000
 30
0.0000
 40
0.5000
 41
0.5000
 70
0
  0
VERTEX
  8
0
 10
0.0000
 20
-0.2500
 30
0.0000
 42
1.0000
  0
VERTEX
  8
0
 10
0.0000
 20
0.2500
 30
0.0000
 42
1.0000
  0
VERTEX
  8
0
 10
0.0000
 20
-0.2500
 30
0.0000
  0
SEQEND
  8
0
  0
ENDBLK
  8
0
  0
BLOCK
  8
0
  2
THERMALV
 70
64
 10
0.0000
 20
0.0000
 30
0.0000
  3
THERMALV
  0
POLYLINE
  8
0
 66
1
 10
0.0000
 20
0.0000
 30
0.0000
 40
0.1000
 41
0.1000
 70
0
  0
VERTEX
  8
0
 10
-0.2379
 20
0.4500
 30
0.0000
  0
VERTEX
  8
0
 10
0.2379
 20
0.4500
 30
0.0000
  0
SEQEND
  8
0
  0
POLYLINE
  8
0
 66
1
 10
0.0000
 20
0.0000
 30
0.0000
 40
0.0500
 41
0.0500
 70
0
  0
VERTEX
  8
0
 10
0.2379
 20
0.4250
 30
0.0000
 42
1.0000
  0
VERTEX
  8
0
 10
0.2379
 20
0.4750
 30
0.0000
  0
SEQEND
  8
0
  0
POLYLINE
  8
0
 66
1
 10
0.0000
 20
0.0000
 30
0.0000
 40
0.0500
 41
0.0500
 70
0
  0
VERTEX
  8
0
 10
-0.2379
 20
0.4750
 30
0.0000
 42
1.0000
  0
VERTEX
  8
0
 10
-0.2379
 20
0.4250
 30
0.0000
  0
SEQEND
  8
0
  0
POLYLINE
  8
0
 66
1
 10
0.0000
 20
0.0000
 30
0.0000
 40
0.1000
 41
0.1000
 70
0
  0
VERTEX
  8
0
 10
0.4500
 20
0.2379
 30
0.0000
  0
VERTEX
  8
0
 10
0.4500
 20
-0.2379
 30
0.0000
  0
SEQEND
  8
0
  0
POLYLINE
  8
0
 66
1
 10
0.0000
 20
0.0000
 30
0.0000
 40
0.0500
 41
0.0500
 70
0
  0
VERTEX
  8
0
 10
0.4250
 20
-0.2379
 30
0.0000
 42
1.0000
  0
VERTEX
  8
0
 10
0.4750
 20
-0.2379
 30
0.0000
  0
SEQEND
  8
0
  0
POLYLINE
  8
0
 66
1
 10
0.0000
 20
0.0000
 30
0.0000
 40
0.0500
 41
0.0500
 70
0
  0
VERTEX
  8
0
 10
0.4750
 20
0.2379
 30
0.0000
 42
1.0000
  0
VERTEX
  8
0
 10
0.4250
 20
0.2379
 30
0.0000
  0
SEQEND
  8
0
  0
POLYLINE
  8
0
 66
1
 10
0.0000
 20
0.0000
 30
0.0000
 40
0.1000
 41
0.1000
 70
0
  0
VERTEX
  8
0
 10
0.2379
 20
-0.4500
 30
0.0000
  0
VERTEX
  8
0
 10
-0.2379
 20
-0.4500
 30
0.0000
  0
SEQEND
  8
0
  0
POLYLINE
  8
0
 66
1
 10
0.0000
 20
0.0000
 30
0.0000
 40
0.0500
 41
0.0500
 70
0
  0
VERTEX
  8
0
 10
-0.2379
 20
-0.4250
 30
0.0000
 42
1.0000
  0
VERTEX
  8
0
 10
-0.2379
 20
-0.4750
 30
0.0000
  0
SEQEND
  8
0
  0
POLYLINE
  8
0
 66
1
 10
0.0000
 20
0.0000
 30
0.0000
 40
0.0500
 41
0.0500
 70
0
  0
VERTEX
  8
0
 10
0.2379
 20
-0.4750
 30
0.0000
 42
1.0000
  0
VERTEX
  8
0
 10
0.2379
 20
-0.4250
 30
0.0000
  0
SEQEND
  8
0
  0
POLYLINE
  8
0
 66
1
 10
0.0000
 20
0.0000
 30
0.0000
 40
0.1000
 41
0.1000
 70
0
  0
VERTEX
  8
0
 10
-0.4500
 20
-0.2379
 30
0.0000
  0
VERTEX
  8
0
 10
-0.4500
 20
0.2379
 30
0.0000
  0
SEQEND
  8
0
  0
POLYLINE
  8
0
 66
1
 10
0.0000
 20
0.0000
 30
0.0000
 40
0.0500
 41
0.0500
 70
0
  0
VERTEX
  8
0
 10
-0.4250
 20
0.2379
 30
0.0000
 42
1.0000
  0
VERTEX
  8
0
 10
-0.4750
 20
0.2379
 30
0.0000
  0
SEQEND
  8
0
  0
POLYLINE
  8
0
 66
1
 10
0.0000
 20
0.0000
 30
0.0000
 40
0.0500
 41
0.0500
 70
0
  0
VERTEX
  8
0
 10
-0.4750
 20
-0.2379
 30
0.0000
 42
1.0000
  0
VERTEX
  8
0
 10
-0.4250
 20
-0.2379
 30
0.0000
  0
SEQEND
  8
0
  0
ENDBLK
  8
0
  0
ENDSEC
  0
SECTION
  2
ENTITIES
  0
INSERT
  8
17
  2
SQUAREP
 10
5.7150
 20
-9.4950
 30
0.0000
 41
1.0500
 42
1.0500
 43
1.0000
 50
180.0000
  0
INSERT
  8
17
  2
SQUAREP
 10
5.7150
 20
-9.4950
 30
0.0000
 41
1.0500
 42
1.0500
 43
1.0000
 50
180.0000
  0
CIRCLE
  8
44
 10
5.7150
 20
-9.4950
 30
0.0000
 40
0.3500
  0
INSERT
  8
17
  2
SQUAREP
 10
5.7150
 20
-8.2250
 30
0.0000
 41
1.0500
 42
1.0500
 43
1.0000
 50
180.0000
  0
INSERT
  8
17
  2
SQUAREP
 10
5.7150
 20
-8.2250
 30
0.0000
 41
1.0500
 42
1.0500
 43
1.0000
 50
180.0000
  0
CIRCLE
  8
44
 10
5.7150
 20
-8.2250
 30
0.0000
 40
0.3500
  0
INSERT
  8
17
  2
SQUAREP
 10
4.4450
 20
-9.4950
 30
0.0000
 41
1.0500
 42
1.0500
 43
1.0000
 50
180.0000
  0
INSERT
  8
17
  2
SQUAREP
 10
4.4450
 20
-9.4950
 30
0.0000
 41
1.0500
 42
1.0500
 43
1.0000
 50
180.0000
  0
CIRCLE
  8
44
 10
4.4450
 20
-9.4950
 30
0.0000
 40
0.3500
  0
INSERT
  8
17
  2
SQUAREP
 10
4.4450
 20
-8.2250
 30
0.0000
 41
1.0500
 42
1.0500
 43
1.0000
 50
180.0000
  0
INSERT
  8
17
  2
SQUAREP
 10
4.4450
 20
-8.2250
 30
0.0000
 41
1.0500
 42
1.0500
 43
1.0000
 50
180.0000
  0
CIRCLE
  8
44
 10
4.4450
 20
-8.2250
 30
0.0000
 40
0.3500
  0
INSERT
  8
17
  2
SQUAREP
 10
3.1750
 20
-9.4950
 30
0.0000
 41
1.0500
 42
1.0500
 43
1.0000
 50
180.0000
  0
INSERT
  8
17
  2
SQUAREP
 10
3.1750
 20
-9.4950
 30
0.0000
 41
1.0500
 42
1.0500
 43
1.0000
 50
180.0000
  0
CIRCLE
  8
44
 10
3.1750
 20
-9.4950
 30
0.0000
 40
0.3500
  0
INSERT
  8
17
  2
SQUAREP
 10
3.1750
 20
-8.2250
 30
0.0000
 41
1.0500
 42
1.0500
 43
1.0000
 50
180.0000
  0
INSERT
  8
17
  2
SQUAREP
 10
3.1750
 20
-8.2250
 30
0.0000
 41
1.0500
 42
1.0500
 43
1.0000
 50
180.0000
  0
CIRCLE
  8
44
 10
3.1750
 20
-8.2250
 30
0.0000
 40
0.3500
  0
INSERT
  8
17
  2
SQUAREP
 10
1.9050
 20
-9.4950
 30
0.0000
 41
1.0500
 42
1.0500
 43
1.0000
 50
180.0000
  0
INSERT
  8
17
  2
SQUAREP
 10
1.9050
 20
-9.4950
 30
0.0000
 41
1.0500
 42
1.0500
 43
1.0000
 50
180.0000
  0
CIRCLE
  8
44
 10
1.9050
 20
-9.4950
 30
0.0000
 40
0.3500
  0
INSERT
  8
17
  2
SQUAREP
 10
1.9050
 20
-8.2250
 30
0.0000
 41
1.0500
 42
1.0500
 43
1.0000
 50
180.0000
  0
INSERT
  8
17
  2
SQUAREP
 10
1.9050
 20
-8.2250
 30
0.0000
 41
1.0500
 42
1.0500
 43
1.0000
 50
180.0000
  0
CIRCLE
  8
44
 10
1.9050
 20
-8.2250
 30
0.0000
 40
0.3500
  0
INSERT
  8
17
  2
SQUAREP
 10
0.6350
 20
-9.4950
 30
0.0000
 41
1.0500
 42
1.0500
 43
1.0000
 50
180.0000
  0
INSERT
  8
17
  2
SQUAREP
 10
0.6350
 20
-9.4950
 30
0.0000
 41
1.0500
 42
1.0500
 43
1.0000
 50
180.0000
  0
CIRCLE
  8
44
 10
0.6350
 20
-9.4950
 30
0.0000
 40
0.3500
  0
INSERT
  8
17
  2
SQUAREP
 10
0.6350
 20
-8.2250
 30
0.0000
 41
1.0500
 42
1.0500
 43
1.0000
 50
180.0000
  0
INSERT
  8
17
  2
SQUAREP
 10
0.6350
 20
-8.2250
 30
0.0000
 41
1.0500
 42
1.0500
 43
1.0000
 50
180.0000
  0
CIRCLE
  8
44
 10
0.6350
 20
-8.2250
 30
0.0000
 40
0.3500
  0
INSERT
  8
17
  2
SQUAREP
 10
-0.6350
 20
-9.4950
 30
0.0000
 41
1.0500
 42
1.0500
 43
1.0000
 50
180.0000
  0
INSERT
  8
17
  2
SQUAREP
 10
-0.6350
 20
-9.4950
 30
0.0000
 41
1.0500
 42
1.0500
 43
1.0000
 50
180.0000
  0
CIRCLE
  8
44
 10
-0.6350
 20
-9.4950
 30
0.0000
 40
0.3500
  0
INSERT
  8
17
  2
SQUAREP
 10
-0.6350
 20
-8.2250
 30
0.0000
 41
1.0500
 42
1.0500
 43
1.0000
 50
180.0000
  0
INSERT
  8
17
  2
SQUAREP
 10
-0.6350
 20
-8.2250
 30
0.0000
 41
1.0500
 42
1.0500
 43
1.0000
 50
180.0000
  0
CIRCLE
  8
44
 10
-0.6350
 20
-8.2250
 30
0.0000
 40
0.3500
  0
INSERT
  8
17
  2
SQUAREP
 10
-1.9050
 20
-9.4950
 30
0.0000
 41
1.0500
 42
1.0500
 43
1.0000
 50
180.0000
  0
INSERT
  8
17
  2
SQUAREP
 10
-1.9050
 20
-9.4950
 30
0.0000
 41
1.0500
 42
1.0500
 43
1.0000
 50
180.0000
  0
CIRCLE
  8
44
 10
-1.9050
 20
-9.4950
 30
0.0000
 40
0.3500
  0
INSERT
  8
17
  2
SQUAREP
 10
-1.9050
 20
-8.2250
 30
0.0000
 41
1.0500
 42
1.0500
 43
1.0000
 50
180.0000
  0
INSERT
  8
17
  2
SQUAREP
 10
-1.9050
 20
-8.2250
 30
0.0000
 41
1.0500
 42
1.0500
 43
1.0000
 50
180.0000
  0
CIRCLE
  8
44
 10
-1.9050
 20
-8.2250
 30
0.0000
 40
0.3500
  0
INSERT
  8
17
  2
SQUAREP
 10
-3.1750
 20
-9.4950
 30
0.0000
 41
1.0500
 42
1.0500
 43
1.0000
 50
180.0000
  0
INSERT
  8
17
  2
SQUAREP
 10
-3.1750
 20
-9.4950
 30
0.0000
 41
1.0500
 42
1.0500
 43
1.0000
 50
180.0000
  0
CIRCLE
  8
44
 10
-3.1750
 20
-9.4950
 30
0.0000
 40
0.3500
  0
INSERT
  8
17
  2
SQUAREP
 10
-3.1750
 20
-8.2250
 30
0.0000
 41
1.0500
 42
1.0500
 43
1.0000
 50
180.0000
  0
INSERT
  8
17
  2
SQUAREP
 10
-3.1750
 20
-8.2250
 30
0.0000
 41
1.0500
 42
1.0500
 43
1.0000
 50
180.0000
  0
CIRCLE
  8
44
 10
-3.1750
 20
-8.2250
 30
0.0000
 40
0.3500
  0
INSERT
  8
17
  2
SQUAREP
 10
-4.4450
 20
-9.4950
 30
0.0000
 41
1.0500
 42
1.0500
 43
1.0000
 50
180.0000
  0
INSERT
  8
17
  2
SQUAREP
 10
-4.4450
 20
-9.4950
 30
0.0000
 41
1.0500
 42
1.0500
 43
1.0000
 50
180.0000
  0
CIRCLE
  8
44
 10
-4.4450
 20
-9.4950
 30
0.0000
 40
0.3500
  0
INSERT
  8
17
  2
SQUAREP
 10
-4.4450
 20
-8.2250
 30
0.0000
 41
1.0500
 42
1.0500
 43
1.0000
 50
180.0000
  0
INSERT
  8
17
  2
SQUAREP
 10
-4.4450
 20
-8.2250
 30
0.0000
 41
1.0500
 42
1.0500
 43
1.0000
 50
180.0000
  0
CIRCLE
  8
44
 10
-4.4450
 20
-8.2250
 30
0.0000
 40
0.3500
  0
INSERT
  8
17
  2
SQUAREP
 10
-5.7150
 20
-9.4950
 30
0.0000
 41
1.0500
 42
1.0500
 43
1.0000
 50
180.0000
  0
INSERT
  8
17
  2
SQUAREP
 10
-5.7150
 20
-9.4950
 30
0.0000
 41
1.0500
 42
1.0500
 43
1.0000
 50
180.0000
  0
CIRCLE
  8
44
 10
-5.7150
 20
-9.4950
 30
0.0000
 40
0.3500
  0
INSERT
  8
17
  2
SQUAREP
 10
-5.7150
 20
-8.2250
 30
0.0000
 41
1.0500
 42
1.0500
 43
1.0000
 50
180.0000
  0
INSERT
  8
17
  2
SQUAREP
 10
-5.7150
 20
-8.2250
 30
0.0000
 41
1.0500
 42
1.0500
 43
1.0000
 50
180.0000
  0
CIRCLE
  8
44
 10
-5.7150
 20
-8.2250
 30
0.0000
 40
0.3500
  0
INSERT
  8
17
  2
ROUNDP
 10
31.2928
 20
16.5862
 30
0.0000
 41
4.6160
 42
4.6160
 43
1.0000
 50
0.0000
  0
INSERT
  8
17
  2
ROUNDP
 10
31.2928
 20
16.5862
 30
0.0000
 41
4.6160
 42
4.6160
 43
1.0000
 50
0.0000
  0
CIRCLE
  8
44
 10
31.2928
 20
16.5862
 30
0.0000
 40
1.8000
  0
INSERT
  8
17
  2
ROUNDP
 10
37.2928
 20
16.5862
 30
0.0000
 41
4.1160
 42
4.1160
 43
1.0000
 50
270.0000
  0
INSERT
  8
17
  2
ROUNDP
 10
37.2928
 20
16.5862
 30
0.0000
 41
4.1160
 42
4.1160
 43
1.0000
 50
270.0000
  0
CIRCLE
  8
44
 10
37.2928
 20
16.5862
 30
0.0000
 40
1.5500
  0
INSERT
  8
17
  2
ROUNDP
 10
34.2928
 20
11.8862
 30
0.0000
 41
4.1160
 42
4.1160
 43
1.0000
 50
0.0000
  0
INSERT
  8
17
  2
ROUNDP
 10
34.2928
 20
11.8862
 30
0.0000
 41
4.1160
 42
4.1160
 43
1.0000
 50
0.0000
  0
CIRCLE
  8
44
 10
34.2928
 20
11.8862
 30
0.0000
 40
1.5500
  0
INSERT
  8
17
  2
ROUNDP
 10
-30.8208
 20
-22.9108
 30
0.0000
 41
1.4850
 42
1.4850
 43
1.0000
 50
180.0000
  0
INSERT
  8
17
  2
ROUNDP
 10
-30.8208
 20
-22.9108
 30
0.0000
 41
1.4850
 42
1.4850
 43
1.0000
 50
180.0000
  0
CIRCLE
  8
44
 10
-30.8208
 20
-22.9108
 30
0.0000
 40
0.4950
  0
INSERT
  8
17
  2
ROUNDP
 10
-35.3208
 20
-22.9108
 30
0.0000
 41
1.4850
 42
1.4850
 43
1.0000
 50
180.0000
  0
INSERT
  8
17
  2
ROUNDP
 10
-35.3208
 20
-22.9108
 30
0.0000
 41
1.4850
 42
1.4850
 43
1.0000
 50
180.0000
  0
CIRCLE
  8
44
 10
-35.3208
 20
-22.9108
 30
0.0000
 40
0.4950
  0
INSERT
  8
18
  2
ROUNDV
 10
-21.9710
 20
-4.7102
 30
0.0000
 41
1.9304
 42
1.9304
 43
1.0000
 50
0.0000
  0
CIRCLE
  8
44
 10
-21.9710
 20
-4.7102
 30
0.0000
 40
0.4000
  0
INSERT
  8
18
  2
ROUNDV
 10
11.5316
 20
-9.2964
 30
0.0000
 41
1.9304
 42
1.9304
 43
1.0000
 50
0.0000
  0
CIRCLE
  8
44
 10
11.5316
 20
-9.2964
 30
0.0000
 40
0.4000
  0
INSERT
  8
18
  2
ROUNDV
 10
-8.7884
 20
17.5768
 30
0.0000
 41
1.9304
 42
1.9304
 43
1.0000
 50
0.0000
  0
CIRCLE
  8
44
 10
-8.7884
 20
17.5768
 30
0.0000
 40
0.4000
  0
INSERT
  8
18
  2
ROUNDV
 10
32.0548
 20
-11.0998
 30
0.0000
 41
1.9304
 42
1.9304
 43
1.0000
 50
0.0000
  0
CIRCLE
  8
44
 10
32.0548
 20
-11.0998
 30
0.0000
 40
0.4000
  0
INSERT
  8
18
  2
ROUNDV
 10
32.0548
 20
-16.4338
 30
0.0000
 41
1.9304
 42
1.9304
 43
1.0000
 50
0.0000
  0
CIRCLE
  8
44
 10
32.0548
 20
-16.4338
 30
0.0000
 40
0.4000
  0
INSERT
  8
18
  2
ROUNDV
 10
-5.1372
 20
0.6096
 30
0.0000
 41
1.9304
 42
1.9304
 43
1.0000
 50
0.0000
  0
CIRCLE
  8
44
 10
-5.1372
 20
0.6096
 30
0.0000
 40
0.4000
  0
INSERT
  8
18
  2
ROUNDV
 10
-8.7220
 20
12.8666
 30
0.0000
 41
1.9304
 42
1.9304
 43
1.0000
 50
0.0000
  0
CIRCLE
  8
44
 10
-8.7220
 20
12.8666
 30
0.0000
 40
0.4000
  0
INSERT
  8
18
  2
ROUNDV
 10
-6.1646
 20
12.0378
 30
0.0000
 41
1.9304
 42
1.9304
 43
1.0000
 50
0.0000
  0
CIRCLE
  8
44
 10
-6.1646
 20
12.0378
 30
0.0000
 40
0.4000
  0
INSERT
  8
18
  2
ROUNDV
 10
-4.5260
 20
-1.9558
 30
0.0000
 41
1.9304
 42
1.9304
 43
1.0000
 50
0.0000
  0
CIRCLE
  8
44
 10
-4.5260
 20
-1.9558
 30
0.0000
 40
0.4000
  0
INSERT
  8
18
  2
ROUNDV
 10
-12.3984
 20
16.8974
 30
0.0000
 41
1.9304
 42
1.9304
 43
1.0000
 50
0.0000
  0
CIRCLE
  8
44
 10
-12.3984
 20
16.8974
 30
0.0000
 40
0.4000
  0
INSERT
  8
18
  2
ROUNDV
 10
-15.6418
 20
-9.8616
 30
0.0000
 41
1.9304
 42
1.9304
 43
1.0000
 50
0.0000
  0
CIRCLE
  8
44
 10
-15.6418
 20
-9.8616
 30
0.0000
 40
0.4000
  0
INSERT
  8
18
  2
ROUNDV
 10
19.9788
 20
-1.1460
 30
0.0000
 41
1.9304
 42
1.9304
 43
1.0000
 50
0.0000
  0
CIRCLE
  8
44
 10
19.9788
 20
-1.1460
 30
0.0000
 40
0.4000
  0
INSERT
  8
18
  2
ROUNDV
 10
1.7400
 20
7.4106
 30
0.0000
 41
1.9304
 42
1.9304
 43
1.0000
 50
0.0000
  0
CIRCLE
  8
44
 10
1.7400
 20
7.4106
 30
0.0000
 40
0.4000
  0
INSERT
  8
18
  2
ROUNDV
 10
-16.7038
 20
-4.2482
 30
0.0000
 41
1.9304
 42
1.9304
 43
1.0000
 50
0.0000
  0
CIRCLE
  8
44
 10
-16.7038
 20
-4.2482
 30
0.0000
 40
0.4000
  0
INSERT
  8
18
  2
ROUNDV
 10
-17.6498
 20
-6.8374
 30
0.0000
 41
1.9304
 42
1.9304
 43
1.0000
 50
0.0000
  0
CIRCLE
  8
44
 10
-17.6498
 20
-6.8374
 30
0.0000
 40
0.4000
  0
INSERT
  8
18
  2
ROUNDV
 10
20.6756
 20
-15.7480
 30
0.0000
 41
1.9304
 42
1.9304
 43
1.0000
 50
0.0000
  0
CIRCLE
  8
44
 10
20.6756
 20
-15.7480
 30
0.0000
 40
0.4000
  0
INSERT
  8
18
  2
ROUNDV
 10
20.3200
 20
-12.7000
 30
0.0000
 41
1.9304
 42
1.9304
 43
1.0000
 50
0.0000
  0
CIRCLE
  8
44
 10
20.3200
 20
-12.7000
 30
0.0000
 40
0.4000
  0
INSERT
  8
18
  2
ROUNDV
 10
-11.8142
 20
-8.8442
 30
0.0000
 41
1.9304
 42
1.9304
 43
1.0000
 50
0.0000
  0
CIRCLE
  8
44
 10
-11.8142
 20
-8.8442
 30
0.0000
 40
0.4000
  0
INSERT
  8
18
  2
ROUNDV
 10
-13.6398
 20
-7.0852
 30
0.0000
 41
1.9304
 42
1.9304
 43
1.0000
 50
0.0000
  0
CIRCLE
  8
44
 10
-13.6398
 20
-7.0852
 30
0.0000
 40
0.4000
  0
INSERT
  8
18
  2
ROUNDV
 10
-11.5998
 20
-5.8534
 30
0.0000
 41
1.9304
 42
1.9304
 43
1.0000
 50
0.0000
  0
CIRCLE
  8
44
 10
-11.5998
 20
-5.8534
 30
0.0000
 40
0.4000
  0
INSERT
  8
18
  2
ROUNDV
 10
20.2000
 20
1.2000
 30
0.0000
 41
1.9304
 42
1.9304
 43
1.0000
 50
0.0000
  0
CIRCLE
  8
44
 10
20.2000
 20
1.2000
 30
0.0000
 40
0.4000
  0
INSERT
  8
18
  2
ROUNDV
 10
2.1000
 20
9.9000
 30
0.0000
 41
1.9304
 42
1.9304
 43
1.0000
 50
0.0000
  0
CIRCLE
  8
44
 10
2.1000
 20
9.9000
 30
0.0000
 40
0.4000
  0
INSERT
  8
18
  2
ROUNDV
 10
-27.0002
 20
-0.5842
 30
0.0000
 41
1.9304
 42
1.9304
 43
1.0000
 50
0.0000
  0
CIRCLE
  8
44
 10
-27.0002
 20
-0.5842
 30
0.0000
 40
0.4000
  0
INSERT
  8
18
  2
ROUNDV
 10
-29.5656
 20
7.1882
 30
0.0000
 41
1.9304
 42
1.9304
 43
1.0000
 50
0.0000
  0
CIRCLE
  8
44
 10
-29.5656
 20
7.1882
 30
0.0000
 40
0.4000
  0
INSERT
  8
18
  2
ROUNDV
 10
-29.4132
 20
-7.0358
 30
0.0000
 41
1.9304
 42
1.9304
 43
1.0000
 50
0.0000
  0
CIRCLE
  8
44
 10
-29.4132
 20
-7.0358
 30
0.0000
 40
0.4000
  0
INSERT
  8
18
  2
ROUNDV
 10
-25.2888
 20
17.8800
 30
0.0000
 41
1.9304
 42
1.9304
 43
1.0000
 50
0.0000
  0
CIRCLE
  8
44
 10
-25.2888
 20
17.8800
 30
0.0000
 40
0.4000
  0
INSERT
  8
18
  2
ROUNDV
 10
16.2052
 20
-9.9060
 30
0.0000
 41
1.9304
 42
1.9304
 43
1.0000
 50
0.0000
  0
CIRCLE
  8
44
 10
16.2052
 20
-9.9060
 30
0.0000
 40
0.4000
  0
INSERT
  8
18
  2
ROUNDV
 10
-8.2000
 20
9.6000
 30
0.0000
 41
1.9304
 42
1.9304
 43
1.0000
 50
0.0000
  0
CIRCLE
  8
44
 10
-8.2000
 20
9.6000
 30
0.0000
 40
0.4000
  0
INSERT
  8
18
  2
ROUNDV
 10
-32.6010
 20
22.4550
 30
0.0000
 41
1.9304
 42
1.9304
 43
1.0000
 50
0.0000
  0
CIRCLE
  8
44
 10
-32.6010
 20
22.4550
 30
0.0000
 40
0.4000
  0
INSERT
  8
18
  2
ROUNDV
 10
9.8044
 20
10.3124
 30
0.0000
 41
1.9304
 42
1.9304
 43
1.0000
 50
0.0000
  0
CIRCLE
  8
44
 10
9.8044
 20
10.3124
 30
0.0000
 40
0.4000
  0
INSERT
  8
18
  2
ROUNDV
 10
-30.6802
 20
-14.0970
 30
0.0000
 41
1.9304
 42
1.9304
 43
1.0000
 50
0.0000
  0
CIRCLE
  8
44
 10
-30.6802
 20
-14.0970
 30
0.0000
 40
0.4000
  0
INSERT
  8
18
  2
SQUAREV
 10
-7.3000
 20
5.9000
 30
0.0000
 41
1.0064
 42
1.0064
 43
1.0000
 50
0.0000
  0
CIRCLE
  8
44
 10
-7.3000
 20
5.9000
 30
0.0000
 40
0.3000
  0
INSERT
  8
18
  2
ROUNDV
 10
-14.7000
 20
-14.0000
 30
0.0000
 41
1.9304
 42
1.9304
 43
1.0000
 50
0.0000
  0
CIRCLE
  8
44
 10
-14.7000
 20
-14.0000
 30
0.0000
 40
0.4000
  0
INSERT
  8
18
  2
ROUNDV
 10
-18.4000
 20
-10.8000
 30
0.0000
 41
1.9304
 42
1.9304
 43
1.0000
 50
0.0000
  0
CIRCLE
  8
44
 10
-18.4000
 20
-10.8000
 30
0.0000
 40
0.4000
  0
INSERT
  8
18
  2
ROUNDV
 10
-23.0000
 20
18.0000
 30
0.0000
 41
1.9304
 42
1.9304
 43
1.0000
 50
0.0000
  0
CIRCLE
  8
44
 10
-23.0000
 20
18.0000
 30
0.0000
 40
0.4000
  0
INSERT
  8
18
  2
ROUNDV
 10
-36.7000
 20
20.3000
 30
0.0000
 41
1.9304
 42
1.9304
 43
1.0000
 50
0.0000
  0
CIRCLE
  8
44
 10
-36.7000
 20
20.3000
 30
0.0000
 40
0.4000
  0
INSERT
  8
18
  2
ROUNDV
 10
-24.3000
 20
15.2000
 30
0.0000
 41
1.9304
 42
1.9304
 43
1.0000
 50
0.0000
  0
CIRCLE
  8
44
 10
-24.3000
 20
15.2000
 30
0.0000
 40
0.4000
  0
INSERT
  8
18
  2
ROUNDV
 10
-38.2000
 20
17.9000
 30
0.0000
 41
1.9304
 42
1.9304
 43
1.0000
 50
0.0000
  0
CIRCLE
  8
44
 10
-38.2000
 20
17.9000
 30
0.0000
 40
0.4000
  0
ENDSEC
  0
EOF
